<svg width="1416" height="1510" viewBox="0 0 1416 1510" fill="none" xmlns="http://www.w3.org/2000/svg">
<g clip-path="url(#clip0_134_1199)">
<rect width="1416" height="1510" fill="#C38719"/>
<rect x="710" y="839" width="200" height="200" rx="15" fill="#EBA900"/>
<rect x="850" y="233" width="200" height="140" rx="15" fill="#EBA900"/>
<rect x="932" y="839" width="280" height="140" rx="15" fill="#EBA900"/>
<rect x="548" y="677" width="280" height="140" rx="15" fill="#EBA900"/>
<rect x="408" y="839" width="280" height="140" rx="15" fill="#EBA900"/>
<rect x="1072" y="595" width="280" height="140" rx="15" transform="rotate(-90 1072 595)" fill="#EBA900"/>
<rect x="408" y="1001" width="280" height="140" rx="15" fill="#EBA900"/>
<rect x="326" y="353" width="280" height="140" rx="15" fill="#EBA900"/>
<rect x="326" y="-31" width="280" height="140" rx="15" fill="#EBA900"/>
<rect x="628" y="-91" width="280" height="140" rx="15" fill="#EBA900"/>
<rect x="104" y="515" width="280" height="140" rx="15" fill="#EBA900"/>
<rect x="-58" y="633" width="280" height="140" rx="15" transform="rotate(-90 -58 633)" fill="#EBA900"/>
<rect x="628" y="71" width="280" height="140" rx="15" fill="#EBA900"/>
<rect x="930" y="211" width="280" height="120" rx="15" transform="rotate(-90 930 211)" fill="#EBA900"/>
<rect x="1072" y="-69" width="280" height="140" rx="15" fill="#EBA900"/>
<rect x="1374" y="-68" width="220" height="140" rx="15" fill="#EBA900"/>
<rect x="710" y="1361" width="78" height="200" rx="15" transform="rotate(-90 710 1361)" fill="#EBA900"/>
<rect x="408" y="1163" width="58" height="200" rx="15" fill="#EBA900"/>
<rect x="104" y="839" width="60" height="200" rx="15" fill="#EBA900"/>
<rect x="1154" y="1443" width="280" height="140" rx="15" transform="rotate(-90 1154 1443)" fill="#EBA900"/>
<rect x="852" y="1383" width="280" height="140" rx="15" fill="#EBA900"/>
<rect x="-18" y="1445" width="280" height="140" rx="15" fill="#EBA900"/>
<rect x="850" y="817" width="200" height="140" rx="15" transform="rotate(-90 850 817)" fill="#EBA900"/>
<rect x="1234" y="757" width="220" height="199" rx="15" transform="rotate(-90 1234 757)" fill="#EBA900"/>
<rect x="1154" y="1001" width="200" height="140" rx="15" fill="#EBA900"/>
<rect x="406" y="515" width="200" height="140" rx="15" fill="#EBA900"/>
<rect x="104" y="353" width="200" height="140" rx="15" fill="#EBA900"/>
<rect x="-38" y="191" width="200" height="140" rx="15" fill="#EBA900"/>
<rect x="186" y="-31" width="118" height="140" rx="15" fill="#EBA900"/>
<rect x="326" y="677" width="200" height="140" rx="15" fill="#EBA900"/>
<rect x="104" y="677" width="200" height="140" rx="15" fill="#EBA900"/>
<rect x="932" y="1223" width="200" height="140" rx="15" fill="#EBA900"/>
<rect x="932" y="1001" width="200" height="200" rx="15" fill="#EBA900"/>
<rect x="628" y="455" width="200" height="200" rx="15" fill="#EBA900"/>
<rect x="630" y="1383" width="200" height="200" rx="15" fill="#EBA900"/>
<rect x="-36" y="1223" width="200" height="200" rx="15" fill="#EBA900"/>
<rect x="186" y="839" width="200" height="200" rx="15" fill="#EBA900"/>
<rect x="184" y="131" width="200" height="200" rx="15" fill="#EBA900"/>
<rect x="-38" y="-31" width="200" height="200" rx="15" fill="#EBA900"/>
<rect x="1154" y="1465" width="200" height="220" rx="15" fill="#EBA900"/>
<rect x="186" y="1061" width="200" height="200" rx="15" fill="#EBA900"/>
<rect x="628" y="233" width="200" height="200" rx="15" fill="#EBA900"/>
<rect x="406" y="131" width="200" height="200" rx="15" fill="#EBA900"/>
<rect x="710" y="1061" width="200" height="200" rx="15" fill="#EBA900"/>
<rect x="488" y="1163" width="200" height="200" rx="15" fill="#EBA900"/>
<rect x="850" y="395" width="200" height="200" rx="15" fill="#EBA900"/>
<rect x="1012" y="617" width="200" height="200" rx="15" fill="#EBA900"/>
<rect x="1072" y="93" width="200" height="200" rx="15" fill="#EBA900"/>
<rect x="1294" y="93" width="200" height="200" rx="15" fill="#EBA900"/>
<rect x="1234" y="315" width="200" height="200" rx="15" fill="#EBA900"/>
<rect x="1234" y="779" width="200" height="200" rx="15" fill="#EBA900"/>
<rect x="1316" y="1163" width="200" height="200" rx="15" fill="#EBA900"/>
<rect x="1376" y="1001" width="200" height="140" rx="15" fill="#EBA900"/>
<rect x="186" y="1283" width="200" height="140" rx="15" fill="#EBA900"/>
<rect x="-36" y="1061" width="200" height="140" rx="15" fill="#EBA900"/>
<rect x="408" y="1383" width="200" height="140" rx="15" fill="#EBA900"/>
<rect x="284" y="1445" width="102" height="78" rx="15" fill="#EBA900"/>
<rect x="1316" y="1385" width="200" height="58" rx="15" fill="#EBA900"/>
<rect x="1376" y="1465" width="200" height="220" rx="15" fill="#EBA900"/>
<rect x="-118" y="655" width="200" height="384" rx="15" fill="#EBA900"/>
<path opacity="0.5" d="M1061 306V581C1061 594.807 1072.19 606 1086 606H1197.5C1211.31 606 1222.5 617.193 1222.5 631V965C1222.5 978.807 1211.31 990 1197.5 990H946C932.193 990 921 1001.19 921 1015V1348C921 1361.81 909.807 1373 896 1373H502C488.193 1373 477 1361.81 477 1348V1159" stroke="white" stroke-width="12" stroke-linejoin="round"/>
<circle cx="477" cy="1153" r="30" fill="#C38719" stroke="#FBF4EF" stroke-width="12"/>
<circle cx="1061" cy="304" r="30" fill="#C38719" stroke="#FBF4EF" stroke-width="12"/>
</g>
<defs>
<clipPath id="clip0_134_1199">
<rect width="1416" height="1510" fill="white"/>
</clipPath>
</defs>
</svg>
