<svg width="17" height="19" viewBox="0 0 17 19" fill="none" xmlns="http://www.w3.org/2000/svg">
<circle cx="10" cy="11.7046" r="6" stroke="#422B7C" stroke-width="1.5"/>
<circle cx="7" cy="7.70459" r="6" fill="#E0B8E6" stroke="#E0B8E6" stroke-width="1.5"/>
<path d="M14.7251 2.95716C14.6457 2.87713 14.5513 2.81361 14.4472 2.77026C14.3432 2.72691 14.2316 2.70459 14.1189 2.70459C14.0062 2.70459 13.8946 2.72691 13.7905 2.77026C13.6865 2.81361 13.592 2.87713 13.5126 2.95716L7.15139 9.32694L4.47882 6.64583C4.3964 6.56621 4.29911 6.50361 4.1925 6.4616C4.08589 6.41959 3.97205 6.39898 3.85748 6.40097C3.74291 6.40295 3.62985 6.42748 3.52476 6.47315C3.41967 6.51883 3.3246 6.58476 3.24499 6.66717C3.16538 6.74959 3.10278 6.84688 3.06077 6.95349C3.01875 7.0601 2.99815 7.17394 3.00013 7.28851C3.00211 7.40308 3.02664 7.51614 3.07232 7.62123C3.11799 7.72632 3.18392 7.82139 3.26634 7.901L6.54515 11.1798C6.62453 11.2598 6.71897 11.3234 6.82302 11.3667C6.92707 11.4101 7.03867 11.4324 7.15139 11.4324C7.26411 11.4324 7.37572 11.4101 7.47977 11.3667C7.58382 11.3234 7.67826 11.2598 7.75763 11.1798L14.7251 4.21233C14.8118 4.13237 14.881 4.03533 14.9283 3.92732C14.9756 3.81931 15 3.70266 15 3.58475C15 3.46683 14.9756 3.35018 14.9283 3.24217C14.881 3.13416 14.8118 3.03712 14.7251 2.95716Z" fill="#422B7C"/>
</svg>
