<svg id="Layer_1" data-name="Layer 1" xmlns="http://www.w3.org/2000/svg" xmlns:xlink="http://www.w3.org/1999/xlink" viewBox="0 0 2771.3 1510"><defs><style>.cls-1,.cls-5{fill:none;}.cls-2{clip-path:url(#clip-path);}.cls-3,.cls-6{fill:#c38719;}.cls-4{fill:#eba900;}.cls-5{stroke:#fff;stroke-linejoin:round;isolation:isolate;opacity:0.5;}.cls-5,.cls-6{stroke-width:12px;}.cls-6{stroke:#fbf4ef;}</style><clipPath id="clip-path"><rect class="cls-1" x="-460" y="40" width="1416" height="1510" transform="translate(-489.51 408.21) rotate(-45)"/></clipPath></defs><g class="cls-2"><rect class="cls-3" x="-460" y="40" width="1416" height="1510" transform="translate(-489.51 408.21) rotate(-45)"/><rect class="cls-4" x="350.23" y="752.98" width="200" height="200" rx="15" transform="translate(-471.28 568.2) rotate(-45)"/><rect class="cls-4" x="-0.49" y="234.27" width="200" height="140" rx="15" transform="translate(-186 159.48) rotate(-45)"/><rect class="cls-4" x="474.28" y="576.51" width="280" height="140" rx="15" transform="translate(-277.23 623.72) rotate(-45)"/><rect class="cls-4" x="88.2" y="733.49" width="280" height="140" rx="15" transform="translate(-501.31 396.7) rotate(-45)"/><rect class="cls-4" x="103.76" y="947.03" width="280" height="140" rx="15" transform="translate(-647.76 470.24) rotate(-45)"/><rect class="cls-4" x="272.75" y="135.98" width="140" height="280" rx="15" transform="translate(-94.76 323.2) rotate(-45)"/><rect class="cls-4" x="218.31" y="1061.58" width="280" height="140" rx="15" transform="translate(-695.2 584.8) rotate(-45)"/><rect class="cls-4" x="-96.26" y="-28.07" width="120" height="280" rx="15" transform="translate(-89.77 7.15) rotate(-45)"/><rect class="cls-4" x="-68.78" y="-164.54" width="280" height="140" rx="15" transform="translate(87.71 22.67) rotate(-45)"/><rect class="cls-4" x="621.05" y="1084.8" width="200" height="78" rx="15" transform="translate(-583.46 839.02) rotate(-45)"/><rect class="cls-4" x="386.58" y="1245.84" width="58" height="200" rx="15" transform="translate(-829.93 688.05) rotate(-45)"/><rect class="cls-4" x="-57.77" y="1230.99" width="60" height="200" rx="15" transform="translate(-949.28 370.2) rotate(-45)"/><rect class="cls-4" x="930.36" y="677.63" width="140" height="280" rx="15" transform="translate(-285.15 946.84) rotate(-45)"/><rect class="cls-4" x="802.38" y="1017.74" width="280" height="140" rx="15" transform="translate(-493.13 984.95) rotate(-45)"/><rect class="cls-4" x="301.04" y="518.22" width="140" height="200" rx="15" transform="translate(-328.48 443.44) rotate(-45)"/><rect class="cls-4" x="514.43" y="166.34" width="199" height="220" rx="15" transform="translate(-15.58 515.05) rotate(-45)"/><rect class="cls-4" x="757.53" y="562.37" width="200" height="140" rx="15" transform="translate(-195.99 791.58) rotate(-45)"/><rect class="cls-4" x="-115.04" y="747.63" width="200" height="140" rx="15" transform="translate(-582.56 228.84) rotate(-45)"/><rect class="cls-4" x="-57.06" y="918.75" width="200" height="140" rx="15" transform="translate(-686.57 319.96) rotate(-45)"/><rect class="cls-4" x="757.53" y="876.32" width="200" height="140" rx="15" transform="translate(-417.99 883.53) rotate(-45)"/><rect class="cls-4" x="621.76" y="710.56" width="200" height="200" rx="15" transform="translate(-361.75 747.77) rotate(-45)"/><rect class="cls-4" x="20.72" y="539.44" width="200" height="200" rx="15" transform="translate(-416.79 272.65) rotate(-45)"/><rect class="cls-4" x="678.33" y="1194.22" width="200" height="200" rx="15" transform="translate(-687.18 929.43) rotate(-45)"/><rect class="cls-4" x="-20.29" y="1123.51" width="200" height="200" rx="15" transform="translate(-841.8 414.72) rotate(-45)"/><rect class="cls-4" x="1113.91" y="878.75" width="200" height="220" rx="15" transform="translate(-343.6 1147.96) rotate(-45)"/><rect class="cls-4" x="136.69" y="1280.48" width="200" height="200" rx="15" transform="translate(-906.83 571.7) rotate(-45)"/><rect class="cls-4" x="-136.26" y="382.46" width="200" height="200" rx="15" transform="translate(-351.77 115.67) rotate(-45)"/><rect class="cls-4" x="507.21" y="909.96" width="200" height="200" rx="15" transform="translate(-536.3 725.17) rotate(-45)"/><rect class="cls-4" x="422.36" y="1139.06" width="200" height="200" rx="15" transform="translate(-723.15 732.28) rotate(-45)"/><rect class="cls-4" x="135.27" y="340.03" width="200" height="200" rx="15" transform="translate(-242.24 295.24) rotate(-45)"/><rect class="cls-4" x="406.8" y="382.46" width="200" height="200" rx="15" transform="translate(-192.71 499.67) rotate(-45)"/><rect class="cls-4" x="78.7" y="-30.49" width="200" height="200" rx="15" transform="translate(3.19 146.72) rotate(-45)"/><rect class="cls-4" x="235.68" y="-187.47" width="200" height="200" rx="15" transform="translate(160.17 211.74) rotate(-45)"/><rect class="cls-4" x="350.23" y="11.93" width="200" height="200" rx="15" transform="translate(52.72 351.15) rotate(-45)"/><rect class="cls-4" x="678.33" y="340.03" width="200" height="200" rx="15" transform="translate(-83.18 679.24) rotate(-45)"/><rect class="cls-4" x="1007.84" y="553.58" width="200" height="200" rx="15" transform="translate(-137.67 974.79) rotate(-45)"/><rect class="cls-4" x="914.5" y="405.39" width="200" height="140" rx="15" transform="translate(-39.01 856.6) rotate(-45)"/><rect class="cls-4" x="272.45" y="1446.25" width="200" height="140" rx="15" transform="translate(-963.06 707.46) rotate(-45)"/><rect class="cls-4" x="-41.5" y="1446.25" width="200" height="140" rx="15" transform="translate(-1055.02 485.46) rotate(-45)"/><rect class="cls-4" x="500.14" y="1359.98" width="200" height="140" rx="15" transform="translate(-835.37 843.19) rotate(-45)"/><rect class="cls-4" x="1114.61" y="731.35" width="200" height="58" rx="15" transform="translate(-181.9 1081.56) rotate(-45)"/><rect class="cls-4" x="1270.89" y="721.77" width="200" height="220" rx="15" transform="translate(-186.63 1212.98) rotate(-45)"/><path class="cls-5" d="M180.12,227.9,374.57,422.35a25,25,0,0,0,35.36,0l78.84-78.84a25,25,0,0,1,35.36,0L760.3,579.69a25,25,0,0,1,0,35.35L582.46,792.88a25,25,0,0,0,0,35.35L817.93,1063.7a25,25,0,0,1,0,35.36l-278.6,278.6a25,25,0,0,1-35.36,0L370.33,1244"/><circle class="cls-6" cx="366.09" cy="1239.77" r="30"/><circle class="cls-6" cx="178.7" cy="226.49" r="30"/></g></svg>