<svg width="125" height="28" viewBox="0 0 125 28" fill="none" xmlns="http://www.w3.org/2000/svg">
<g id="Logo">
<g id="Group">
<path id="Vector" d="M7.06361 9.32909H10.4533C11.0218 9.32909 11.4715 9.16363 11.7982 8.83696C12.1248 8.5103 12.2903 8.09031 12.2903 7.58546C12.2903 7.16546 12.146 6.85151 11.8618 6.65212C11.5776 6.45272 11.1703 6.35091 10.6442 6.35091H7.53876L7.95028 3.65697C8.05634 2.96121 7.95876 2.42242 7.66604 2.04061C7.36907 1.65879 6.88543 1.47212 6.21088 1.47212C5.59997 1.47212 5.1121 1.62484 4.75573 1.9303C4.39513 2.23575 4.16603 2.69818 4.05997 3.30909L3.58482 6.35091H2.09573C1.48482 6.35091 0.996943 6.49939 0.636337 6.79636C0.275731 7.09333 0.0975494 7.51334 0.0975494 8.06485C0.0975494 8.46788 0.241792 8.77757 0.526034 8.99818C0.810277 9.21878 1.20906 9.32909 1.71391 9.32909H3.10967L2.0321 16.0788C1.84119 17.2836 1.92179 18.34 2.26967 19.2479C2.61755 20.1558 3.23694 20.8685 4.12361 21.3861C5.01028 21.9036 6.13876 22.1624 7.51331 22.1624C7.81028 22.1624 8.13694 22.1412 8.49331 22.0988C8.85391 22.0564 9.15937 21.9927 9.41391 21.9079C9.81695 21.7806 10.1309 21.5812 10.3642 21.3055C10.5976 21.0297 10.7121 20.5333 10.7121 19.8164C10.7121 19.3964 10.6442 19.1036 10.5085 18.9467C10.3727 18.7897 10.1563 18.7091 9.85937 18.7091C9.64725 18.7091 9.43088 18.7388 9.21028 18.8024C8.98967 18.8661 8.68846 18.8958 8.30664 18.8958C7.50482 18.8958 6.88119 18.6582 6.43573 18.183C5.99028 17.7079 5.85452 16.923 6.02422 15.8242L7.06785 9.32909H7.06361Z" fill="#422B7C"/>
<path id="Vector_2" d="M26.8291 9.45637C26.4897 8.4 25.8491 7.56849 24.8988 6.95334C23.9485 6.34243 22.6376 6.03273 20.9703 6.03273C20.126 6.03273 19.2224 6.12182 18.2636 6.3C17.3006 6.47818 16.38 6.77091 15.4933 7.16969C15.0266 7.38182 14.6957 7.63637 14.4963 7.92909C14.297 8.22606 14.2079 8.52728 14.2291 8.83273C14.2503 9.13819 14.3606 9.40121 14.56 9.62606C14.7594 9.84667 15.0182 9.99091 15.3363 10.0546C15.6545 10.1182 16.0109 10.063 16.4139 9.89757C17.1097 9.57939 17.7885 9.35455 18.4418 9.21879C19.0951 9.08304 19.7739 9.01091 20.4697 9.01091C21.6533 9.01091 22.4806 9.27393 22.9557 9.80424C23.4309 10.3303 23.5836 11.0939 23.4139 12.0867L23.3248 12.6551H21.1357C19.1291 12.6551 17.483 12.8248 16.1933 13.1642C14.9036 13.5036 13.9533 14.0127 13.3424 14.7C12.7315 15.3873 12.4218 16.2782 12.4218 17.377C12.4218 18.2636 12.6594 19.0655 13.1345 19.7824C13.6097 20.4994 14.2376 21.0764 15.0182 21.5091C15.7988 21.9418 16.6642 22.1582 17.6145 22.1582C18.3315 22.1582 19.023 22.0309 19.6891 21.7764C20.3551 21.5218 20.9576 21.1273 21.4963 20.5885C21.7891 20.2958 22.0394 19.9606 22.26 19.5873L22.2091 19.9097C22.103 20.6267 22.1921 21.1739 22.4763 21.543C22.7606 21.9121 23.1891 22.0988 23.7576 22.0988C24.3685 22.0988 24.8606 21.9333 25.2297 21.6067C25.5988 21.28 25.8279 20.7879 25.9127 20.1345L27.02 13.0709C27.2321 11.7176 27.1685 10.517 26.8291 9.4606V9.45637ZM22.0776 17.7715C21.6957 18.3103 21.2333 18.7218 20.6818 19.0061C20.1303 19.2903 19.5194 19.4345 18.8448 19.4345C18.1279 19.4345 17.517 19.2352 17.0248 18.8321C16.5285 18.4333 16.2824 17.8606 16.2824 17.1224C16.2824 16.5539 16.4394 16.1085 16.7576 15.7903C17.0757 15.4721 17.6018 15.2515 18.34 15.1242C19.0782 14.997 20.0709 14.9333 21.3182 14.9333H22.9557L22.8073 15.8539C22.7012 16.5921 22.4594 17.2327 22.0776 17.7715Z" fill="#422B7C"/>
<path id="Vector_3" d="M44.7448 6.54182C44.503 6.24485 44.1169 6.09636 43.5866 6.09636C43.12 6.09636 42.7254 6.1897 42.3988 6.38061C42.0721 6.57152 41.6945 6.86849 41.2745 7.26727L35.0976 12.9394H35.0339L36.8412 2.45637C36.9472 1.71819 36.8582 1.14121 36.5739 0.729698C36.2897 0.318183 35.84 0.110308 35.2291 0.110308C34.5757 0.110308 34.0582 0.263029 33.6763 0.568484C33.2945 0.873938 33.0527 1.35757 32.9466 2.01091L30.0024 19.8121C29.8963 20.5291 29.9854 21.0891 30.2697 21.4921C30.5539 21.8909 31.0036 22.0945 31.6145 22.0945C32.9466 22.0945 33.706 21.4624 33.8969 20.1939L34.7539 14.7764H34.8176L39.5691 20.6055C39.9933 21.1145 40.3539 21.4879 40.6636 21.7297C40.9691 21.9715 41.3976 22.0945 41.9448 22.0945C42.4539 22.0945 42.8527 21.9503 43.1497 21.6661C43.4466 21.3818 43.6079 21.0212 43.6418 20.5885C43.6715 20.1558 43.5188 19.7273 43.1836 19.3073L38.9242 13.9491L44.3545 8.84969C44.7533 8.46787 44.9824 8.06484 45.0376 7.63212C45.0885 7.19939 44.9951 6.83455 44.7533 6.53758L44.7448 6.54182Z" fill="#422B7C"/>
<path id="Vector_4" d="M61.9224 11.0388C61.7527 10.0885 61.4175 9.24 60.9085 8.4891C60.4036 7.73819 59.7163 7.14425 58.8509 6.69879C57.9854 6.25758 56.9079 6.03273 55.6182 6.03273C53.9509 6.03273 52.4703 6.43576 51.1848 7.23758C49.8951 8.03939 48.8897 9.12121 48.16 10.483C47.4303 11.8448 47.0654 13.3933 47.0654 15.1242C47.0654 16.537 47.3836 17.7758 48.0157 18.8321C48.6479 19.8885 49.543 20.7073 50.6927 21.2885C51.8424 21.8697 53.2 22.1582 54.7654 22.1582C55.6097 22.1582 56.5388 22.0436 57.5527 21.8103C58.5666 21.577 59.4406 21.2206 60.183 20.7327C60.5224 20.4994 60.76 20.2321 60.8957 19.9267C61.0315 19.6212 61.0824 19.3242 61.04 19.04C60.9975 18.7558 60.8872 18.5139 60.7091 18.3103C60.5309 18.1109 60.2848 17.9921 59.9794 17.9624C59.6739 17.9327 59.3175 18.0303 58.9188 18.2636C58.3672 18.5818 57.7563 18.8067 57.0818 18.9467C56.4072 19.0824 55.7497 19.1545 55.1176 19.1545C53.5563 19.1545 52.3939 18.7006 51.6345 17.7927C51.0279 17.0673 50.7479 16.1339 50.7903 15.0055H60.8872C61.2266 15.0055 61.4897 14.9418 61.6806 14.8146C61.8715 14.6873 61.986 14.403 62.0285 13.9576C62.1345 12.9648 62.1006 11.9933 61.9351 11.043L61.9224 11.0388ZM51.7533 10.9921C52.1139 10.3261 52.6103 9.78303 53.2424 9.35879C53.8745 8.93454 54.6551 8.72667 55.5885 8.72667C56.5218 8.72667 57.2091 8.92606 57.7266 9.32909C58.2442 9.73212 58.5963 10.2624 58.7872 10.9285C58.94 11.4673 58.9866 12.0655 58.9315 12.7188H51.1085C51.2485 12.1121 51.4563 11.5352 51.7533 10.9921Z" fill="#422B7C"/>
<path id="Vector_5" d="M81.9382 15.68C82.1715 15.0988 82.4091 14.3945 82.6297 13.5927C82.7654 13.1345 82.7103 12.7739 82.4685 12.5194C82.2394 12.2776 81.8957 12.1588 81.4503 12.1588C81.0727 12.1588 80.763 12.2521 80.5339 12.4388C80.3091 12.6212 80.1394 12.9055 80.0248 13.2745C79.8424 13.877 79.6812 14.3733 79.5285 14.7976C79.3757 15.2176 79.206 15.6036 79.0194 15.9473C78.9176 16.1339 78.803 16.3291 78.6715 16.5327L76.4188 13.6606C76.9236 13.3636 77.4072 13.0455 77.8569 12.7145C78.4848 12.2521 78.9982 11.7218 79.38 11.1448C79.7745 10.5509 79.9739 9.86788 79.9739 9.11273C79.9739 8.1497 79.6218 7.35636 78.9303 6.75818C78.243 6.16424 77.3394 5.86303 76.2363 5.86303C75.286 5.86303 74.4291 6.0497 73.6909 6.42304C72.9485 6.79637 72.3588 7.32242 71.9303 7.98848C71.5018 8.65454 71.2812 9.42666 71.2812 10.2836C71.2812 10.8054 71.3873 11.3442 71.6036 11.8873C71.7648 12.2945 72.0024 12.7103 72.3121 13.1261C71.7691 13.423 71.2557 13.7539 70.7848 14.1061C70.2969 14.4752 69.8642 14.8824 69.4951 15.3194C69.1218 15.7606 68.8291 16.2442 68.6254 16.7618C68.4176 17.2836 68.3157 17.8479 68.3157 18.4418C68.3157 19.197 68.5236 19.8758 68.9351 20.457C69.3424 21.0339 69.9363 21.4879 70.6915 21.8018C71.4424 22.1115 72.3376 22.2685 73.36 22.2685C74.3824 22.2685 75.4345 22.0649 76.3509 21.6661C77.0848 21.3479 77.7679 20.9236 78.3872 20.4103L79.4351 21.7382C79.6048 21.9588 79.8127 22.103 80.0588 22.1667C80.7291 22.3364 81.34 22.2473 81.7133 21.9333C81.9721 21.7212 82.1121 21.4412 82.1375 21.1061C82.163 20.7752 82.0357 20.44 81.7557 20.1091L80.3515 18.4206C80.6315 18.0388 80.886 17.6739 81.1024 17.3261C81.4163 16.8255 81.6963 16.2739 81.9382 15.68ZM77.0169 10.2539C76.8176 10.5806 76.5036 10.8903 76.0879 11.1788C75.7697 11.3994 75.3836 11.6242 74.9382 11.8533C74.8024 11.6667 74.6879 11.5012 74.5988 11.3527C74.4503 11.1152 74.3442 10.8945 74.2848 10.6951C74.2254 10.5 74.1915 10.2879 74.1915 10.0673C74.1915 9.48606 74.3569 9.03637 74.6963 8.68849C75.0315 8.3491 75.4982 8.17515 76.0836 8.17515C76.4866 8.17515 76.7963 8.26424 77.0085 8.43394C77.2121 8.60364 77.3139 8.85394 77.3139 9.20182C77.3139 9.57939 77.2163 9.93576 77.0169 10.2539ZM71.7691 16.7279C72.0109 16.3545 72.3291 16.0194 72.7151 15.7309C73.0842 15.4551 73.4703 15.2006 73.8733 14.9673L76.8133 18.6285C76.4612 18.9255 76.0879 19.1673 75.706 19.3455C75.1418 19.6085 74.4927 19.74 73.78 19.74C72.9951 19.74 72.3927 19.5873 71.9982 19.2861C71.6121 18.9933 71.4212 18.5861 71.4212 18.0473C71.4212 17.5339 71.54 17.0927 71.7691 16.7279Z" fill="#422B7C"/>
<path id="Vector_6" d="M105.42 6.69879C105.157 6.3 104.716 6.09636 104.105 6.09636C103.494 6.09636 102.964 6.2491 102.586 6.55455C102.204 6.86 101.962 7.34364 101.856 7.99697L101.708 8.98122C101.33 8.08607 100.762 7.37758 99.9727 6.88546C99.0563 6.31697 97.983 6.02848 96.757 6.02848C95.5309 6.02848 94.466 6.2703 93.4945 6.75818C92.523 7.24606 91.6915 7.90364 91.0085 8.7394C90.3212 9.57515 89.7951 10.5382 89.426 11.637C89.057 12.7358 88.8703 13.8855 88.8703 15.0903C88.8703 16.4012 89.1291 17.5339 89.6467 18.497C90.1642 19.46 90.8854 20.1897 91.8188 20.6988C92.7479 21.2079 93.8339 21.4582 95.0812 21.4582C96.3285 21.4582 97.3721 21.1824 98.3436 20.6352C99.1073 20.2024 99.7182 19.617 100.198 18.8873L99.803 21.2376C99.5909 22.5061 99.0945 23.4224 98.3139 23.9951C97.5333 24.5636 96.5067 24.8521 95.2424 24.8521C94.4194 24.8521 93.6218 24.7418 92.8497 24.5212C92.0776 24.3006 91.3563 24.0079 90.6776 23.6515C90.2957 23.4394 89.9479 23.363 89.6339 23.4139C89.3157 23.4648 89.0527 23.6049 88.8406 23.8255C88.6285 24.0461 88.4927 24.3048 88.4291 24.6018C88.3654 24.8988 88.3994 25.2 88.5224 25.5055C88.6497 25.8109 88.8915 26.0697 89.2521 26.2818C90.0963 26.7697 91.0848 27.1515 92.2133 27.44C93.3418 27.7242 94.5424 27.8685 95.8109 27.8685C98.0933 27.8685 99.8879 27.283 101.195 26.1121C102.505 24.9412 103.328 23.2442 103.664 21.0297L105.658 8.42121C105.764 7.68303 105.683 7.11031 105.42 6.71152V6.69879ZM100.397 15.4891C100.036 16.3885 99.5145 17.1055 98.8273 17.6442C98.14 18.183 97.3 18.4503 96.3073 18.4503C95.2085 18.4503 94.36 18.1321 93.7576 17.5C93.1551 16.8679 92.8539 15.9897 92.8539 14.8697C92.8539 13.8345 93.0321 12.8758 93.3927 11.9891C93.7533 11.1024 94.2751 10.3897 94.9624 9.85091C95.6497 9.31212 96.477 9.04485 97.4485 9.04485C98.5685 9.04485 99.4297 9.36303 100.032 9.99515C100.635 10.6273 100.936 11.497 100.936 12.5915C100.936 13.6267 100.758 14.5939 100.397 15.4891Z" fill="#422B7C"/>
<path id="Vector_7" d="M115.288 22.1582C113.769 22.1582 112.462 21.8739 111.376 21.3012C110.29 20.7327 109.455 19.9182 108.873 18.8618C108.292 17.8055 108.004 16.5709 108.004 15.1539C108.004 13.737 108.224 12.5024 108.67 11.3824C109.115 10.2624 109.73 9.30364 110.524 8.50182C111.317 7.7 112.229 7.08485 113.264 6.66485C114.299 6.2406 115.419 6.03273 116.624 6.03273C118.143 6.03273 119.45 6.31697 120.536 6.88969C121.622 7.45818 122.458 8.26849 123.039 9.31213C123.62 10.36 123.908 11.5988 123.908 13.0327C123.908 14.4667 123.688 15.6842 123.242 16.8042C122.797 17.9242 122.182 18.883 121.388 19.6891C120.595 20.4909 119.683 21.1018 118.648 21.5261C117.613 21.9461 116.493 22.1582 115.288 22.1582ZM115.381 19.1503C116.353 19.1503 117.171 18.8746 117.838 18.3273C118.504 17.78 119.013 17.0291 119.373 16.0788C119.734 15.1285 119.912 14.0721 119.912 12.9097C119.912 11.6624 119.611 10.7079 119.008 10.0418C118.406 9.37576 117.579 9.04485 116.522 9.04485C115.572 9.04485 114.758 9.32061 114.083 9.86788C113.408 10.4194 112.891 11.1618 112.53 12.0994C112.17 13.0412 111.991 14.1018 111.991 15.2812C111.991 16.5285 112.293 17.483 112.895 18.1491C113.498 18.8152 114.325 19.1461 115.381 19.1461V19.1503Z" fill="#422B7C"/>
</g>
</g>
</svg>
