<svg width="436" height="480" viewBox="0 0 436 480" fill="none" xmlns="http://www.w3.org/2000/svg">
<g clip-path="url(#clip0_81_512)">
<path d="M84.5467 213.208L31.529 86.9092C29.5041 82.0752 31.8099 76.5234 36.6874 74.5166L192.001 10.4736C196.879 8.46679 202.48 10.7519 204.505 15.5859L257.523 141.885C259.548 146.719 257.242 152.271 252.365 154.277L97.0511 218.32C92.1735 220.327 86.5717 218.042 84.5467 213.208Z" fill="#6A3FB9"/>
<path d="M257.893 148.11L200.308 10.9424C197.839 9.59471 194.795 9.31639 192.001 10.4736L153.247 26.4551L212.383 167.329C213.063 168.94 214.926 169.702 216.566 169.043L252.365 154.277C255.173 153.12 257.124 150.791 257.893 148.11Z" fill="#342E73"/>
<path d="M214.807 166.128L155.671 24.3164C154.991 22.7051 155.759 20.8447 157.4 20.1709L197.174 3.77929C198.8 3.10546 200.677 3.86718 201.357 5.49316L260.908 147.349C261.588 148.96 260.819 150.82 259.178 151.494L219.404 167.886C217.778 168.56 215.487 167.769 214.807 166.143V166.128Z" fill="#6A3FB9"/>
<path d="M260.893 147.334L256.548 136.992C256.592 138.267 255.853 139.497 254.582 140.024L214.807 156.416C213.182 157.09 211.304 156.328 210.625 154.702L155.434 23.2031C155.434 23.5693 155.523 23.9502 155.671 24.3164L215.221 166.172C215.901 167.783 217.764 168.545 219.404 167.871L259.179 151.48C260.804 150.806 261.573 148.96 260.908 147.334H260.893Z" fill="#342E73"/>
<path opacity="0.4" d="M257.523 141.885L241.545 109.834C240.57 111.064 243.984 121.611 235.811 126.577L201.165 139.849L152.685 24.5801L138.51 31.0254L191.779 161.968L95.3661 201.724C90.4885 203.73 84.8867 201.445 82.8618 196.611L32.8297 77.417C30.7605 80.0244 30.1397 83.6279 31.5143 86.9092L84.532 213.208C86.5569 218.042 92.1587 220.327 97.0363 218.32L252.35 154.277C257.227 152.271 259.533 146.719 257.508 141.885H257.523Z" fill="#422B7C"/>
<path d="M90.592 221.543H90.5181C85.4484 221.514 80.896 218.496 78.9449 213.853L25.9272 87.5537C25.7351 87.0996 25.5725 86.6162 25.4247 86.0889C25.3951 85.9717 25.3656 85.8545 25.336 85.752C25.2178 85.2832 25.1439 84.9023 25.0995 84.5215L25.0404 84.1553C24.9813 83.5986 24.9517 83.1152 24.9517 82.6318C24.9517 82.5732 24.9517 82.4707 24.9517 82.4121C24.9517 82.0605 24.9961 81.6211 25.0552 81.1523C25.07 81.0205 25.0995 80.8887 25.1143 80.7422C25.1734 80.3613 25.2621 79.9658 25.3656 79.5703L25.4247 79.3213C25.5725 78.8086 25.7499 78.3398 25.942 77.8857C25.9568 77.8418 26.0159 77.7246 26.0307 77.6807C26.1933 77.3145 26.3854 76.9336 26.6071 76.5527L26.7845 76.2451C27.0062 75.8936 27.2279 75.5566 27.4792 75.2344C27.5235 75.1758 27.5679 75.1025 27.6122 75.0439C27.6418 75 27.6861 74.9561 27.7157 74.9121C29.0311 73.2861 30.7457 72.0117 32.6819 71.2207L149.625 23.0273C149.625 22.9541 149.625 22.8809 149.611 22.8076C149.611 22.7051 149.611 22.6025 149.611 22.5C149.655 20.0537 151.148 17.8271 153.439 16.8896L193.213 0.483398C194.75 -0.146484 196.45 -0.146484 197.987 0.483398C199.524 1.11328 200.722 2.2998 201.372 3.82324L260.923 145.679C262.238 148.828 260.73 152.446 257.567 153.765L95.44 220.605C93.888 221.25 92.2622 221.572 90.6068 221.572L90.592 221.543ZM31.0413 82.749C31.0413 82.9688 31.0413 83.2031 31.0856 83.4668L31.1152 83.6865C31.1448 83.8623 31.1743 84.0674 31.2334 84.2578L31.2926 84.4922C31.3665 84.7852 31.4551 85.0342 31.5438 85.2539L84.5615 211.553C85.5666 213.955 87.9167 215.522 90.5476 215.537C91.4049 215.537 92.277 215.376 93.0899 215.039L255.217 148.198C255.291 148.169 255.336 148.081 255.306 147.993L195.741 6.12305C195.711 6.0498 195.622 6.00586 195.534 6.03516L155.759 22.4268C155.759 22.4268 155.685 22.5146 155.671 22.5439C155.671 22.5732 155.671 22.5879 155.671 22.6025V22.6318L156.07 23.5986C156.38 24.3311 156.38 25.166 156.07 25.8984C155.759 26.6309 155.168 27.2314 154.429 27.5391L35.0616 76.7871C34.0417 77.2119 33.1697 77.8711 32.475 78.7354C32.475 78.75 32.4454 78.7793 32.4307 78.7939C32.2681 78.999 32.1351 79.1895 32.0168 79.3799L31.9133 79.541C31.8099 79.7314 31.6916 79.9365 31.603 80.1416C31.603 80.1709 31.5438 80.2588 31.5291 80.2881C31.4551 80.4639 31.3665 80.7129 31.2926 80.9619C31.2926 80.9912 31.263 81.0791 31.263 81.1084C31.2039 81.2988 31.1743 81.5039 31.13 81.709L31.1004 81.9141C31.0709 82.1484 31.0413 82.3828 31.0413 82.6172C31.0413 82.6465 31.0413 82.7051 31.0413 82.749Z" fill="#422B7C"/>
<path opacity="0.4" d="M211.881 167.915C210.684 167.915 209.546 167.212 209.073 166.055L150.409 25.0928C149.773 23.5547 150.512 21.7969 152.064 21.1523C153.616 20.5225 155.39 21.2549 156.04 22.793L214.704 163.755C215.34 165.293 214.601 167.051 213.049 167.695C212.664 167.856 212.28 167.93 211.896 167.93L211.881 167.915Z" fill="#422B7C"/>
<path d="M212.472 170.171C211.275 170.171 210.137 169.468 209.664 168.296L149.98 24.1846C149.345 22.6465 150.084 20.8887 151.635 20.2588C153.187 19.6289 154.961 20.3613 155.597 21.8994L215.28 166.011C215.916 167.549 215.177 169.307 213.625 169.937C213.241 170.083 212.856 170.156 212.472 170.156V170.171Z" fill="#422B7C"/>
<path d="M34.1156 310.518C34.1156 310.518 34.1156 322.456 36.377 328.184C38.6385 333.911 55.9612 367.251 55.9612 367.251C55.9612 367.251 25.3212 368.745 18.803 367.002C12.27 365.259 2.7366 360.029 4.49548 351.079C6.25436 342.114 12.5361 339.873 12.5361 339.873C12.5361 339.873 9.01831 332.9 10.7772 325.444C12.5361 317.974 23.0746 311.514 23.0746 311.514L34.1304 310.518H34.1156Z" fill="white"/>
<path d="M245.773 200.933C244.827 199.995 235.825 183.955 232.012 168.325C228.199 152.695 229.78 142.017 237.392 139.189C245.004 136.362 262.105 139.497 267.796 142.646C273.486 145.796 282.044 151.436 282.044 151.436L283.951 150.176C283.951 150.176 291.356 127.515 293.395 133.989C308.974 183.311 305.811 131.514 311.96 132.7C320.799 134.414 331.47 155.83 331.47 155.83L341.92 178.125L346.664 184.717L363.765 199.468L380.867 221.133C380.867 221.133 391.952 238.711 397.657 242.798C403.362 246.885 417.3 255.981 417.3 255.981L430.913 268.535L428.696 284.546C428.696 284.546 410.634 300.249 403.983 302.754C397.332 305.259 391.316 307.778 391.316 307.778C391.316 307.778 378.649 317.827 377.703 318.135C376.758 318.442 351.394 329.224 349.813 329.546C348.231 329.868 325.986 342.144 325.986 342.144L322.956 343.945L288.695 372.437C288.695 372.437 276.664 367.734 257.331 372.744C238.013 377.769 194.928 388.125 157.562 378.398C120.197 368.672 93.9028 359.561 86.9264 360.498C79.9648 361.436 57.4689 366.782 57.4689 366.782C57.4689 366.782 47.6546 363.325 41.3138 351.709C34.9729 340.093 36.0519 332.417 36.0519 332.417C36.0519 332.417 32.7558 326.587 32.4454 320.317C32.1351 314.048 34.027 310.269 34.027 310.269L48.6005 309.961L55.2518 298.037L62.2134 279.199C62.2134 279.199 53.6555 273.545 50.4925 263.188C47.3294 252.832 42.2597 241.216 46.3687 228.032C50.4925 214.849 57.3211 208.33 60.085 208.286C62.849 208.242 65.066 212.959 65.066 212.959C65.066 212.959 67.5935 229.277 70.7713 235.254C70.7713 235.254 75.2055 240.586 78.3685 243.735C81.5315 246.885 85.0197 245.933 85.0197 245.933C85.0197 245.933 95.7947 232.119 114.167 228.662C132.539 225.205 194.307 231.489 203.811 232.427C213.315 233.364 233.904 227.725 233.904 227.725C233.904 227.725 239.284 209.517 240.865 207.012C242.447 204.507 245.773 200.933 245.773 200.933Z" fill="#EBA900"/>
<path d="M321.478 178.843C321.478 178.843 338.506 183.428 352.68 194.531C364.785 204.009 371.791 213.618 371.791 213.618C371.791 213.618 363.071 192.349 354.912 187.28C337.294 176.323 321.464 178.843 321.464 178.843H321.478Z" fill="white"/>
<path d="M62.0508 209.268C62.0508 209.268 57.9123 216.196 62.7603 230.859C67.224 244.321 77.9103 246.108 77.9103 246.108L69.2046 226.831L62.0508 209.268Z" fill="white"/>
<path d="M73.5057 296.382C73.5057 296.382 63.9279 301.26 51.6601 318.179C41.9641 331.538 37.4265 335.127 37.4265 335.127C37.4265 335.127 49.916 304.16 59.3607 298.462C68.8055 292.764 73.4909 296.382 73.4909 296.382H73.5057Z" fill="white"/>
<path d="M291.947 316.289C291.947 316.289 286.803 300.718 293.957 281.074C301.436 260.537 320.917 251.353 333.524 253.608C346.117 255.85 365.377 264.521 374.851 259.351C387.355 252.524 379.492 223.271 379.492 223.271C379.492 223.271 394.258 245.859 408.122 251.104C421.986 256.348 428.785 260.845 428.785 260.845C428.785 260.845 431.815 269.341 432.066 275.083C432.317 280.825 417.197 296.558 417.197 296.558L396.534 306.548L385.951 310.298C385.951 310.298 368.318 323.789 363.026 325.034C357.735 326.279 346.65 327.026 346.65 327.026C346.65 327.026 366.81 334.761 369.574 336.768C372.338 338.774 375.368 345.015 375.368 345.015L373.861 352.251L358.489 358.491L355.976 369.229L350.433 372.231L320.444 374.985L277.61 368.496C277.61 368.496 277.58 359.092 286.389 345.908C295.79 331.831 301.259 329.224 301.259 329.224L310.216 324.668L291.976 316.289H291.947Z" fill="white"/>
<path d="M355.045 291.562L353.449 290.757L355.045 291.562Z" fill="#422B7C"/>
<path d="M365.096 290.581C361.519 290.054 358.016 290.2 354.808 290.947C352.517 292.207 350.02 293.32 347.374 294.097H347.359C334.278 297.935 320.621 288.662 316.231 299.473C316.039 299.941 315.877 300.41 315.729 300.879C313.556 308.042 317.769 313.169 325.883 315.952C329.046 317.051 332.8 317.783 337.013 318.135C338.742 318.281 340.471 318.237 342.201 318.047C356.02 316.553 368.806 305.61 368.865 304.922C368.865 304.834 368.865 304.761 368.894 304.673C369.027 302.856 369.515 301.216 370.151 299.78C368.007 297.026 366.086 293.818 365.125 290.61L365.096 290.581Z" fill="#A52DB4"/>
<g opacity="0.2">
<path d="M365.096 290.581C361.519 290.054 358.016 290.2 354.794 290.947C352.503 292.207 350.005 293.32 347.359 294.097H347.344C334.264 297.935 320.606 288.662 316.217 299.473C313.009 307.368 317.236 312.979 325.868 315.952C317.887 307.764 324.168 301.362 334.456 302.695C340.22 303.442 349.118 302.402 354.01 299.429C357.898 297.056 362.982 294.478 365.983 292.998C365.628 292.207 365.332 291.401 365.096 290.596V290.581Z" fill="#422B7C"/>
</g>
<path d="M367.904 296.572L367.756 296.821C366.677 298.799 365.953 300.864 365.613 302.974L365.524 303.486L365.125 303.823C361.016 307.31 351.631 313.433 342.215 314.604C342.082 314.619 341.949 314.634 341.816 314.648C340.53 314.78 339.274 314.824 338.062 314.766C337.796 314.766 337.545 314.736 337.294 314.707C328.277 313.945 321.789 311.396 319.498 307.72C319.054 307.017 317.724 304.863 319.409 300.732C320.976 296.88 324.213 297.07 331.381 297.876C336.259 298.418 342.334 299.106 348.32 297.349L348.438 297.319C350.892 296.587 353.375 295.562 355.843 294.258L356.168 294.141C359.523 293.467 363.1 293.54 366.618 294.331C365.406 291.958 364.593 289.497 364.46 287.095C360.868 286.699 357.306 286.875 354.01 287.637C353.7 287.71 353.404 287.827 353.123 287.974C350.862 289.219 348.586 290.186 346.384 290.83L346.265 290.859C341.639 292.192 336.821 291.65 332.165 291.123C330.48 290.933 328.765 290.742 327.065 290.654C325.632 290.581 324.154 290.581 322.705 290.757C318.818 291.24 315.138 293.013 313.039 298.184C310.585 304.233 312.019 308.643 313.645 311.279C317.192 316.978 325.159 320.508 336.702 321.489C338.579 321.65 340.56 321.621 342.555 321.401C350.493 320.552 357.765 316.934 362.48 314.048C368.569 310.327 371.85 307.441 372.22 305.464L372.264 305.01C372.264 304.907 372.264 304.834 372.279 304.761C372.338 304.087 372.471 303.413 372.663 302.739C370.993 300.967 369.293 298.843 367.874 296.558L367.904 296.572Z" fill="#422B7C"/>
<path d="M366.515 294.097C366.042 294.478 365.569 294.858 365.081 295.225C362.879 296.88 360.617 298.491 358.252 299.912C355.887 301.333 353.463 302.71 350.892 303.765C348.32 304.819 345.645 305.684 342.777 305.991C345.6 306.475 348.571 306.416 351.498 306.094C354.439 305.786 357.321 305.098 360.174 304.336C363.041 303.56 365.835 302.593 368.613 301.538C369.367 301.26 370.106 300.952 370.845 300.659C369.219 298.682 367.667 296.426 366.5 294.082L366.515 294.097Z" fill="#422B7C"/>
<path d="M13.6742 342.217C12.6839 342.217 11.7231 341.748 11.1319 340.869C7.79153 335.845 4.14074 323.965 14.2506 315.029C27.3018 303.486 49.2213 305.786 50.1377 305.889C51.8079 306.079 53.0051 307.573 52.813 309.229C52.6208 310.884 51.1132 312.07 49.443 311.88C49.2509 311.865 29.2824 309.785 18.2857 319.526C9.60954 327.202 15.9356 337.148 16.2016 337.559C17.1033 338.95 16.719 340.825 15.3148 341.719C14.7975 342.056 14.2211 342.217 13.6446 342.217H13.6742Z" fill="#422B7C"/>
<path d="M194.366 384.316C164.081 384.316 131.401 374.941 111.595 369.258C105.476 367.5 100.643 366.123 97.4058 365.435C83.5417 362.49 74.836 365.435 69.0863 367.397C55.9317 371.865 21.3896 371.03 12.27 367.91C6.54997 365.962 2.10104 361.304 0.918598 356.06C-0.234282 350.933 1.70197 345.63 6.35783 341.147C14.9601 332.871 29.3563 330.278 34.1748 329.619C36.7761 325.151 45.3045 310.679 51.3793 302.959C59.0504 293.218 70.8896 291.196 71.3921 291.123C73.0475 290.859 74.6142 291.973 74.8803 293.613C75.1463 295.254 74.0378 296.807 72.3824 297.07C72.205 297.1 62.3316 298.872 56.1682 306.68C49.3543 315.322 38.8011 333.735 38.6828 333.926C38.1951 334.79 37.3082 335.347 36.3179 335.435C36.1553 335.449 19.2464 337.134 10.5703 345.469C7.43681 348.486 6.13612 351.694 6.8308 354.741C7.55505 357.993 10.4668 360.923 14.2358 362.197C21.4635 364.673 54.6901 365.903 67.091 361.685C73.0919 359.648 83.1426 356.221 98.6621 359.517C102.106 360.249 107.028 361.655 113.265 363.442C133.441 369.229 167.229 378.911 197.47 378.237C222.966 377.651 242.861 372.803 256.03 369.595C262.386 368.042 266.968 366.929 270.16 366.768C277.048 366.431 287.261 367.822 298.066 369.287C309.078 370.781 320.473 372.334 329.283 372.217C345.201 372.012 350.773 369.009 352.65 366.533C353.36 365.596 354.188 363.999 353.286 360.791C350.507 350.933 331.987 347.534 325.07 347.065C323.4 346.948 322.129 345.513 322.247 343.857C322.365 342.202 323.829 340.942 325.484 341.06C326.666 341.147 354.646 343.242 359.139 359.18C360.336 363.457 359.804 367.148 357.513 370.166C353.478 375.498 344.536 378.076 329.356 378.267C320.074 378.384 308.472 376.802 297.238 375.278C286.715 373.857 276.782 372.51 270.456 372.803C267.84 372.935 263.273 374.048 257.479 375.454C244.058 378.721 223.779 383.672 197.618 384.272C196.539 384.302 195.445 384.316 194.351 384.316H194.366Z" fill="#422B7C"/>
<path d="M59.3607 280.664C58.5922 280.664 57.8236 280.371 57.2324 279.8C56.7003 279.287 44.2846 266.997 42.2745 244.761C40.826 228.838 46.2209 216.489 51.7488 210.22C53.6703 208.037 56.6559 205.415 59.952 205.269C66.8545 204.946 68.6577 212.607 70.9043 222.275C71.4512 224.663 72.0277 227.139 72.7223 229.79C75.5011 240.381 81.7828 241.45 82.0488 241.494C83.719 241.685 84.8867 243.179 84.6946 244.834C84.5024 246.489 82.9652 247.676 81.295 247.485C80.8664 247.441 70.6974 246.123 66.8249 231.313C66.1154 228.574 65.4947 225.952 64.9626 223.638C63.5436 217.529 62.0804 211.245 60.2032 211.304C59.819 211.318 58.3557 211.875 56.316 214.204C51.8375 219.287 47.0486 230.2 48.3197 244.233C50.1229 264.155 61.3709 275.405 61.4891 275.508C62.6864 276.68 62.7011 278.584 61.5187 279.77C60.9275 280.371 60.1441 280.664 59.346 280.664H59.3607Z" fill="#422B7C"/>
<path d="M280.995 327.202C285 326.733 289.109 326.689 293.174 327.144C297.253 327.554 301.303 328.477 305.235 329.751C309.196 330.981 312.994 332.871 316.586 334.863C320.192 336.899 323.622 339.053 327.065 341.47C328.44 342.437 328.765 344.326 327.79 345.688C326.814 347.051 324.907 347.373 323.548 346.406C323.459 346.348 323.37 346.274 323.282 346.201L323.237 346.157C320.37 343.594 317.236 341.074 314.073 338.774C310.866 336.46 307.614 334.409 304.052 332.725C300.505 331.04 296.78 329.648 292.908 328.726C289.035 327.773 285.044 327.29 280.995 327.217V327.202Z" fill="#422B7C"/>
<path d="M356.154 359.941C354.616 359.941 353.286 358.784 353.138 357.231C352.976 355.576 354.188 354.097 355.858 353.936C360.159 353.496 369.382 351.196 370.446 346.86C372.146 339.888 364.416 337.31 364.342 337.295C360.928 336.255 348.867 331.377 348.349 331.172C346.797 330.542 346.044 328.784 346.679 327.246C347.315 325.708 349.088 324.961 350.64 325.591C354.897 327.305 363.588 330.762 366.116 331.538C371.274 333.105 378.605 339.053 376.344 348.281C373.994 357.92 358.238 359.751 356.449 359.941C356.346 359.941 356.242 359.956 356.139 359.956L356.154 359.941Z" fill="#422B7C"/>
<path d="M432.184 268.799C430.411 261.753 425.208 258.384 419.606 254.473C413.191 255.747 407.265 258.34 405.121 262.148C399.978 271.289 422.725 283.198 428.016 282.231C429.524 281.953 431.431 280.298 433.323 277.925C433.352 274.849 432.923 271.743 432.184 268.799Z" fill="#422B7C"/>
<path d="M253.074 213.926C252.128 213.926 251.197 213.486 250.606 212.666C249.941 211.743 234.199 189.902 229.056 169.043C225.937 156.387 227.001 146.587 232.13 140.698C234.865 137.564 240.156 134.033 249.808 134.941C266.199 136.48 279.664 143.188 299.485 159.683C318.581 175.562 327.464 191.777 327.834 192.451C328.632 193.916 328.07 195.747 326.592 196.538C325.114 197.329 323.267 196.772 322.469 195.308C322.38 195.147 313.719 179.399 295.568 164.297C276.797 148.682 264.233 142.354 249.216 140.947C243.526 140.42 239.314 141.665 236.712 144.653C232.973 148.931 232.352 157.09 234.938 167.622C239.801 187.368 255.35 208.945 255.513 209.15C256.488 210.498 256.178 212.388 254.818 213.355C254.286 213.735 253.665 213.926 253.045 213.926H253.074Z" fill="#422B7C"/>
<path d="M343.383 183.867C342.23 183.867 341.122 183.208 340.619 182.109C340.501 181.86 328.736 156.46 320.606 145.825C313.32 136.289 301.362 133.389 292.819 139.087C285.414 144.023 287.04 149.473 287.247 150.088C287.779 151.641 286.966 153.369 285.399 153.926C283.832 154.482 282.118 153.706 281.541 152.168C280.196 148.623 280.123 140.303 289.434 134.092C300.697 126.577 316.202 130.063 325.469 142.192C333.998 153.355 345.659 178.535 346.162 179.605C346.857 181.113 346.191 182.9 344.669 183.604C344.255 183.794 343.827 183.882 343.413 183.882L343.383 183.867Z" fill="#422B7C"/>
<path d="M389.528 311.426C388.02 311.426 386.72 310.327 386.513 308.804C386.291 307.148 387.459 305.64 389.129 305.42C407.959 302.93 426.124 285.718 428.711 275.757C431.711 264.214 423.021 259.57 417.581 257.842C407.072 254.487 396.667 247.632 387.488 238.008C384 234.346 380.733 228.779 376.964 222.334C370.993 212.124 363.559 199.424 352.784 191.06C336.067 178.081 313.733 178.828 313.512 178.843C311.856 178.901 310.423 177.627 310.349 175.957C310.275 174.302 311.575 172.896 313.26 172.822C314.266 172.778 338.018 171.943 356.538 186.313C368.229 195.396 375.989 208.652 382.226 219.302C385.803 225.425 388.907 230.713 391.908 233.862C400.259 242.622 410.043 249.097 419.444 252.1C431.992 256.099 437.653 265.503 434.594 277.266C431.564 288.897 412.216 308.452 389.927 311.397C389.794 311.411 389.661 311.426 389.528 311.426Z" fill="#422B7C"/>
<path d="M266.835 201.138C266.835 201.138 252.365 178.608 249.616 168.97C245.861 155.845 252.705 149.722 269.481 158.906C285.532 167.695 301.052 187.793 301.052 187.793C301.052 187.793 277.344 188.276 266.835 201.138Z" fill="#F9476C"/>
<path d="M266.835 204.155C266.835 204.155 266.717 204.155 266.657 204.155C265.682 204.097 264.795 203.584 264.263 202.764C263.657 201.826 249.527 179.736 246.689 169.805C243.836 159.814 247.132 155.391 249.364 153.633C252.498 151.157 258.794 149.619 270.959 156.27C287.38 165.264 302.825 185.112 303.476 185.962C304.17 186.87 304.303 188.071 303.801 189.097C303.298 190.122 302.264 190.781 301.126 190.811C300.904 190.811 278.689 191.426 269.215 203.042C268.638 203.745 267.766 204.155 266.85 204.155H266.835ZM256.237 157.544C254.449 157.544 253.532 158.057 253.148 158.364C251.404 159.727 251.182 163.403 252.557 168.164C254.552 175.137 263.302 189.712 267.352 196.245C275.57 188.818 287.808 186.196 295.051 185.273C289.626 178.989 278.866 167.476 268.032 161.543C262.223 158.364 258.528 157.529 256.252 157.529L256.237 157.544Z" fill="#422B7C"/>
<path d="M340.811 235.518C342.895 235.693 345.009 235.972 347.019 236.367C349.029 236.792 350.98 237.349 352.828 238.052C353.759 238.374 354.631 238.813 355.533 239.209C356.375 239.692 357.262 240.103 358.045 240.659C359.701 241.655 361.135 242.959 362.539 244.292L365.199 239.78C364.549 239.663 364.12 239.604 363.618 239.575C363.13 239.531 362.642 239.517 362.154 239.502C361.194 239.487 360.233 239.546 359.287 239.648C357.395 239.868 355.533 240.337 353.774 241.011C352.03 241.728 350.345 242.578 348.881 243.75C347.374 244.834 346.132 246.211 345.039 247.617C344.713 248.027 344.802 248.628 345.216 248.936C345.526 249.17 345.94 249.185 346.251 249.009L346.354 248.95C347.093 248.54 347.758 248.071 348.482 247.69C349.207 247.324 349.901 246.929 350.64 246.636C352.089 246.006 353.582 245.522 355.089 245.229C356.582 244.878 358.119 244.731 359.642 244.731C360.395 244.731 361.164 244.761 361.903 244.819C362.273 244.863 362.642 244.893 362.997 244.951C363.337 244.995 363.751 245.083 363.943 245.127H364.002C365.48 245.464 366.958 244.541 367.283 243.076C367.49 242.168 367.195 241.245 366.603 240.615C364.948 238.872 363.159 237.173 361.046 235.942C360.041 235.254 358.903 234.785 357.824 234.258C356.686 233.848 355.562 233.379 354.38 233.13C352.059 232.544 349.665 232.266 347.33 232.368C344.979 232.456 342.688 232.822 340.457 233.686C339.969 233.877 339.718 234.419 339.91 234.917C340.043 235.269 340.368 235.488 340.723 235.518H340.826H340.811Z" fill="#422B7C"/>
<path d="M388.272 311.455C388.139 311.455 388.005 311.455 387.872 311.426C387.222 311.338 371.969 309.229 361.445 293.057C354.232 281.968 353.168 274.146 352.532 269.473C352.444 268.813 352.355 268.213 352.266 267.686C351.985 266.045 353.094 264.492 354.749 264.199C356.405 263.921 357.971 265.02 358.267 266.66C358.371 267.261 358.459 267.92 358.563 268.667C359.169 273.12 360.085 279.844 366.559 289.79C375.486 303.516 388.139 305.376 388.671 305.449C390.326 305.669 391.494 307.192 391.272 308.833C391.065 310.342 389.764 311.455 388.272 311.455Z" fill="#422B7C"/>
<path d="M343.339 292.573C343.339 292.573 340.22 284.736 343.014 276.768C346.531 266.748 354.143 264.39 354.143 264.39L363.352 290.464L343.324 292.573H343.339Z" fill="#422B7C"/>
<path opacity="0.2" d="M261.987 158.73C261.987 158.73 256.296 159.302 261.469 171.313C266.643 183.325 278.438 191.133 278.438 191.133L266.672 198.999C266.672 198.999 251.951 178.271 250.665 172.646C249.379 167.021 247.044 156.02 252.217 154.995C257.375 153.97 261.987 158.73 261.987 158.73Z" fill="#422B7C"/>
<path d="M50.5516 311.235C48.8666 311.235 47.5068 309.888 47.5068 308.218C47.5068 305.947 58.267 274.438 66.0268 260.991C76.2253 243.296 98.4257 224.268 130.159 223.901C143.225 223.755 152.301 224.854 161.923 226.011C173.998 227.476 186.473 228.984 208.363 228.135C224.947 227.49 231.583 224.121 231.657 224.092C233.135 223.315 234.968 223.872 235.766 225.322C236.55 226.772 236.017 228.589 234.554 229.38C234.244 229.541 226.868 233.452 208.6 234.155C186.222 235.02 173.496 233.481 161.184 231.987C151.769 230.845 142.885 229.761 130.233 229.922C92.5873 230.361 74.5403 258.369 71.3034 263.98C63.6175 277.31 54.2024 306.108 53.552 308.716C53.3155 310.151 52.0592 311.235 50.5516 311.235Z" fill="#422B7C"/>
<path opacity="0.2" d="M4.65807 354.243C4.65807 354.243 18.6996 358.887 38.5055 356.748C58.3113 354.609 74.5108 342.48 103.688 347.476C132.864 352.471 159.499 372.817 205.954 368.174C252.409 363.53 262.12 352.119 287.335 356.748C312.536 361.392 326.223 364.951 337.752 364.248C349.281 363.53 357.203 358.535 357.203 358.535C357.203 358.535 360.085 371.03 347.123 373.887C334.16 376.743 292.39 373.169 292.39 373.169C292.39 373.169 270.072 368.525 267.899 369.961C265.741 371.382 211.364 385.664 160.238 378.53C109.112 371.396 93.2673 361.04 93.2673 361.04C93.2673 361.04 53.6555 368.54 48.9701 368.174C44.2846 367.822 13.2899 365.083 13.2899 365.083C13.2899 365.083 3.96339 363.179 4.68764 354.258L4.65807 354.243Z" fill="#422B7C"/>
<path opacity="0.2" d="M256.888 295.43C256.888 295.43 272.407 314.136 294.667 324.595C305.974 329.897 323.4 341.191 324.893 341.733C326.386 342.29 335.549 336.343 346.029 336.87C363.736 337.749 369.397 350.435 369.397 350.435L374.6 340.855L345.497 328.081C345.497 328.081 311.206 323.643 295.923 317.915C280.64 312.188 256.902 295.43 256.902 295.43H256.888Z" fill="#422B7C"/>
<path opacity="0.2" d="M252.779 211.67C252.779 211.67 243.984 218.774 245.403 245.947C246.896 274.146 259.991 291.27 259.991 291.27C259.991 291.27 228.731 265.752 234.244 233.481C239.757 201.211 246.068 198.604 246.068 198.604L252.779 211.685V211.67Z" fill="#422B7C"/>
<path opacity="0.2" d="M283.33 138.911C284.512 138.032 297.711 140.742 308.176 147.51C321.715 156.255 332.623 177.422 332.623 177.422L311.428 175.518L283.965 151.802L283.33 138.911Z" fill="#422B7C"/>
<path opacity="0.2" d="M383.911 309.639C383.911 309.639 375.427 321.167 357.602 323.101C333.525 325.708 322.971 317.549 322.971 317.549C322.971 317.549 360.026 313.726 364.771 309.829C369.53 305.933 372.693 302.769 372.693 302.769L383.911 309.639Z" fill="#422B7C"/>
<path opacity="0.2" d="M13.3786 330.615C13.3786 330.615 17.3841 326.675 22.8233 324.873C29.6076 322.632 32.5193 322.207 32.5193 322.207L40.9886 309.932L48.2163 311.528L34.7216 332.534L14.4871 337.148L13.3638 330.63L13.3786 330.615Z" fill="#422B7C"/>
<path opacity="0.2" d="M48.2015 215.361C48.2015 215.361 46.0435 229.116 45.2897 237.275C44.2994 247.998 47.7728 254.81 50.0342 261.914C53.1529 271.67 57.5723 277.031 57.5723 277.031L71.0965 263.057C71.0965 263.057 60.4841 256.362 56.9515 247.925C47.359 224.985 58.4887 211.143 58.4887 211.143L48.1867 215.361H48.2015Z" fill="#422B7C"/>
<path d="M303.668 331.802C302.737 331.802 301.791 331.553 300.948 331.011L115.985 214.102C113.62 212.607 112.925 209.502 114.433 207.158C115.941 204.814 119.074 204.126 121.439 205.62L306.402 322.529C308.767 324.023 309.462 327.129 307.954 329.473C306.993 330.981 305.353 331.802 303.683 331.802H303.668Z" fill="#422B7C"/>
<path opacity="0.2" d="M90.7102 241.011C90.7102 241.011 120.463 227.036 153.01 242.285C204.18 266.265 265.475 306.182 265.475 306.182L240.688 267.7L232.544 230.713C232.544 230.713 200.396 231.416 192.563 230.991C181.61 230.376 122.503 223.579 110.442 228.735C98.3961 233.892 90.7102 241.025 90.7102 241.025V241.011Z" fill="#422B7C"/>
<path opacity="0.2" d="M186.665 259.028C186.665 259.028 194.913 276.812 223.883 297.7C254.744 319.951 281.586 327.261 281.586 327.261C281.586 327.261 294.548 327.173 295.376 326.909C296.204 326.631 248.315 298.096 226.454 283.564C204.594 269.033 186.68 259.043 186.68 259.043L186.665 259.028Z" fill="#422B7C"/>
<path d="M288.03 280.576C284.084 285.806 279.147 286.465 265.165 283.887C247.192 280.576 232.189 263.481 232.766 237.979C232.973 229.043 229.647 213.267 231.598 206.177C246.659 151.318 312.521 155.874 330.214 152.827C337.707 151.538 342.659 154.878 345.94 159.536C351.202 167.051 359.405 171.885 368.628 172.28C372.663 172.456 383.054 174.316 384.635 180.791C389.173 199.307 385.744 216.899 355.444 210.718C286.789 196.729 295.627 270.498 288.015 280.576H288.03Z" fill="#6A3FB9"/>
<path d="M198.179 193.711C202.791 166.875 224.71 140.581 256.976 130.151C300.52 116.074 347.196 137.446 358.459 171.636L231.731 223.286C209.945 232.207 195.844 207.319 198.194 193.711H198.179Z" fill="#A52DB4"/>
<path opacity="0.2" d="M329.002 180.293L354.468 169.834C343.206 135.645 300.505 116.06 256.961 130.151C249.453 132.583 242.506 135.864 236.21 139.819C277.669 129.697 318.079 147.993 328.987 180.308L329.002 180.293Z" fill="#422B7C"/>
<path d="M387.695 179.692C385.256 169.687 369.53 168.911 368.85 168.882C364.741 168.706 360.795 167.534 357.262 165.498C356.434 167.446 355.4 169.189 354.173 170.698C358.548 173.218 363.44 174.697 368.584 174.917C372.279 175.078 380.733 176.851 381.768 181.128C383.63 188.76 384.754 198.999 379.477 204.419C375.309 208.696 367.461 209.707 356.153 207.393C338.21 203.745 323.651 205.649 312.847 213.047C295.169 225.176 291.356 249.111 288.828 264.946C287.912 270.732 286.951 276.709 285.695 278.379C283.079 281.851 280.27 283.184 265.83 280.518C258.07 279.082 250.074 274.395 244.295 266.572C244.147 267.876 243.925 269.18 243.629 270.513C243.363 271.729 242.95 272.856 242.417 273.896C248.285 280.342 255.897 284.81 264.721 286.436C269.82 287.373 273.989 287.959 277.477 287.959C283.33 287.959 287.291 286.318 290.572 281.968C292.73 279.097 293.617 273.545 294.844 265.854C297.209 251.03 300.786 228.618 316.32 217.969C325.691 211.538 338.698 209.941 354.941 213.252C368.421 216.006 378.162 214.424 383.867 208.55C389.646 202.617 390.947 192.891 387.695 179.648V179.692Z" fill="#422B7C"/>
<path d="M390.356 306.357C389.084 305.273 387.163 305.42 386.069 306.68C385.981 306.782 377.703 316.23 367.682 320.215C359.213 323.569 345.053 327.612 319.971 323.979C297.15 320.669 267.663 302.856 254.242 284.268C241.649 266.821 235.116 245.83 237.215 229.468C237.673 225.85 238.53 222.422 239.535 219.316C239.432 219.346 239.328 219.375 239.225 219.404C238.796 219.668 238.353 219.917 237.88 220.137C237.377 220.562 236.83 220.942 236.239 221.294C234.983 222.085 233.653 222.568 232.234 222.788C231.79 224.692 231.421 226.67 231.155 228.706C228.878 246.504 235.825 269.136 249.276 287.769C263.775 307.852 294.43 326.367 319.069 329.941C325.986 330.938 332.431 331.45 338.491 331.45C350.138 331.45 360.395 329.59 369.929 325.811C381.369 321.284 390.296 311.045 390.681 310.605C391.775 309.346 391.627 307.441 390.356 306.357Z" fill="#422B7C"/>
<path d="M283.33 202.822C289.641 233.599 293.41 281.25 314.221 316.641C316.409 320.947 326.474 331.392 331.455 331.201C293.218 337.09 278.837 229.468 272.451 205.283L283.33 202.822Z" fill="#EBA900"/>
<path d="M222.612 226.392C217.276 226.392 212.162 224.59 207.668 221.03C199.111 214.248 193.701 201.401 195.356 191.777C200.426 162.349 224.045 136.758 255.543 126.577C276.738 119.722 299.559 120.688 319.823 129.272C339.511 137.622 354.04 152.285 359.716 169.512C360.203 171.006 359.45 172.632 357.986 173.232L232.677 224.312C229.292 225.703 225.908 226.377 222.612 226.377V226.392ZM284.172 128.086C275.186 128.086 266.17 129.492 257.449 132.319C228.524 141.68 205.983 165.981 201.372 192.803C200.234 199.365 203.781 210.234 211.482 216.328C215.339 219.39 221.754 222.275 230.371 218.745L353.005 168.765C347.3 154.321 334.5 142.061 317.458 134.824C306.89 130.342 295.568 128.086 284.187 128.086H284.172Z" fill="#422B7C"/>
<path d="M300.534 172.236C297.046 167.505 294.001 164.692 289.493 160.884C284.985 157.075 280.344 153.047 275.023 150.41C270.944 148.403 266.761 146.865 264.367 143.481C264.248 143.452 264.13 143.423 264.012 143.394L262.711 144.522C262.711 144.522 254.656 140.566 249.364 138.472C244.073 136.377 228.879 135.542 222.612 138.838C216.345 142.134 216.167 151.553 221.222 164.692C225.479 175.752 232.973 186.65 235.781 190.239C238.663 191.514 240.865 194.165 242.757 196.553C244.413 198.647 244.871 198.032 246.482 200.156C252.971 193.755 258.129 184.292 265.608 179.927C285.444 168.384 301.761 175.869 302.84 175.942C301.096 173.657 301.968 174.17 300.534 172.236Z" fill="#EBA900"/>
<path d="M244.605 201.899C243.792 202.002 242.935 201.724 242.329 201.079C241.649 200.361 225.538 183.164 218.739 165.63C214.615 154.995 214.438 146.382 218.222 140.713C220.232 137.695 224.415 134.048 232.899 133.77C247.28 133.301 259.711 137.622 278.763 149.736C297.105 161.396 306.639 174.478 307.038 175.02C307.895 176.206 307.614 177.847 306.417 178.696C305.22 179.546 303.564 179.268 302.707 178.081C302.618 177.949 293.322 165.249 275.895 154.175C257.863 142.705 246.26 138.604 233.076 139.043C228.08 139.204 224.577 140.757 222.641 143.643C219.877 147.773 220.261 154.907 223.691 163.755C230.12 180.337 246.039 197.329 246.201 197.49C247.206 198.56 247.147 200.215 246.068 201.211C245.64 201.606 245.122 201.826 244.59 201.899H244.605Z" fill="#422B7C"/>
<path d="M255.099 189.302C255.099 189.302 240.023 171.357 236.55 163.315C231.82 152.344 237.067 146.279 252.646 152.388C267.559 158.232 283.271 173.936 283.271 173.936C283.271 173.936 262.755 176.968 255.099 189.287V189.302Z" fill="#EA9E32"/>
<path d="M255.439 191.924C255.439 191.924 255.336 191.924 255.291 191.938C254.434 191.997 253.606 191.645 253.059 191.001C252.439 190.254 237.688 172.661 234.111 164.37C230.504 156.02 232.869 151.816 234.613 150.059C237.052 147.568 242.344 145.532 253.636 149.971C268.889 155.962 284.512 171.46 285.163 172.119C285.872 172.822 286.109 173.862 285.798 174.8C285.488 175.737 284.66 176.426 283.67 176.572C283.478 176.602 264.278 179.59 257.375 190.708C256.947 191.382 256.237 191.836 255.454 191.938L255.439 191.924ZM240.999 152.681C239.447 152.886 238.708 153.428 238.412 153.735C237.052 155.112 237.274 158.32 239.003 162.305C241.516 168.135 250.754 179.81 254.996 185.024C261.292 177.671 271.609 174.053 277.772 172.456C272.363 167.607 261.736 158.818 251.67 154.863C246.275 152.754 242.979 152.432 240.999 152.681Z" fill="#422B7C"/>
<path opacity="0.2" d="M246.127 153.062C246.127 153.062 271.535 160.313 277.373 170.171C283.197 180.029 264.041 179.341 264.041 179.341L254.73 187.456C254.73 187.456 239.639 171.108 237.88 166.377C236.121 161.646 232.869 152.358 237.244 150.894C241.605 149.429 246.142 153.062 246.142 153.062H246.127Z" fill="#422B7C"/>
</g>
<defs>
<clipPath id="clip0_81_512">
<rect width="434.813" height="480" fill="white" transform="translate(0.59343)"/>
</clipPath>
</defs>
</svg>
