<svg id="Layer_1" data-name="Layer 1" xmlns="http://www.w3.org/2000/svg" viewBox="0 0 543.91 457.04"><defs><style>.cls-1{fill:#f5f5f5;}.cls-2{fill:#ebebeb;}.cls-3{fill:#fafafa;}.cls-4{fill:#e0e0e0;}.cls-5{fill:#263238;}.cls-6{fill:#422b7c;}.cls-7{fill:#ffbe9d;}.cls-8{opacity:0.2;}.cls-9{fill:#eba900;}.cls-10{fill:#455a64;}.cls-11{opacity:0.4;}.cls-12{opacity:0.6;}.cls-13{opacity:0.3;}.cls-14{fill:#eb996e;}</style></defs><g id="Background_Complete" data-name="Background Complete"><rect class="cls-1" x="45.19" y="186.28" width="125.77" height="97"/><path class="cls-2" d="M76.69,282.59c.17,0,.32-21.62.32-48.3s-.15-48.3-.32-48.3-.31,21.61-.31,48.3S76.47,282.59,76.69,282.59Z"/><rect class="cls-3" x="55.85" y="261.19" width="9.64" height="10.9"/><rect class="cls-2" x="118.29" y="186.52" width="14.29" height="20.7"/><rect class="cls-2" x="118.29" y="262.29" width="14.29" height="20.7"/><rect class="cls-2" x="11.25" y="284.64" width="207.63" height="160.13"/><path class="cls-4" d="M166.86,443.65c-.23,0-.41-35.69-.41-79.7s.18-79.69.41-79.69.41,35.68.41,79.69S167,443.65,166.86,443.65Z"/><rect class="cls-3" x="185.36" y="408.33" width="15.92" height="17.99"/><rect class="cls-4" x="74.59" y="285.05" width="23.58" height="34.17"/><rect class="cls-4" x="74.59" y="410.13" width="23.58" height="34.17"/><path class="cls-2" d="M131.7,7.23a14.63,14.63,0,0,1-6,0A14.63,14.63,0,0,1,131.7,7.23Z"/><path class="cls-2" d="M143.77,7.23a14.59,14.59,0,0,1-6,0A14.59,14.59,0,0,1,143.77,7.23Z"/><path class="cls-2" d="M155.85,7.23a14.63,14.63,0,0,1-6,0A14.63,14.63,0,0,1,155.85,7.23Z"/><path class="cls-2" d="M167.93,7.23a14.63,14.63,0,0,1-6,0A14.63,14.63,0,0,1,167.93,7.23Z"/><path class="cls-2" d="M180,7.23a14.63,14.63,0,0,1-6,0A14.63,14.63,0,0,1,180,7.23Z"/><path class="cls-2" d="M192.08,7.23a14.63,14.63,0,0,1-6,0A14.63,14.63,0,0,1,192.08,7.23Z"/><path class="cls-2" d="M204.15,7.23a14.63,14.63,0,0,1-6,0A14.63,14.63,0,0,1,204.15,7.23Z"/><path class="cls-2" d="M216.23,7.23a14.63,14.63,0,0,1-6,0A14.63,14.63,0,0,1,216.23,7.23Z"/><path class="cls-2" d="M228.3,7.23a14.63,14.63,0,0,1-6,0A14.63,14.63,0,0,1,228.3,7.23Z"/><path class="cls-2" d="M240.38,7.23a14.63,14.63,0,0,1-6,0A14.63,14.63,0,0,1,240.38,7.23Z"/><path class="cls-2" d="M252.45,7.23a14.59,14.59,0,0,1-6,0A14.59,14.59,0,0,1,252.45,7.23Z"/><path class="cls-2" d="M264.53,7.23a14.63,14.63,0,0,1-6,0A14.63,14.63,0,0,1,264.53,7.23Z"/><path class="cls-2" d="M276.6,7.23a14.59,14.59,0,0,1-6,0A14.59,14.59,0,0,1,276.6,7.23Z"/><path class="cls-2" d="M288.68,7.23a14.63,14.63,0,0,1-6,0A14.63,14.63,0,0,1,288.68,7.23Z"/><path class="cls-2" d="M300.75,7.23a14.59,14.59,0,0,1-6,0A14.59,14.59,0,0,1,300.75,7.23Z"/><path class="cls-2" d="M312.83,7.23a14.63,14.63,0,0,1-6,0A14.63,14.63,0,0,1,312.83,7.23Z"/><path class="cls-2" d="M312.83,7.54a14.63,14.63,0,0,1-6,0A14.63,14.63,0,0,1,312.83,7.54Z"/><path class="cls-2" d="M324.91,7.54a14.63,14.63,0,0,1-6,0A14.63,14.63,0,0,1,324.91,7.54Z"/><path class="cls-2" d="M337,7.54a14.63,14.63,0,0,1-6,0A14.63,14.63,0,0,1,337,7.54Z"/><path class="cls-2" d="M349.06,7.54a14.63,14.63,0,0,1-6,0A14.63,14.63,0,0,1,349.06,7.54Z"/><path class="cls-2" d="M361.13,7.54a14.63,14.63,0,0,1-6,0A14.63,14.63,0,0,1,361.13,7.54Z"/><path class="cls-2" d="M373.21,7.54a14.63,14.63,0,0,1-6,0A14.63,14.63,0,0,1,373.21,7.54Z"/><path class="cls-2" d="M385.28,7.54a14.59,14.59,0,0,1-6,0A14.59,14.59,0,0,1,385.28,7.54Z"/><path class="cls-2" d="M388.37,16.49a7.7,7.7,0,0,1-.31-3,7.72,7.72,0,0,1,.31-3,7.37,7.37,0,0,1,.32,3A7.18,7.18,0,0,1,388.37,16.49Z"/><path class="cls-2" d="M388.37,28.57a7.74,7.74,0,0,1-.31-3,7.7,7.7,0,0,1,.31-3,7.35,7.35,0,0,1,.32,3A7.22,7.22,0,0,1,388.37,28.57Z"/><path class="cls-2" d="M388.37,40.64a7.7,7.7,0,0,1-.31-3,7.74,7.74,0,0,1,.31-3,7.38,7.38,0,0,1,.32,3A7.18,7.18,0,0,1,388.37,40.64Z"/><path class="cls-2" d="M391.56,29.82a14.63,14.63,0,0,1,0-6A15,15,0,0,1,391.56,29.82Z"/><path class="cls-2" d="M391.56,41.89a14.63,14.63,0,0,1,0-6A15,15,0,0,1,391.56,41.89Z"/><path class="cls-2" d="M393.91,51.61c0,.16-1,.28-2.35.32h-.31V51a7.7,7.7,0,0,1,.32-3,7.34,7.34,0,0,1,.31,3v.66l-.31-.3A5.64,5.64,0,0,1,393.91,51.61Z"/><path class="cls-2" d="M406,51.61a14.63,14.63,0,0,1-6,0A14.63,14.63,0,0,1,406,51.61Z"/><path class="cls-2" d="M418.06,51.61a14.63,14.63,0,0,1-6,0A14.63,14.63,0,0,1,418.06,51.61Z"/><path class="cls-2" d="M430.14,51.61a14.63,14.63,0,0,1-6,0A14.63,14.63,0,0,1,430.14,51.61Z"/><path class="cls-2" d="M442.21,51.61a14.59,14.59,0,0,1-6,0A14.59,14.59,0,0,1,442.21,51.61Z"/><path class="cls-2" d="M454.29,51.61a14.63,14.63,0,0,1-6,0A14.63,14.63,0,0,1,454.29,51.61Z"/><path class="cls-2" d="M466.36,51.61a14.59,14.59,0,0,1-6,0A14.59,14.59,0,0,1,466.36,51.61Z"/><path class="cls-2" d="M478.44,51.61a14.63,14.63,0,0,1-6,0A14.63,14.63,0,0,1,478.44,51.61Z"/><path class="cls-2" d="M490.51,51.61a14.59,14.59,0,0,1-6,0A14.59,14.59,0,0,1,490.51,51.61Z"/><path class="cls-2" d="M495.21,59a14.63,14.63,0,0,1,0-6A14.63,14.63,0,0,1,495.21,59Z"/><path class="cls-2" d="M495.21,71.08a14.63,14.63,0,0,1,0-6A14.63,14.63,0,0,1,495.21,71.08Z"/><path class="cls-2" d="M495.21,83.15a14.59,14.59,0,0,1,0-6A14.59,14.59,0,0,1,495.21,83.15Z"/><path class="cls-2" d="M495.21,95.23a14.63,14.63,0,0,1,0-6A14.63,14.63,0,0,1,495.21,95.23Z"/><path class="cls-2" d="M495.21,107.3a14.59,14.59,0,0,1,0-6A14.59,14.59,0,0,1,495.21,107.3Z"/><path class="cls-2" d="M495.21,119.38a14.63,14.63,0,0,1,0-6A14.63,14.63,0,0,1,495.21,119.38Z"/><path class="cls-2" d="M495.21,131.46a14.63,14.63,0,0,1,0-6A14.63,14.63,0,0,1,495.21,131.46Z"/><path class="cls-2" d="M495.21,143.53a14.63,14.63,0,0,1,0-6A14.63,14.63,0,0,1,495.21,143.53Z"/><path class="cls-2" d="M495.21,155.61a14.63,14.63,0,0,1,0-6A14.63,14.63,0,0,1,495.21,155.61Z"/><path class="cls-2" d="M495.21,167.68a14.63,14.63,0,0,1,0-6A14.63,14.63,0,0,1,495.21,167.68Z"/><path class="cls-2" d="M495.21,179.76a14.63,14.63,0,0,1,0-6A14.63,14.63,0,0,1,495.21,179.76Z"/><path class="cls-2" d="M209.46,24.62s-9.37-5.19-18.56,17-12.33,34.78-12.33,34.78-2.53,4.69-5.82,2-8.15-10.62-13.29-8.73-6.59,8.15-4.83,16.91,4.83,28.17,5.09,29.92-.53,4.36-3.07,2.89-17.6-15.8-24-8.25,2.41,31.25,3.38,33.81.48,3.78-.72,4.54-5.84-4.54-10.28-8.45-10.3-7.65-13.62-3S108.37,161,128,189.16L138,201.62l15.88-2.13c33.67-6.65,46.55-19.62,47.4-25.28s-5.94-6.88-11.85-7.1-12.91.33-13.29-1.06.17-2.54,2.64-3.78,25.27-12.15,25.93-22-20.14-10-22.94-10.73-1.59-3.15-.21-4.2,17.1-12.88,24.45-18,10.69-10.47,8.25-15.57c-2.34-4.9-11.35-2.56-15.58-2.92s-2.79-5.48-2.79-5.48,6.49-11.27,15.27-33.6-1.83-25.12-1.83-25.12"/><path class="cls-4" d="M138.54,198.51c6.51-16.38,15.7-38.92,25.94-63.8S183.94,87.33,190.55,71c3.28-8.15,5.94-14.76,7.8-19.32l2.12-5.25.57-1.37a4.69,4.69,0,0,1,.21-.46,1.25,1.25,0,0,1-.16.49c-.16.31-.29.78-.52,1.37-.47,1.21-1.15,3-2,5.3-1.77,4.61-4.38,11.23-7.64,19.42C184.39,87.55,175.2,110.09,165,135s-19.46,47.4-26.07,63.74"/><path class="cls-4" d="M174.49,71.51a5.19,5.19,0,0,1,.49,1c.29.69.68,1.69,1.14,2.92.93,2.49,2.11,6,3.34,9.79s2.29,7.25,3.13,9.87l.95,3a4.83,4.83,0,0,1,.31,1.11,4.9,4.9,0,0,1-.5-1c-.29-.69-.67-1.7-1.12-2.94-.91-2.49-2-6-3.29-9.82l-3.18-9.83c-.38-1.2-.7-2.16-1-3A4.24,4.24,0,0,1,174.49,71.51Z"/><path class="cls-4" d="M185.33,99.39c0-.14,7-2.91,15.7-6.17s15.84-5.81,15.89-5.66-7,2.91-15.7,6.17S185.38,99.55,185.33,99.39Z"/><path class="cls-4" d="M167.89,136.88a4.52,4.52,0,0,1,1.21-.16l3.19-.26c2.69-.2,6.41-.5,10.51-1s7.77-1,10.44-1.44l3.16-.5a4.14,4.14,0,0,1,1.21-.11,5.44,5.44,0,0,1-1.13.33c-.74.17-1.81.4-3.14.66-2.65.51-6.34,1.12-10.45,1.61s-7.83.72-10.54.83c-1.35,0-2.41.09-3.2.07A5.32,5.32,0,0,1,167.89,136.88Z"/><path class="cls-4" d="M152.55,113.81a5,5,0,0,1,.7.83c.41.56,1,1.38,1.74,2.42,1.45,2,3.43,4.83,5.57,8s4.07,6,5.45,8.1c.69,1,1.21,1.89,1.59,2.49a4.24,4.24,0,0,1,.54,1,9.06,9.06,0,0,1-.7-.83c-.43-.56-1-1.38-1.76-2.42-1.44-2-3.41-4.83-5.57-8s-4.07-6-5.45-8.11c-.68-1-1.21-1.89-1.59-2.48A3.73,3.73,0,0,1,152.55,113.81Z"/><path class="cls-4" d="M124.3,154.54a6.49,6.49,0,0,1,.88,1.08c.59.82,1.36,1.83,2.25,3.06,1.87,2.6,4.43,6.2,7.24,10.21s5.32,7.64,7.1,10.3c.85,1.2,1.55,2.31,2.11,3.15a8.53,8.53,0,0,1,.71,1.21,6,6,0,0,1-.88-1.08l-2.25-3.05c-1.87-2.6-4.43-6.21-7.25-10.21s-5.3-7.64-7.08-10.3l-2.1-3.15A6.06,6.06,0,0,1,124.3,154.54Z"/><path class="cls-4" d="M144.27,182.71a9.32,9.32,0,0,1,1.48-.24l4-.46c3.41-.38,8.1-.93,13.28-1.68s9.84-1.54,13.21-2.13l4-.7a8.34,8.34,0,0,1,1.49-.2,8.1,8.1,0,0,1-1.44.4c-.94.23-2.3.53-4,.87-3.36.7-8,1.56-13.21,2.29s-9.91,1.21-13.29,1.54c-1.7.14-3.09.24-4,.29A8.8,8.8,0,0,1,144.27,182.71Z"/><path class="cls-1" d="M537.64,209.31a42.43,42.43,0,1,0-79,21.43h0l.12.16c1.61,2.74,3.62,4.69,5.72,7.58l24.63,32.6a7.64,7.64,0,0,0,10.71,1.52,7.5,7.5,0,0,0,1.51-1.52L525.57,239a92.54,92.54,0,0,0,6.16-8.18l.08-.1h0A42.23,42.23,0,0,0,537.64,209.31Zm-42.43,18.47a18.68,18.68,0,1,1,18.67-18.69h0a18.69,18.69,0,0,1-18.67,18.68Z"/><path class="cls-1" d="M337.31,20.65v49.9a1.94,1.94,0,0,0,1.95,1.94H443.88a1.92,1.92,0,0,0,1.94-1.92v0l-.23-18.26a2.06,2.06,0,0,0-.38-1.2L430.2,31a1.93,1.93,0,0,0-1.55-.77l-17.29-.14a1.94,1.94,0,0,1-1.93-1.94V20.6a1.94,1.94,0,0,0-1.95-1.94H339.26a1.94,1.94,0,0,0-1.95,1.94Z"/><path class="cls-2" d="M414.29,34.49v16a1.11,1.11,0,0,0,1.11,1.11h0l23.1-.41a1.11,1.11,0,0,0,1.1-1.12,1.13,1.13,0,0,0-.19-.62L428.57,33.54a1.1,1.1,0,0,0-.94-.5l-12.31.34A1.11,1.11,0,0,0,414.29,34.49Z"/><rect class="cls-1" x="335.21" y="74.01" width="112.7" height="3.48"/><circle class="cls-2" cx="361.33" cy="75.34" r="11.15" transform="translate(52.56 277.56) rotate(-45)"/><path class="cls-3" d="M367.89,75.34a6.56,6.56,0,1,1-6.56-6.56h0A6.58,6.58,0,0,1,367.89,75.34Z"/><path class="cls-2" d="M409.34,72.49c-.27,0-.5-12.07-.5-26.89s.23-26.89.5-26.89.51,12.07.51,26.89S409.62,72.49,409.34,72.49Z"/><circle class="cls-2" cx="422.08" cy="75.34" r="11.15" transform="translate(70.35 320.52) rotate(-45)"/><path class="cls-3" d="M428.64,75.34a6.57,6.57,0,1,1-6.58-6.56h0A6.58,6.58,0,0,1,428.64,75.34Z"/><path class="cls-2" d="M422.11,54.78c0,.27-1.6.5-3.63.5s-3.56-.23-3.56-.5,1.6-.51,3.56-.51S422.11,54.49,422.11,54.78Z"/></g><g id="Floor"><path class="cls-5" d="M533,436.76c0,.14-117,.24-261.29.24s-261.33-.1-261.33-.24,117-.23,261.33-.23S533,436.64,533,436.76Z"/></g><g id="Plant"><path class="cls-6" d="M77.82,426.57c16.27-11.29,20-32.32,19.45-51.24-.1-3.16.26-6.49-1.21-9.27s-5-4.67-7.82-3.35c-2.35,1.1-3.38,3.81-4.7,6a18.5,18.5,0,0,1-7.43,7.06c-2,1-4.5,1.65-6.49.55-2.72-1.51-3-5.27-3-8.45q.1-8.77.17-17.56a29.14,29.14,0,0,0-.88-9.25c-1-3-3.12-5.76-6.11-6.62s-6.68.87-7.32,3.94a28.38,28.38,0,0,0-.11,3.91,3.31,3.31,0,0,1-1.94,3.11c-1.21.36-2.51-.53-3.44-1.45-3.24-3.19-5.43-7.25-7.47-11.35s-4-8.24-7-11.7-7-6.23-11.49-6.5-9.29,2.49-10.45,6.89,1.41,8.94,4.21,12.53a70.06,70.06,0,0,0,14.49,14,5.76,5.76,0,0,1,2.42,2.63c.66,2.1-1.32,4.17-3.4,4.83-2.34.77-4.83.52-7.33.8s-5.1,1.35-6,3.62c-1.3,3.21,1.37,6.58,4,8.79a59.85,59.85,0,0,0,17.75,10.33,20.34,20.34,0,0,1,6.59,3.23c1.86,1.63,3,4.46,1.84,6.67s-4,2.91-6.45,2.41-4.58-1.77-6.89-2.65c-4.31-1.65-9.89-1.37-12.66,2.35a10,10,0,0,0-1.09,8.79,23,23,0,0,0,4.73,7.78,60.5,60.5,0,0,0,25.74,18.21c10,3.51,19.32,4.48,29.23.88"/><path class="cls-5" d="M76.78,431.9c-.66-7.5-1-7.66-3.77-17.21A279.1,279.1,0,0,0,62,384.35q-1.7-4-3.31-7.8c-1.1-2.56-2.17-5.1-3.39-7.52a142.89,142.89,0,0,0-7.8-13.45c-2.67-4.18-5.37-8-7.91-11.63s-5-6.88-7.35-9.79a112.4,112.4,0,0,0-12.07-12.9c-1.55-1.41-2.78-2.41-3.62-3.16l-1-.78a1.37,1.37,0,0,0-.35-.26,2.91,2.91,0,0,0,.31.3l.93.84c.82.72,2,1.8,3.55,3.23a118.64,118.64,0,0,1,12,13c2.33,2.91,4.74,6.22,7.24,9.81s5.19,7.47,7.86,11.63a139.74,139.74,0,0,1,7.69,13.45c1.21,2.42,2.29,4.93,3.37,7.49l3.31,7.8a288.58,288.58,0,0,1,11.09,30.28c2.79,9.51,3.16,9.66,3.87,17.08"/><path class="cls-5" d="M55,369a6.05,6.05,0,0,0,.3-1.34c.17-.87.38-2.13.61-3.7.44-3.12.93-7.46,1.45-12.24s1.05-9.1,1.54-12.22c.25-1.56.46-2.81.63-3.68a5.78,5.78,0,0,0,.17-1.37,7.71,7.71,0,0,0-.4,1.32c-.22.86-.5,2.11-.8,3.62-.6,3.1-1.2,7.44-1.72,12.22s-1,9-1.28,12.27c-.16,1.47-.31,2.72-.41,3.71A5.55,5.55,0,0,0,55,369Z"/><path class="cls-5" d="M14.68,361.32a8.16,8.16,0,0,0,1.62.2c1,.1,2.54.22,4.39.45,3.69.41,8.78,1.21,14.35,2.23s10.58,2.27,14.18,3.24c1.8.47,3.25.89,4.25,1.21a9.81,9.81,0,0,0,1.58.38,9.93,9.93,0,0,0-1.51-.61c-1-.35-2.41-.83-4.21-1.35-3.62-1.08-8.59-2.33-14.18-3.42a141.55,141.55,0,0,0-14.49-2.07c-1.86-.17-3.37-.24-4.41-.26A8.23,8.23,0,0,0,14.68,361.32Z"/><path class="cls-5" d="M72.48,414a2.5,2.5,0,0,0,.29-.5c.18-.4.41-.88.69-1.46.6-1.27,1.41-3.13,2.41-5.43,2-4.63,4.48-11.09,7.15-18.28s5.13-13.65,7-18.3l2.24-5.51c.22-.6.43-1.1.59-1.5s.19-.53.17-.54a1.89,1.89,0,0,0-.28.5L92,364.39c-.6,1.28-1.42,3.14-2.41,5.44-2,4.61-4.48,11.09-7.15,18.26s-5.14,13.66-7,18.32c-.9,2.26-1.66,4.12-2.22,5.49l-.59,1.51A2.72,2.72,0,0,0,72.48,414Z"/><path class="cls-5" d="M18.87,396.47a3.21,3.21,0,0,0,.54.22l1.55.53,5.75,1.88c4.83,1.58,11.51,3.87,18.88,6.38s14.06,4.74,18.94,6.23c2.42.75,4.42,1.33,5.8,1.7l1.59.44a3.47,3.47,0,0,0,.56.11,3.5,3.5,0,0,0-.53-.23l-1.55-.52-5.7-1.89c-4.83-1.59-11.51-3.86-18.88-6.39s-14.06-4.74-18.94-6.23c-2.41-.74-4.42-1.32-5.8-1.7l-1.59-.42A1.62,1.62,0,0,0,18.87,396.47Z"/></g><g id="Character"><path class="cls-7" d="M384.27,183s19.48,3.28,21.05,3.7,7.74,3.35,8.06,5.23a57.57,57.57,0,0,1,0,7.43s-1.13.91-1.81-.91a18.18,18.18,0,0,1-.6-5.39l-3.45-1.33,1.88,3.34.32,7.84s-2.42-.22-2.89-2.09a18.88,18.88,0,0,1-.46-4l-2.51-2.13,1.88,2.55.63,5.64s-1.83.6-2.41-.65a19.13,19.13,0,0,1-.63-5l-7.1-2.49-4.7,2.62-8.78-4.9Z"/><path class="cls-6" d="M316.07,134.88c.1.39,23.48,32.61,23.48,32.61l47,14.61-2.14,17.64-57.56-11.59L306.39,164.7Z"/><g class="cls-8"><path d="M316.07,135.5c.1.39,23.48,32.6,23.48,32.6l47,14.6-2.14,17.66-57.56-11.6-20.43-23.45Z"/></g><rect class="cls-1" x="134.59" y="179.19" width="103.34" height="18.7" rx="3.68"/><path class="cls-5" d="M234.26,197.89a3.49,3.49,0,0,0,.61-.08,3.62,3.62,0,0,0,2.94-3.18V182.79a3.63,3.63,0,0,0-1.21-2.59,3.48,3.48,0,0,0-1.36-.71,5.58,5.58,0,0,0-1.63-.11H222.42l-84.06.1a3.36,3.36,0,0,0-2.5,1.1,3.42,3.42,0,0,0-.87,2.59v10.57a5.37,5.37,0,0,0,.12,1.38,3.41,3.41,0,0,0,2.89,2.47h23.74l37.78.07,25.48.1,6.93.06h0l-6.93.06-25.48.1-37.78.07h-23.9a4.19,4.19,0,0,1-1.5-.48,4,4,0,0,1-1.91-2.42,4.69,4.69,0,0,1-.14-1.54V183.09a4.14,4.14,0,0,1,1.05-3,4,4,0,0,1,3-1.31l84.06.1h11.19a7.19,7.19,0,0,1,1.73.15,3.84,3.84,0,0,1,2.83,3.63v7.87c0,1.51,0,2.83-.06,4a3.84,3.84,0,0,1-1.46,2.53,3.75,3.75,0,0,1-1.66.69A2.24,2.24,0,0,1,234.26,197.89Z"/><circle class="cls-5" cx="492.49" cy="387.59" r="49.38" transform="translate(-18.03 24.07) rotate(-2.75)"/><path class="cls-5" d="M443.13,386.75v.14a49.38,49.38,0,0,0,98.74,1.42v-.13Z"/><path class="cls-3" d="M457.83,387.09A34.67,34.67,0,1,0,493,352.93h0A34.66,34.66,0,0,0,457.83,387.09Z"/><path class="cls-4" d="M493,352.93a34.66,34.66,0,0,0-35.16,34.16l69.32,1A34.67,34.67,0,0,0,493,352.93Z"/><path class="cls-5" d="M471.37,387.28a21.12,21.12,0,1,0,21.43-20.8h0A21.13,21.13,0,0,0,471.37,387.28Z"/><path class="cls-9" d="M469.06,315.19s50.54-15.28,71.45,39.64L434.73,387.6Z"/><circle class="cls-5" cx="187.85" cy="387.59" r="49.38"/><path class="cls-5" d="M138.48,386.75v.14a49.38,49.38,0,0,0,98.74,1.42v-.16Z"/><path class="cls-3" d="M153.22,387.09a34.67,34.67,0,1,0,35.17-34.16h0A34.67,34.67,0,0,0,153.22,387.09Z"/><path class="cls-4" d="M188.34,352.93a34.67,34.67,0,0,0-35.12,34.16l69.33,1a34.67,34.67,0,0,0-34.17-35.16Z"/><path class="cls-5" d="M166.72,387.28a21.12,21.12,0,1,0,21.43-20.8h0A21.13,21.13,0,0,0,166.72,387.28Z"/><path class="cls-10" d="M258.07,367.77c-.27.14-26-4-26-4h0a15.73,15.73,0,0,1-11.73,6.13c-11.11.53-22,1-31.39,1.45A15.94,15.94,0,0,0,173.75,388h0a16,16,0,0,0,15.3,15.26l54.74,2.16c9,.36,21-5.1,26.56-12.14h0Z"/><path class="cls-9" d="M123.73,345.89s-2.34-48.12,42.88-58.14v-6.17H325v14.8s-23.24,28-15.7,51.25,10,25.62,10,25.62h90.16a61.63,61.63,0,0,0,11.39-34.16c.48-20.41-8-55.29-14.34-77.6-5.72-20.34-9.34-37.3-9.34-37.3l27.05-9s50.05,65.51,52.09,69.13,9,12.27,7.37,31.09S437,392.23,425.19,398.78s-22.49,7-33.13,8.59c-9.22,1.42-77.47.48-95.33.2a35.05,35.05,0,0,1-17.63-4.89c-5.34-3.24-9.35-8.6-13.78-17.39l-9.46-18.4Z"/><path class="cls-10" d="M135.86,342.58l-20,31.25a4.83,4.83,0,0,0,5.93,7.15,23.33,23.33,0,0,0,6.7-4.54c9.12-8.68,25.36-31.55,25.36-31.55Z"/><path class="cls-5" d="M278.94,348.21a1.4,1.4,0,0,1,.12-.46l.4-1.32a34.83,34.83,0,0,0,1.05-5.15,36.43,36.43,0,0,0-3.09-18.87,39.58,39.58,0,0,0-7.35-11A48.11,48.11,0,0,0,258,302.12a61.34,61.34,0,0,0-15.82-5.9,83.49,83.49,0,0,0-18.11-1.87,137.45,137.45,0,0,0-18.12,1.34c-5.84.79-11.44,1.75-16.73,3a98.91,98.91,0,0,0-26.87,9.94A66.62,66.62,0,0,0,147,320.31c-1.59,1.65-2.74,3-3.5,3.94l-.86,1.07a1.73,1.73,0,0,1-.31.35,40.34,40.34,0,0,1,4.49-5.53,65.45,65.45,0,0,1,15.31-11.94,98.19,98.19,0,0,1,27-10.12q7.93-1.8,16.77-3a137.75,137.75,0,0,1,18.26-1.36,83.19,83.19,0,0,1,18.21,1.9,61.78,61.78,0,0,1,16,6,48.63,48.63,0,0,1,12.23,9.39,39.74,39.74,0,0,1,7.38,11.23,36.23,36.23,0,0,1,2.92,19.08,30.43,30.43,0,0,1-1.2,5.16c-.2.55-.34,1-.46,1.3A2.46,2.46,0,0,1,278.94,348.21Z"/><path class="cls-1" d="M269.82,337.44c-.07,0,.26-.76.6-2.14a15.74,15.74,0,0,0,.18-6,24.74,24.74,0,0,0-3-8.38,28.62,28.62,0,0,0-2.92-4.39,26.1,26.1,0,0,0-3.93-4.07,34,34,0,0,0-9.42-5.51,44,44,0,0,0-8.64-2.42,58.43,58.43,0,0,0-6-.68,18.43,18.43,0,0,1-2.22-.17,1.88,1.88,0,0,1,.58,0h1.65a45.26,45.26,0,0,1,6,.49,41.75,41.75,0,0,1,8.79,2.26A34.36,34.36,0,0,1,261.2,312a27.68,27.68,0,0,1,4,4.16,30.62,30.62,0,0,1,2.94,4.51,24,24,0,0,1,2.87,8.6,14.83,14.83,0,0,1-.38,6.11,8.74,8.74,0,0,1-.57,1.55A2.27,2.27,0,0,1,269.82,337.44Z"/><g class="cls-11"><path d="M238.8,295.24a63.43,63.43,0,0,1,23.85,9.67,42.12,42.12,0,0,1,16,19.85c3.16,8.14,2.69,18.92-.64,25.66l11.19.93c3.77-12.57-.33-28-9.38-37.84a55.54,55.54,0,0,0-41-18.31"/></g><rect class="cls-6" x="126.95" y="196.95" width="118.64" height="84.66" rx="10.36"/><path class="cls-5" d="M245.59,215.84c0,.18-26.68.31-59.57.31s-59.58-.13-59.58-.31,26.66-.32,59.58-.32S245.59,215.67,245.59,215.84Z"/><path class="cls-5" d="M325,287.21c0,.17-35.61.32-79.52.32s-79.52-.15-79.52-.32,35.6-.31,79.52-.31S325,287.05,325,287.21Z"/><path class="cls-10" d="M325,281.61a13.68,13.68,0,0,0,2.87-7.1c.25-4-1.57-8.95-5.85-8.95h-54.7a16,16,0,0,0-16,16.05H325Z"/><path class="cls-9" d="M397.15,224.19l-9.52-19.84a12.07,12.07,0,0,1,4.83-15.51l28.45-17a9.57,9.57,0,0,1,4.92-1.36H432l2.42,40.1-9.47,3.66,6,9.75Z"/><path class="cls-2" d="M432.06,172s9.73,2.24,10.95,17.23-8.59,19.69-8.59,19.69Z"/><path class="cls-5" d="M400.47,196.58s-19.67,9.32-22.08,10.86c-1.66,1.07-3.09,2.93-1.78,6.2,2.22,5.57,11.42.32,11.42.32l18.32-9.15s7-3.32,4.43-7.49C407.87,192.66,400.47,196.58,400.47,196.58Z"/><path class="cls-7" d="M372.62,193.18s18.49,3.17,20.06,3.63,7.73,3.34,8,5.22a57.57,57.57,0,0,1,0,7.43s-1.11.91-1.81-.9a19,19,0,0,1-.59-5.41l-3.46-1.33,1.89,3.34.31,7.85s-2.41-.22-2.87-2.1a18.23,18.23,0,0,1-.46-4l-2.52-2.14,1.88,2.55.64,5.65s-1.84.59-2.42-.66a19.55,19.55,0,0,1-.62-5l-7.1-2.48-4.7,2.62-7.39-4.1Z"/><path class="cls-5" d="M401.41,167.44c0,7.48-3.44,13.55-7.68,13.55s-7.68-6-7.68-13.55,3.43-13.55,7.68-13.55S401.41,159.93,401.41,167.44Z"/><path class="cls-5" d="M395,176.75l4.22,14.63a3.78,3.78,0,0,0,2-4.32c-1.06-5-1.67-8.57-2.83-13-.14-.43-3.36,2.66-3.36,2.66"/><g class="cls-11"><path d="M311.41,353.82c-.41-1.2-.84-2.41-1.21-3.7s-.82-2.42-1.13-3.63A38.14,38.14,0,0,1,308,341c-7.13,29,3.75,49.43,22.42,50.87,27.29,2.1,60.56,3.62,74,.09C429,385.5,438,365,440.11,361.67s21.65-39,9.66-73.36S417,217.53,417,217.53l-19.84,6.66s3.62,16.91,9.38,37.24c6.34,22.31,14.82,57.19,14.33,77.6a61.55,61.55,0,0,1-11.38,34.16H319.33s-1.93-1.93-7.88-19.32"/></g><path class="cls-9" d="M120.14,338.38l.64-6.88,164.56,18.95a16.25,16.25,0,0,1,14.24,18.05c0,.31-.08.62-.14.94l-.73,4.16L128.44,348.86A9.65,9.65,0,0,1,120.14,338.38Z"/><g class="cls-12"><path d="M121.22,339.2l.64-6.88,164.57,18.95a16.26,16.26,0,0,1,14.25,18c0,.31-.08.63-.14.95l-.73,4.16L129.54,349.67A9.66,9.66,0,0,1,121.22,339.2Z"/></g><g class="cls-13"><path d="M440.11,384.41s36.23-39.85,43.7-71.17a70.19,70.19,0,0,1,11.22.83S473.61,372.31,440.11,384.41Z"/></g><path class="cls-5" d="M483.28,299.21a4.78,4.78,0,0,1,.19,1c.1.66.29,1.64.42,2.91a44.44,44.44,0,0,1-.28,10.87,55,55,0,0,1-4.83,15.31,173.19,173.19,0,0,1-9.59,17.14A227.54,227.54,0,0,1,448,375.11c-2.94,3.49-5.38,6.27-7.07,8.18l-2,2.18a8.27,8.27,0,0,1-.71.74,5.43,5.43,0,0,1,.62-.81l1.87-2.27,6.92-8.3a248.19,248.19,0,0,0,21-28.71,185.91,185.91,0,0,0,9.66-17.06,56.15,56.15,0,0,0,4.83-15.15,48.67,48.67,0,0,0,.47-10.72c-.08-1.27-.24-2.25-.29-2.92A5.38,5.38,0,0,1,483.28,299.21Z"/><path class="cls-5" d="M420.66,384.12a48.15,48.15,0,0,1-5.81-5.24,48.9,48.9,0,0,1-5.36-5.69A96.91,96.91,0,0,1,420.66,384.12Z"/><path class="cls-5" d="M313.14,382.9a16.57,16.57,0,0,1,2.67-5.16,16.93,16.93,0,0,1,3.8-4.38c.13.13-1.52,2.11-3.28,4.73S313.31,383,313.14,382.9Z"/><path class="cls-5" d="M243.54,405.9a23.87,23.87,0,0,0,4.93-6.28,21.42,21.42,0,0,0,2.42-8.27,19.2,19.2,0,0,0-8.67-18.11,21.53,21.53,0,0,0-7.95-3.32,24.29,24.29,0,0,0-8-.11,2.49,2.49,0,0,1,.53-.16,14.57,14.57,0,0,1,1.6-.31,19.09,19.09,0,0,1,5.94.14,21.62,21.62,0,0,1,8.19,3.28,19.52,19.52,0,0,1,8.92,18.7,21.64,21.64,0,0,1-2.61,8.45,18.49,18.49,0,0,1-3.62,4.71,11,11,0,0,1-1.21,1.05A1.83,1.83,0,0,1,243.54,405.9Z"/><path class="cls-5" d="M183.41,393.29a26.32,26.32,0,0,1-.59-5.8,27.24,27.24,0,0,1,0-5.85,54.73,54.73,0,0,1,.56,11.65Z"/><path class="cls-5" d="M187.81,393.3a56,56,0,0,1-1.49-11.67,28.6,28.6,0,0,1,1.05,5.8A28.12,28.12,0,0,1,187.81,393.3Z"/><path class="cls-5" d="M255.68,281.61c0,.17-20,.32-44.68.32s-44.68-.15-44.68-.32,20-.31,44.68-.31S255.68,281.43,255.68,281.61Z"/><path class="cls-5" d="M190.89,281.55c-.18,0-.32-22.94-.32-51.17s.09-51.13.32-51.13.31,22.94.31,51.19S191.06,281.55,190.89,281.55Z"/><path class="cls-5" d="M178.58,281.47c-.17,0,.69-23,1.92-51.15s2.42-51.14,2.54-51.13-.68,22.94-1.91,51.15S178.81,281.48,178.58,281.47Z"/><path class="cls-10" d="M150.92,421.12a3.38,3.38,0,0,1-.53-.54c-.32-.37-.84-.89-1.41-1.62a46.31,46.31,0,0,1-4.45-6.55,50,50,0,0,1,.2-50.09,45.4,45.4,0,0,1,4.51-6.5c.58-.74,1.1-1.21,1.42-1.62s.52-.55.53-.52a2.85,2.85,0,0,1-.43.6c-.29.4-.79.93-1.33,1.69a51.69,51.69,0,0,0-.25,62.83c.53.76,1,1.3,1.3,1.7A4.5,4.5,0,0,1,150.92,421.12Z"/><path class="cls-6" d="M323.91,329.12l-.37.7-7.3,13.65-10.19,9.81,20.37,27.12,17-2.81s-1.9-3.88-10.42-4.63l-3.23-16.2,12-18.55"/><polygon class="cls-4" points="306.07 353.32 326.44 380.44 343.41 377.62 341.08 375.39 327.16 376.91 308.25 351.23 306.07 353.32"/><path class="cls-5" d="M331.64,365.55c-.1.19-1.21-.21-2.42.06s-2.18.95-2.34.81.6-1.28,2.2-1.56S331.77,365.39,331.64,365.55Z"/><path class="cls-5" d="M330.73,361.59c-.14.14-1.07-.73-2.41-.78s-2.42.77-2.53.61.09-.38.52-.73a3.21,3.21,0,0,1,2-.62,3.07,3.07,0,0,1,2,.76A1.28,1.28,0,0,1,330.73,361.59Z"/><path class="cls-5" d="M330,356.33c-.17.14-.92-.74-2.16-1s-2.25.35-2.42.17.11-.35.56-.61a3,3,0,0,1,3.62.66C330,356,330,356.29,330,356.33Z"/><path class="cls-5" d="M333.81,351.56c-.18.1-.82-.78-2-1.29s-2.23-.43-2.28-.64,1.2-.7,2.59,0S334,351.5,333.81,351.56Z"/><path class="cls-5" d="M335.45,347.71c-.08.06-.74-.52-1.77-1.53l-1.74-1.8a5.33,5.33,0,0,1-1-1.21,1.37,1.37,0,0,1-.08-1.05,1.06,1.06,0,0,1,.93-.7,3.07,3.07,0,0,1,1.73.56,6.44,6.44,0,0,1,1.21,1,5.86,5.86,0,0,1,1.29,2.31,3.15,3.15,0,0,1,0,2.41,16.84,16.84,0,0,0-.51-2.21,5.94,5.94,0,0,0-1.29-2,5.67,5.67,0,0,0-1.1-.85,2.76,2.76,0,0,0-1.28-.44.31.31,0,0,0-.29.2.72.72,0,0,0,0,.5,5.42,5.42,0,0,0,.85,1.06l1.65,1.92A7.12,7.12,0,0,1,335.45,347.71Z"/><path class="cls-5" d="M336.14,348.11c-.08,0-.17-.89.58-2.06a4.29,4.29,0,0,1,4.83-1.75.77.77,0,0,1,.36.56.94.94,0,0,1-.12.57,2.29,2.29,0,0,1-.52.64,7.55,7.55,0,0,1-1.08.88,7.38,7.38,0,0,1-2.13,1,3.43,3.43,0,0,1-2.12.16c0-.12.78-.19,1.95-.67a8.2,8.2,0,0,0,1.9-1.05,7,7,0,0,0,1-.84,1.82,1.82,0,0,0,.38-.45c.06-.17,0-.12,0-.15a1.19,1.19,0,0,0-.52-.11,3.42,3.42,0,0,0-.64,0,4,4,0,0,0-1.21.29,4.19,4.19,0,0,0-1.68,1.2A16.93,16.93,0,0,0,336.14,348.11Z"/><path class="cls-4" d="M319.53,350.55a2,2,0,1,1-2.35-1.68h0A2.06,2.06,0,0,1,319.53,350.55Z"/><path class="cls-6" d="M385.74,342.16l5.44,35.35,44-6.54c-.89-4.17-24.92-9.23-24.92-9.23L407.74,339Z"/><path class="cls-4" d="M396.4,361.87a1.8,1.8,0,0,0-.94,2.23,1.75,1.75,0,0,0,2.21.95,1.91,1.91,0,0,0,1-2.41,1.8,1.8,0,0,0-2.41-.74"/><path class="cls-4" d="M391.18,377.51l-.41-3.62L433.14,369s2.09.57,2.08,2Z"/><path class="cls-5" d="M411,361.42c0,.22-1,.47-2,1.31s-1.38,1.84-1.59,1.79-.08-1.35,1.1-2.35S411,361.21,411,361.42Z"/><path class="cls-5" d="M415.88,362.64c.08.2-.8.7-1.39,1.72s-.67,2-.88,2-.54-1.2.23-2.41S415.84,362.43,415.88,362.64Z"/><path class="cls-5" d="M419.33,367.77c-.19.08-.65-.95-.28-2.21s1.32-1.88,1.44-1.71-.41.89-.71,1.93S419.54,367.72,419.33,367.77Z"/><path class="cls-5" d="M409.81,356.29c0,.2-1.08.06-2.29.31s-2.09.8-2.23.63.66-1.08,2.07-1.37S409.9,356.09,409.81,356.29Z"/><path class="cls-5" d="M408,351.21a4.1,4.1,0,0,1-2.21.32,10.41,10.41,0,0,1-2.42-.36,11.56,11.56,0,0,1-1.41-.45,2.58,2.58,0,0,1-.74-.42.93.93,0,0,1-.26-1.13,1.23,1.23,0,0,1,.86-.64,3,3,0,0,1,.84,0,7.26,7.26,0,0,1,1.45.27,7.79,7.79,0,0,1,2.23,1c1.21.79,1.63,1.54,1.56,1.6s-.69-.52-1.84-1.15a8.56,8.56,0,0,0-2.13-.8,6,6,0,0,0-1.33-.21c-.49,0-.88,0-1,.23s0,.11.09.24a1.78,1.78,0,0,0,.54.3,11.54,11.54,0,0,0,1.27.5,12.3,12.3,0,0,0,2.26.49A16.46,16.46,0,0,1,408,351.21Z"/><path class="cls-5" d="M407.76,351.56a3.8,3.8,0,0,1-.9-2,7,7,0,0,1,0-2.41,7.88,7.88,0,0,1,.36-1.43,1.84,1.84,0,0,1,1.21-1.31,1,1,0,0,1,1,.47,3.21,3.21,0,0,1,.35.78,5.1,5.1,0,0,1-.39,3.9c-.68,1.21-1.54,1.66-1.57,1.59a8.88,8.88,0,0,0,1.09-1.82,5,5,0,0,0,.39-2.17,4.25,4.25,0,0,0-.23-1.27c-.14-.46-.36-.81-.53-.73a1.55,1.55,0,0,0-.67.83,7,7,0,0,0-.37,1.28,8.14,8.14,0,0,0-.1,2.26C407.52,350.72,407.87,351.52,407.76,351.56Z"/><polyline class="cls-5" points="351.09 259.1 313.33 341.38 338.27 356.36 390.48 257.35"/><path class="cls-5" d="M413.36,358.23l-27.08,4.35L370.06,265.8l-80.12,5.81a19.37,19.37,0,0,1-6.3-.59c-22.5-6.17-19.46-34.86-17.28-39.46l110.86-3.18a23.61,23.61,0,0,1,24.06,20.33Z"/><path class="cls-6" d="M265.24,236.1l.39-40.91s-5.27-26.57-6.84-37.06c-2.42-16.23-5.75-23.95,20.84-35.48l5.82-2.25,9,.13c10.72.8,22,10.5,22.29,16.9l10.37,92.22Z"/><path class="cls-6" d="M266.9,132.15s-7.51,16.16-6,30.88l28,26.86c6.27,7,14.12,10,24.15,10.55l57.89,6.33,1.61-15.14-55-15.61c-2.2-.41-3.3-2.69-5-4.16L266.9,132.15"/><path class="cls-5" d="M262.37,136.81a3.92,3.92,0,0,1,1.11-.74,13.7,13.7,0,0,1,3.75-1,19.28,19.28,0,0,1,6.25,0,6.35,6.35,0,0,1,1.84.62,18.65,18.65,0,0,1,1.7,1.21c1.11.87,2.23,1.87,3.38,3,2.32,2.16,4.52,4.9,7.09,7.68s5.39,5.76,8.45,8.89,6.37,6.4,9.89,9.78c1.78,1.69,3.63,3.4,5.55,5.08,1,.8,1.94,1.74,2.87,2.62a7,7,0,0,0,3.2,1.89h0l55.15,15.57.25.08v.26c-.11,1.08-.24,2.22-.36,3.39-.42,4-.85,8-1.21,11.75v.32H371l-24.54-2.73-11.59-1.27L323.74,202c-3.62-.4-7.11-.81-10.51-1.31a47.22,47.22,0,0,1-9.73-2.25,36,36,0,0,1-8.19-4.41c-2.41-1.7-4.68-3.48-6.77-5.23-8.27-7.05-14.34-13.37-18.56-17.67-2.09-2.16-3.69-3.86-4.77-5L264,164.78l-.4-.47s.16.13.45.42.71.74,1.21,1.3l4.83,4.95c4.26,4.23,10.38,10.5,18.67,17.49,2.09,1.73,4.32,3.49,6.75,5.17a36.13,36.13,0,0,0,8.11,4.33,47.76,47.76,0,0,0,9.66,2.19c3.4.49,6.9.9,10.5,1.28l11.09,1.09,11.6,1.27L371,206.47l-.35.27c.4-3.74.82-7.72,1.21-11.76.13-1.21.25-2.32.36-3.39l.23.34-55.07-15.64h0a7.31,7.31,0,0,1-3.52-2c-1-.93-1.86-1.8-2.86-2.63-2-1.69-3.77-3.42-5.55-5.11-3.52-3.39-6.81-6.69-9.86-9.83s-5.86-6.14-8.45-9-4.73-5.54-7-7.7a40.48,40.48,0,0,0-3.33-3,15.08,15.08,0,0,0-1.67-1.21,5.79,5.79,0,0,0-1.75-.61,18.52,18.52,0,0,0-6.17-.1,13.73,13.73,0,0,0-3.73.95A8.75,8.75,0,0,0,262.37,136.81Z"/><path class="cls-7" d="M276.83,84.91l2.8,39.85A12.42,12.42,0,0,0,292,136.3h0a12.42,12.42,0,0,0,12.41-12.42c0-.27,0-.54,0-.81-.26-3.79-.47-6.89-.47-6.89s9.66-1.5,9.75-11.15c.08-5.56-.89-18.2-1.71-27.88a12.65,12.65,0,0,0-12.64-11.57H293.5a17.84,17.84,0,0,0-16.71,18.87C276.8,84.61,276.81,84.76,276.83,84.91Z"/><path class="cls-14" d="M304,116a22.54,22.54,0,0,1-12.57-3.56s3,6.93,12.59,6Z"/><path class="cls-5" d="M309.82,89.53a1.39,1.39,0,0,1-1.33,1.39,1.31,1.31,0,0,1-1.42-1.18v0a1.39,1.39,0,0,1,1.33-1.4A1.33,1.33,0,0,1,309.82,89.53Z"/><path class="cls-5" d="M310.32,86.81c-.18.18-1.2-.59-2.7-.59s-2.56.75-2.73.57.1-.41.58-.75a3.7,3.7,0,0,1,2.17-.68,3.66,3.66,0,0,1,2.15.7C310.2,86.4,310.4,86.73,310.32,86.81Z"/><path class="cls-5" d="M295.91,89.53a1.37,1.37,0,0,1-1.33,1.39,1.3,1.3,0,0,1-1.42-1.18v0a1.39,1.39,0,0,1,1.33-1.4A1.33,1.33,0,0,1,295.91,89.53Z"/><path class="cls-5" d="M295.71,87.09c-.17.18-1.2-.59-2.7-.59s-2.56.75-2.72.56.09-.41.57-.74a3.7,3.7,0,0,1,2.17-.68,3.54,3.54,0,0,1,2.15.69C295.71,86.68,295.85,87,295.71,87.09Z"/><path class="cls-5" d="M301.14,98.08a9.85,9.85,0,0,1,2.41-.44c.37,0,.74-.12.8-.37a1.81,1.81,0,0,0-.26-1.13L303,93.27a48.91,48.91,0,0,1-2.51-7.53,52.14,52.14,0,0,1,3.11,7.3l1.07,2.9a2.17,2.17,0,0,1,.2,1.48.93.93,0,0,1-.63.56,2.74,2.74,0,0,1-.64.08A9.8,9.8,0,0,1,301.14,98.08Z"/><path class="cls-5" d="M296.78,99.1c.24,0,.24,1.6,1.61,2.73s3.1,1,3.11,1.21-.39.3-1.11.33a4,4,0,0,1-2.59-.91,3.52,3.52,0,0,1-1.21-2.29C296.49,99.55,296.67,99.09,296.78,99.1Z"/><path class="cls-5" d="M296.14,81.28c-.15.4-1.62.22-3.36.42s-3.15.69-3.38.33.14-.56.71-.94a5.82,5.82,0,0,1,5.13-.57C295.88,80.77,296.21,81.09,296.14,81.28Z"/><path class="cls-5" d="M309.77,82.52c-.25.34-1.28,0-2.5,0s-2.27.22-2.51-.13.06-.51.52-.82a3.43,3.43,0,0,1,2-.56,3.56,3.56,0,0,1,2,.68C309.75,82,309.89,82.35,309.77,82.52Z"/><path class="cls-7" d="M280.08,92.16c-.17-.07-6.63-2-6.42,4.62s6.78,5,6.79,4.83S280.08,92.16,280.08,92.16Z"/><path class="cls-14" d="M278.35,99.19a2.68,2.68,0,0,1-.3.18,1.27,1.27,0,0,1-.86,0,2.84,2.84,0,0,1-1.39-2.5,3.92,3.92,0,0,1,.27-1.66,1.33,1.33,0,0,1,.83-.91.59.59,0,0,1,.69.3c.09.18.06.31.09.33s.14-.13.08-.39a.7.7,0,0,0-.28-.41.87.87,0,0,0-.64-.15,1.59,1.59,0,0,0-1.21,1.07,3.87,3.87,0,0,0-.34,1.84,3,3,0,0,0,1.77,2.79,1.21,1.21,0,0,0,1-.2C278.35,99.34,278.37,99.2,278.35,99.19Z"/><path class="cls-5" d="M276.39,91.93a3.48,3.48,0,0,1,3.18,1.63c.42.94.52,2,.94,3a2.42,2.42,0,0,0,2.42,1.55,2,2,0,0,0,1.37-1.5,5.45,5.45,0,0,0,0-2.13c-.38-3.08-1-6.12-1.15-9.23a15.74,15.74,0,0,1,2-9,8.61,8.61,0,0,1,7.7-4.33c2.06.17,3.93,1.21,6,1.52a8.08,8.08,0,0,0,6.69-2.23,12,12,0,0,1,1.21-.91,3.8,3.8,0,0,0-.69-2c-4.05-3.74-11.32-4.83-16.65-3.44a19.21,19.21,0,0,0-12.62,10.11c-2.3,5-1.62,11.94-.35,17"/><path class="cls-6" d="M312.09,75.65s-25.29-8.14-36.23,13.74a41.13,41.13,0,0,1-1.64-8.45c0-2,1.21-13.63,13.19-17.3C287.41,63.69,305.51,56.78,312.09,75.65Z"/><path class="cls-5" d="M290.35,76.2A5.51,5.51,0,0,0,297.93,78a5.36,5.36,0,0,0,1.19-1,3.23,3.23,0,0,0,6.12-.31,7.51,7.51,0,0,0,2.42,1.8,2.52,2.52,0,0,0,2.81-.59,2.42,2.42,0,0,0-.18-2.9,6,6,0,0,0-2.56-1.73,18.7,18.7,0,0,0-9.54-1.45,12.9,12.9,0,0,0-8.37,4.56"/><g class="cls-11"><path d="M312.09,75.65a11.8,11.8,0,0,0-8-3.62c-7.47-.33-21.43,3.86-28.19,17.39A41.26,41.26,0,0,1,274.22,81c0-2,1.21-13.64,13.19-17.31C287.41,63.69,305.51,56.78,312.09,75.65Z"/></g><path class="cls-9" d="M276.91,86.83a47.65,47.65,0,0,1,14.73-14.1c5.82-3.62,15.44-7.24,22.05-9a14.36,14.36,0,0,1,6.1-.64,5.49,5.49,0,0,1,4.52,3.69c.63,2.5-3.81,6.35-5.89,7.86a66.21,66.21,0,0,1-6.33,3.75s.06-4.64-7.36-5.6C294.65,71.52,276.91,86.83,276.91,86.83Z"/><g class="cls-13"><path d="M268,169c2.61,6.29,5.24,14.05,9,19.72s8.83,10.7,15.11,13.28c7.9,3.31,17.23,3.84,25.08.46.64-.28,1.9-.63,1.77-1.32,0,0-2.59-.3-3.4-.43-15.86-2.63-17.58-4.57-25.18-10.6-4.73-3.74-15.22-15.05-22.4-21.11"/></g><path class="cls-5" d="M318.44,214.82a6.76,6.76,0,0,1-.66,1.48,19.11,19.11,0,0,1-2.56,3.62A27.76,27.76,0,0,1,303,227.39a55.85,55.85,0,0,1-14.3,2.14c-1.85.07-3.34.08-4.37.08a8.68,8.68,0,0,1-1.61-.07,7.2,7.2,0,0,1,1.6-.18l4.36-.28a62.76,62.76,0,0,0,14.14-2.29,28.84,28.84,0,0,0,12.15-7.25A31.24,31.24,0,0,0,318.44,214.82Z"/><path class="cls-10" d="M386.75,365.46a1.56,1.56,0,0,1-.1-.37,7.62,7.62,0,0,0-.21-1.11c-.18-1-.45-2.42-.78-4.28-.66-3.76-1.59-9.14-2.75-15.77-2.26-13.35-5.37-31.74-8.81-52.05-1.54-9.21-3-18-4.34-26l.31.26-34.66,2.5-10,.67-2.66.16h-.69l.69-.08,2.64-.25,9.94-.84L370,265.5h.26v.27c1.35,8,2.84,16.82,4.38,26,3.37,20.32,6.42,38.73,8.64,52.09,1.06,6.64,1.93,12.08,2.55,15.8l.65,4.31c.07.46.12.83.16,1.11A1.63,1.63,0,0,1,386.75,365.46Z"/><path class="cls-10" d="M378.19,257.18c.11.15-2,2-4.4,4.4s-4.17,4.58-4.32,4.45a28.76,28.76,0,0,1,8.72-8.85Z"/><path class="cls-5" d="M304.17,123.91a2,2,0,0,1,.14.39,5.62,5.62,0,0,1,.23,1.21,10,10,0,0,1-.58,4.4,11.28,11.28,0,0,1-4,5.21,12,12,0,0,1-7.74,2.08,14,14,0,0,1-7.53-2.82,16,16,0,0,1-4.27-5,16.81,16.81,0,0,1-1.64-4.11,10.41,10.41,0,0,1-.25-1.2,1.46,1.46,0,0,1,0-.43,26.9,26.9,0,0,0,2.29,5.48,16.44,16.44,0,0,0,4.23,4.75,13.73,13.73,0,0,0,7.25,2.66,11.77,11.77,0,0,0,7.38-1.92,11.1,11.1,0,0,0,3.89-4.91,10.45,10.45,0,0,0,.76-4.21C304.26,124.49,304.17,123.93,304.17,123.91Z"/><path class="cls-5" d="M321.2,176.64a5.56,5.56,0,0,1-.26-1.21c-.13-1-.29-2.11-.48-3.45-.4-3.08-.92-7-1.49-11.42s-1-8.46-1.21-11.45c-.13-1.46-.21-2.66-.26-3.48a4.57,4.57,0,0,1,0-1.28,6.19,6.19,0,0,1,.25,1.21c.13.95.29,2.1.47,3.45.39,3.08.88,7,1.43,11.42s1,8.46,1.3,11.44c.13,1.47.23,2.66.29,3.49A5,5,0,0,1,321.2,176.64Z"/></g><g id="Logo"><g id="Group"><path id="Vector" class="cls-9" d="M136.42,266.77l1-1.31a.8.8,0,0,0,.2-.69,1,1,0,0,0-.39-.63.66.66,0,0,0-.54-.16,1,1,0,0,0-.51.37l-.95,1.2-1.05-1.1a1.29,1.29,0,0,0-.8-.45.78.78,0,0,0-.69.36,1,1,0,0,0-.25.72,1.25,1.25,0,0,0,.39.75l1.18,1.25-.46.57a1.06,1.06,0,0,0-.25.72.93.93,0,0,0,.39.65.66.66,0,0,0,.54.16.91.91,0,0,0,.51-.35l.43-.53,2.61,2.76a3.9,3.9,0,0,0,1.46,1,2.3,2.3,0,0,0,1.51,0,3,3,0,0,0,1.38-1,3.46,3.46,0,0,0,.27-.4,2,2,0,0,0,.2-.42,1,1,0,0,0,0-.58,1.51,1.51,0,0,0-.54-.65.82.82,0,0,0-.45-.22.35.35,0,0,0-.3.16,1,1,0,0,0-.16.29,1.62,1.62,0,0,1-.24.38,1.09,1.09,0,0,1-.88.47,1.67,1.67,0,0,1-1.16-.66l-2.52-2.66Z"/><path id="Vector_2" data-name="Vector 2" class="cls-9" d="M142.56,259.18a2.54,2.54,0,0,0-1.69-.12,3.21,3.21,0,0,0-1.61,1.19,7,7,0,0,0-.72,1.14,5.41,5.41,0,0,0-.47,1.37,1.16,1.16,0,0,0,0,.65.83.83,0,0,0,.31.42.76.76,0,0,0,.45.15.64.64,0,0,0,.42-.15.86.86,0,0,0,.27-.47,4.21,4.21,0,0,1,.32-1,4.12,4.12,0,0,1,.54-.86,1.49,1.49,0,0,1,1.11-.68,1.64,1.64,0,0,1,1.14.62l.22.23-.68.84a8.67,8.67,0,0,0-1.29,2.09,2.71,2.71,0,0,0-.21,1.63,2.33,2.33,0,0,0,.89,1.29,2.51,2.51,0,0,0,1.27.56,2.72,2.72,0,0,0,1.33-.12,2.32,2.32,0,0,0,1.08-.78,2.56,2.56,0,0,0,.47-.93,2.43,2.43,0,0,0,0-1.11,3.23,3.23,0,0,0-.2-.65l.12.13a1.34,1.34,0,0,0,.8.47.72.72,0,0,0,.64-.3,1,1,0,0,0,.23-.74,1.34,1.34,0,0,0-.43-.78l-2.75-2.88a4.85,4.85,0,0,0-1.63-1.19Zm2.17,4.73a2.07,2.07,0,0,1,.11,1,1.8,1.8,0,0,1-.38.86,1.29,1.29,0,0,1-.82.49,1.23,1.23,0,0,1-1-.31,1.07,1.07,0,0,1-.43-.64,1.38,1.38,0,0,1,.19-.85,8,8,0,0,1,.83-1.21l.51-.64.35.38A2.73,2.73,0,0,1,144.73,263.91Z"/><path id="Vector_3" data-name="Vector 3" class="cls-9" d="M146.79,251.25a.68.68,0,0,0-.55.29,1.1,1.1,0,0,0-.24.56,3.36,3.36,0,0,0,0,.74l.58,4.36,0,0-4-4.35a1.52,1.52,0,0,0-.84-.5.71.71,0,0,0-.68.31,1.08,1.08,0,0,0-.28.76,1.33,1.33,0,0,0,.4.78l6.88,7.33a1.41,1.41,0,0,0,.81.48.73.73,0,0,0,.68-.31,1,1,0,0,0-.13-1.54l-2.1-2.22,0,0,4,.19a3.38,3.38,0,0,0,.82,0,.91.91,0,0,0,.56-.36.81.81,0,0,0,.18-.62.92.92,0,0,0-.32-.56,1,1,0,0,0-.7-.27l-3.65-.22-.56-3.87a1.17,1.17,0,0,0-.32-.69.85.85,0,0,0-.57-.27Z"/><path id="Vector_4" data-name="Vector 4" class="cls-9" d="M154,246.19a3.77,3.77,0,0,0-1.43-.5,2.73,2.73,0,0,0-1.41.17,3.17,3.17,0,0,0-1.29,1,3.66,3.66,0,0,0-.83,2.13,4.53,4.53,0,0,0,.48,2.3,6.09,6.09,0,0,0,1.7,2,4.41,4.41,0,0,0,1.91.93,3.38,3.38,0,0,0,1.89-.18,4,4,0,0,0,1.64-1.27,5.66,5.66,0,0,0,.7-1.2,3.59,3.59,0,0,0,.34-1.39,1.07,1.07,0,0,0-.13-.55,1,1,0,0,0-.35-.37.9.9,0,0,0-.42-.13.5.5,0,0,0-.37.17.75.75,0,0,0-.2.51,3,3,0,0,1-.26.95,4.65,4.65,0,0,1-.52.83,2,2,0,0,1-1.66.87,2.42,2.42,0,0,1-1.48-.65l3.1-3.89a.49.49,0,0,0-.1-.81,6.72,6.72,0,0,0-1.3-1Zm-3.15,3.91a2.49,2.49,0,0,1-.25-1.15,1.89,1.89,0,0,1,.44-1.12,1.55,1.55,0,0,1,.92-.62,1.71,1.71,0,0,1,1,.15,3,3,0,0,1,.82.57l-2.4,3A4.62,4.62,0,0,1,150.89,250.1Z"/><path id="Vector_5" data-name="Vector 5" class="cls-9" d="M162.22,240.07a9.87,9.87,0,0,0-.7-1,.62.62,0,0,0-.51-.31.74.74,0,0,0-.63.72,1,1,0,0,0,.2.49c.21.28.38.51.52.72a5.21,5.21,0,0,1,.34.59l.15.34-2-.13a6.53,6.53,0,0,0,0-.88,3.5,3.5,0,0,0-.21-1.14,2.19,2.19,0,0,0-.71-.93,1.75,1.75,0,0,0-1.35-.42,1.82,1.82,0,0,0-1.22.73,2.58,2.58,0,0,0-.54,1.18,2.33,2.33,0,0,0,.15,1.22,2.43,2.43,0,0,0,.8,1.05,2.56,2.56,0,0,0,.8.43,2.92,2.92,0,0,0,.76.16,5.84,5.84,0,0,0,0,.93,3.93,3.93,0,0,0,.13.92,3.13,3.13,0,0,0,.36.84,2.82,2.82,0,0,0,.64.7,2.1,2.1,0,0,0,1.07.47,2.06,2.06,0,0,0,1.13-.21,3.16,3.16,0,0,0,1-.87,3.36,3.36,0,0,0,.66-1.37,4.12,4.12,0,0,0,.08-1.22l.9.06a.58.58,0,0,0,.38-.09.85.85,0,0,0,.41-.72.7.7,0,0,0-.23-.45.8.8,0,0,0-.56-.2l-1.17-.05c-.08-.24-.16-.47-.24-.67A6.47,6.47,0,0,0,162.22,240.07Zm-3.88,0a1.72,1.72,0,0,1,.12.68,4.25,4.25,0,0,1-.06.67l-.32,0a1.38,1.38,0,0,1-.39-.11,1.19,1.19,0,0,1-.3-.18,1.11,1.11,0,0,1-.45-.67.9.9,0,0,1,.2-.72.68.68,0,0,1,.4-.26.54.54,0,0,1,.43.14A1.25,1.25,0,0,1,158.34,240.09Zm1.21,4.27a2.36,2.36,0,0,1-.14-.71,5.61,5.61,0,0,1,0-.71l2.51.14a2.53,2.53,0,0,1,0,.68,2,2,0,0,1-.42.88,1.33,1.33,0,0,1-.75.53A.89.89,0,0,1,160,245,1.55,1.55,0,0,1,159.55,244.36Z"/><path id="Vector_6" data-name="Vector 6" class="cls-9" d="M165.52,227.88a.73.73,0,0,0-.67.3,1.11,1.11,0,0,0-.26.75,1.28,1.28,0,0,0,.4.78l.39.4a2.41,2.41,0,0,0-1.45-.06,2.76,2.76,0,0,0-1.37.94,3.3,3.3,0,0,0-.68,1.52,3.87,3.87,0,0,0,.1,1.65,5.24,5.24,0,0,0,.78,1.62,6.86,6.86,0,0,0,1.34,1.41,4.37,4.37,0,0,0,1.72.89,2.89,2.89,0,0,0,1.63-.07,3.06,3.06,0,0,0,1.34-1,2.9,2.9,0,0,0,.64-1.54,2.79,2.79,0,0,0-.19-1.33l.91,1a2.42,2.42,0,0,1,.74,1.54,2.29,2.29,0,0,1-.57,1.48,3.57,3.57,0,0,1-.88.81,4.71,4.71,0,0,1-1.05.53.76.76,0,0,0-.42.32.6.6,0,0,0-.06.45.87.87,0,0,0,.21.43.94.94,0,0,0,.42.28.83.83,0,0,0,.56,0,5.23,5.23,0,0,0,1.42-.74,6.89,6.89,0,0,0,1.3-1.24,3.56,3.56,0,0,0,.88-2.69,4.8,4.8,0,0,0-1.46-2.72l-4.89-5.16a1.48,1.48,0,0,0-.82-.5Zm2.3,5a2.9,2.9,0,0,1,.46,1.36,1.8,1.8,0,0,1-.43,1.25,1.52,1.52,0,0,1-1.2.65,2.15,2.15,0,0,1-1.42-.56,4.63,4.63,0,0,1-1.1-1.21,3,3,0,0,1-.45-1.35,1.82,1.82,0,0,1,.41-1.24,1.56,1.56,0,0,1,1.21-.67,2.17,2.17,0,0,1,1.42.56A4.82,4.82,0,0,1,167.82,232.88Z"/><path id="Vector_7" data-name="Vector 7" class="cls-9" d="M175.31,229.45a3.69,3.69,0,0,1-1.58,1.22,3.07,3.07,0,0,1-1.83.11,4.69,4.69,0,0,1-1.89-.95,6.18,6.18,0,0,1-1.44-1.57,4.58,4.58,0,0,1-.69-1.72,3.86,3.86,0,0,1,.8-3.21,3.66,3.66,0,0,1,1.57-1.22,3.17,3.17,0,0,1,1.83-.12,4.59,4.59,0,0,1,1.89,1,6.4,6.4,0,0,1,1.45,1.57,4.94,4.94,0,0,1,.69,1.72,4.22,4.22,0,0,1,0,1.7A4,4,0,0,1,175.31,229.45ZM174,228.37a1.72,1.72,0,0,0,.4-1.23,3,3,0,0,0-.51-1.38,5.33,5.33,0,0,0-1.22-1.31,2.52,2.52,0,0,0-1.53-.65,1.5,1.5,0,0,0-1.2.61,1.75,1.75,0,0,0-.39,1.23,2.94,2.94,0,0,0,.5,1.38,5.71,5.71,0,0,0,1.22,1.31,2.51,2.51,0,0,0,1.53.65,1.46,1.46,0,0,0,1.2-.61Z"/></g></g></svg>