<svg xmlns="http://www.w3.org/2000/svg" viewBox="0 0 500 500"><defs><style>.cls-1{fill:#f5f5f5;}.cls-2{fill:#ebebeb;}.cls-3{fill:#e0e0e0;}.cls-4{fill:#fafafa;}.cls-5{fill:#fff;}.cls-6{fill:#263238;}.cls-7{fill:#422b7c;}.cls-8{fill:#eba900;}.cls-9{opacity:0.3;}.cls-10{fill:#455a64;}.cls-11{fill:#ffbf9d;}.cls-12{fill:#ff9a6c;}.cls-13{opacity:0.6;}.cls-14{opacity:0.8;}</style></defs><g id="Background_Complete" data-name="Background Complete"><rect class="cls-1" x="65.58" y="119.72" width="65.24" height="206.75"/><rect class="cls-2" x="98.2" y="119.72" width="32.62" height="206.19"/><rect class="cls-1" x="73.03" y="99.42" width="23.04" height="20.3"/><rect class="cls-2" x="90.57" y="99.42" width="5.49" height="20.3"/><polyline class="cls-3" points="60.14 119.72 60.14 118.54 132.72 118.54 132.72 119.72"/><rect class="cls-4" x="78.46" y="128.57" width="5.52" height="11.64"/><path class="cls-3" d="M98.2,144.79c0,.12-7.31.22-16.31.22s-16.31-.1-16.31-.22,7.3-.22,16.31-.22S98.2,144.67,98.2,144.79Z"/><rect class="cls-3" x="111.36" y="128.57" width="5.52" height="11.64"/><path class="cls-3" d="M131.1,144.79c0,.12-7.3.22-16.31.22s-16.31-.1-16.31-.22,7.3-.22,16.31-.22S131.1,144.67,131.1,144.79Z"/><rect class="cls-3" x="111.36" y="151.69" width="5.52" height="11.64"/><path class="cls-3" d="M131.1,167.91c0,.12-7.3.22-16.31.22s-16.31-.1-16.31-.22,7.3-.23,16.31-.23S131.1,167.78,131.1,167.91Z"/><rect class="cls-3" x="111.36" y="175.51" width="5.52" height="11.64"/><path class="cls-3" d="M131.1,191.72c0,.12-7.3.22-16.31.22s-16.31-.1-16.31-.22,7.3-.22,16.31-.22S131.1,191.6,131.1,191.72Z"/><rect class="cls-3" x="111.36" y="199.32" width="5.52" height="11.64"/><path class="cls-3" d="M131.1,215.54c0,.12-7.3.22-16.31.22s-16.31-.1-16.31-.22,7.3-.23,16.31-.23S131.1,215.41,131.1,215.54Z"/><rect class="cls-3" x="111.36" y="222.46" width="5.52" height="11.64"/><path class="cls-3" d="M131.1,238.67c0,.12-7.3.22-16.31.22s-16.31-.1-16.31-.22,7.3-.22,16.31-.22S131.1,238.55,131.1,238.67Z"/><rect class="cls-3" x="111.36" y="245.68" width="5.52" height="11.64"/><rect class="cls-3" x="111.36" y="269.22" width="5.52" height="11.64"/><path class="cls-3" d="M131.1,261.9c0,.12-7.3.22-16.31.22s-16.31-.1-16.31-.22,7.3-.22,16.31-.22S131.1,261.78,131.1,261.9Z"/><rect class="cls-4" x="78.46" y="152.05" width="5.52" height="11.64"/><path class="cls-3" d="M98.2,168.26c0,.12-7.31.22-16.31.22s-16.31-.1-16.31-.22,7.3-.22,16.31-.22S98.2,168.14,98.2,168.26Z"/><rect class="cls-4" x="78.46" y="175.52" width="5.52" height="11.64"/><path class="cls-3" d="M98.2,191.73c0,.12-7.31.22-16.31.22s-16.31-.1-16.31-.22,7.3-.22,16.31-.22S98.2,191.61,98.2,191.73Z"/><rect class="cls-4" x="78.46" y="198.99" width="5.52" height="11.64"/><path class="cls-3" d="M98.2,215.2c0,.12-7.31.22-16.31.22s-16.31-.1-16.31-.22,7.3-.22,16.31-.22S98.2,215.08,98.2,215.2Z"/><rect class="cls-4" x="78.46" y="222.46" width="5.52" height="11.64"/><path class="cls-3" d="M98.2,238.67c0,.12-7.31.22-16.31.22s-16.31-.1-16.31-.22,7.3-.22,16.31-.22S98.2,238.55,98.2,238.67Z"/><rect class="cls-4" x="78.46" y="245.93" width="5.52" height="11.64"/><path class="cls-3" d="M98.2,262.14c0,.12-7.31.22-16.31.22s-16.31-.1-16.31-.22,7.3-.22,16.31-.22S98.2,262,98.2,262.14Z"/><rect class="cls-4" x="78.46" y="269.4" width="5.52" height="11.64"/><rect class="cls-1" x="19.43" y="178.35" width="46.87" height="148.56"/><rect class="cls-2" x="42.86" y="178.35" width="23.44" height="148.15"/><rect class="cls-1" x="24.78" y="163.77" width="16.55" height="14.58"/><rect class="cls-2" x="37.39" y="163.77" width="3.95" height="14.58"/><polyline class="cls-3" points="15.52 178.35 15.52 177.5 67.67 177.5 67.67 178.35"/><rect class="cls-4" x="28.68" y="184.71" width="3.97" height="8.37"/><path class="cls-3" d="M42.86,196.36c0,.09-5.24.16-11.71.16s-11.72-.07-11.72-.16,5.24-.16,11.72-.16S42.86,196.27,42.86,196.36Z"/><rect class="cls-3" x="52.32" y="184.71" width="3.97" height="8.37"/><path class="cls-3" d="M66.51,196.36c0,.09-5.25.16-11.72.16s-11.72-.07-11.72-.16,5.24-.16,11.72-.16S66.51,196.27,66.51,196.36Z"/><rect class="cls-3" x="52.32" y="201.32" width="3.97" height="8.37"/><path class="cls-3" d="M66.51,213c0,.09-5.25.16-11.72.16s-11.72-.07-11.72-.16,5.24-.16,11.72-.16S66.51,212.88,66.51,213Z"/><rect class="cls-3" x="52.32" y="218.43" width="3.97" height="8.37"/><path class="cls-3" d="M66.51,230.08c0,.09-5.25.16-11.72.16s-11.72-.07-11.72-.16,5.24-.16,11.72-.16S66.51,230,66.51,230.08Z"/><rect class="cls-3" x="52.32" y="235.55" width="3.97" height="8.37"/><path class="cls-3" d="M66.51,247.19c0,.09-5.25.16-11.72.16s-11.72-.07-11.72-.16,5.24-.15,11.72-.15S66.51,247.11,66.51,247.19Z"/><rect class="cls-3" x="52.32" y="252.17" width="3.97" height="8.37"/><path class="cls-3" d="M66.51,263.82c0,.09-5.25.16-11.72.16s-11.72-.07-11.72-.16,5.24-.16,11.72-.16S66.51,263.73,66.51,263.82Z"/><rect class="cls-3" x="52.32" y="268.86" width="3.97" height="8.37"/><rect class="cls-3" x="52.32" y="285.76" width="3.97" height="8.37"/><path class="cls-3" d="M66.51,280.51c0,.08-5.25.16-11.72.16s-11.72-.08-11.72-.16,5.24-.16,11.72-.16S66.51,280.42,66.51,280.51Z"/><rect class="cls-4" x="28.68" y="201.58" width="3.97" height="8.37"/><path class="cls-3" d="M42.86,213.23c0,.08-5.24.16-11.71.16s-11.72-.08-11.72-.16,5.24-.16,11.72-.16S42.86,213.14,42.86,213.23Z"/><rect class="cls-4" x="28.68" y="218.44" width="3.97" height="8.37"/><path class="cls-3" d="M42.86,230.09c0,.09-5.24.16-11.71.16s-11.72-.07-11.72-.16,5.24-.16,11.72-.16S42.86,230,42.86,230.09Z"/><rect class="cls-4" x="28.68" y="235.3" width="3.97" height="8.37"/><path class="cls-3" d="M42.86,247c0,.09-5.24.16-11.71.16S19.43,247,19.43,247s5.24-.16,11.72-.16S42.86,246.87,42.86,247Z"/><rect class="cls-4" x="28.68" y="252.17" width="3.97" height="8.37"/><path class="cls-3" d="M42.86,263.82c0,.09-5.24.16-11.71.16s-11.72-.07-11.72-.16,5.24-.16,11.72-.16S42.86,263.73,42.86,263.82Z"/><rect class="cls-4" x="28.68" y="269.03" width="3.97" height="8.37"/><path class="cls-3" d="M42.86,280.68c0,.09-5.24.16-11.71.16s-11.72-.07-11.72-.16,5.24-.16,11.72-.16S42.86,280.59,42.86,280.68Z"/><rect class="cls-4" x="28.68" y="285.9" width="3.97" height="8.37"/><rect class="cls-2" x="280.81" y="47.04" width="53.43" height="140.31"/><rect class="cls-3" x="307.53" y="47.04" width="26.72" height="140.31"/><rect class="cls-2" x="286.91" y="30.36" width="18.87" height="16.68"/><rect class="cls-3" x="301.29" y="30.36" width="4.5" height="16.68"/><rect class="cls-3" x="276.36" y="46.07" width="59.45" height="0.97"/><rect class="cls-5" x="291.36" y="54.31" width="4.52" height="9.57"/><path class="cls-3" d="M307.53,67.64c0,.1-6,.18-13.36.18s-13.36-.08-13.36-.18,6-.19,13.36-.19S307.53,67.54,307.53,67.64Z"/><rect class="cls-1" x="318.31" y="54.31" width="4.52" height="9.57"/><path class="cls-2" d="M334.48,67.64c0,.1-6,.18-13.36.18s-13.36-.08-13.36-.18,6-.19,13.36-.19S334.48,67.54,334.48,67.64Z"/><rect class="cls-1" x="318.31" y="73.31" width="4.52" height="9.57"/><path class="cls-2" d="M334.48,86.63c0,.1-6,.19-13.36.19s-13.36-.09-13.36-.19,6-.18,13.36-.18S334.48,86.53,334.48,86.63Z"/><rect class="cls-1" x="318.31" y="92.88" width="4.52" height="9.57"/><path class="cls-2" d="M334.48,106.2c0,.1-6,.18-13.36.18s-13.36-.08-13.36-.18,6-.18,13.36-.18S334.48,106.1,334.48,106.2Z"/><rect class="cls-1" x="318.31" y="112.45" width="4.52" height="9.57"/><path class="cls-2" d="M334.48,125.77c0,.1-6,.18-13.36.18s-13.36-.08-13.36-.18,6-.18,13.36-.18S334.48,125.67,334.48,125.77Z"/><rect class="cls-1" x="318.31" y="131.46" width="4.52" height="9.57"/><path class="cls-2" d="M334.48,144.78c0,.1-6,.18-13.36.18s-13.36-.08-13.36-.18,6-.18,13.36-.18S334.48,144.68,334.48,144.78Z"/><rect class="cls-1" x="318.31" y="150.54" width="4.52" height="9.57"/><rect class="cls-1" x="318.31" y="169.88" width="4.52" height="9.57"/><path class="cls-2" d="M334.48,163.86c0,.11-6,.19-13.36.19s-13.36-.08-13.36-.19,6-.18,13.36-.18S334.48,163.76,334.48,163.86Z"/><rect class="cls-5" x="291.36" y="73.6" width="4.52" height="9.57"/><path class="cls-3" d="M307.53,86.92c0,.1-6,.19-13.36.19s-13.36-.09-13.36-.19,6-.18,13.36-.18S307.53,86.82,307.53,86.92Z"/><rect class="cls-5" x="291.36" y="92.89" width="4.52" height="9.57"/><path class="cls-3" d="M307.53,106.21c0,.1-6,.18-13.36.18s-13.36-.08-13.36-.18,6-.18,13.36-.18S307.53,106.11,307.53,106.21Z"/><rect class="cls-5" x="291.36" y="112.17" width="4.52" height="9.57"/><path class="cls-3" d="M307.53,125.49c0,.1-6,.19-13.36.19s-13.36-.09-13.36-.19,6-.18,13.36-.18S307.53,125.39,307.53,125.49Z"/><rect class="cls-5" x="291.36" y="131.46" width="4.52" height="9.57"/><path class="cls-3" d="M307.53,144.78c0,.1-6,.18-13.36.18s-13.36-.08-13.36-.18,6-.18,13.36-.18S307.53,144.68,307.53,144.78Z"/><rect class="cls-5" x="291.36" y="150.74" width="4.52" height="9.57"/><path class="cls-3" d="M307.53,164.06c0,.11-6,.19-13.36.19s-13.36-.08-13.36-.19,6-.18,13.36-.18S307.53,164,307.53,164.06Z"/><rect class="cls-5" x="291.36" y="170.03" width="4.52" height="9.57"/><rect class="cls-3" x="143.46" y="205.82" width="63.09" height="120.12"/><rect class="cls-2" x="176.97" y="205.82" width="29.58" height="120.12"/><rect class="cls-1" x="156.69" y="217.12" width="5.67" height="13.83"/><rect class="cls-1" x="156.69" y="271.24" width="5.67" height="13.83"/><path class="cls-1" d="M177,236.38c0,.12-7.5.21-16.75.21s-16.76-.09-16.76-.21,7.5-.22,16.76-.22S177,236.26,177,236.38Z"/><rect class="cls-1" x="156.69" y="244.39" width="5.67" height="13.83"/><path class="cls-1" d="M177,263.64c0,.12-7.5.21-16.75.21s-16.76-.09-16.76-.21,7.5-.22,16.76-.22S177,263.52,177,263.64Z"/><rect class="cls-3" x="183.25" y="217.12" width="5.67" height="13.83"/><rect class="cls-3" x="195.56" y="217.12" width="5.67" height="13.83"/><rect class="cls-3" x="183.25" y="243.36" width="5.67" height="13.83"/><rect class="cls-3" x="195.56" y="243.36" width="5.67" height="13.83"/><rect class="cls-3" x="183.25" y="269.6" width="5.67" height="13.83"/><rect class="cls-3" x="195.56" y="269.6" width="5.67" height="13.83"/><rect class="cls-3" x="138.72" y="202.92" width="72.58" height="3.01"/><path class="cls-2" d="M207,206.21c0,.12-14.11.22-31.5.22s-31.49-.1-31.49-.22,14.1-.22,31.49-.22S207,206.09,207,206.21Z"/><rect class="cls-1" x="389.31" y="119.29" width="53.95" height="171.51"/><rect class="cls-2" x="416.29" y="119.29" width="26.97" height="171.04"/><rect class="cls-1" x="395.47" y="102.45" width="19.05" height="16.84"/><rect class="cls-2" x="409.98" y="102.45" width="4.54" height="16.84"/><polyline class="cls-3" points="384.82 119.29 384.82 118.31 444.84 118.31 444.84 119.29"/><rect class="cls-4" x="399.96" y="126.63" width="4.57" height="9.66"/><path class="cls-3" d="M416.29,140.08c0,.11-6,.19-13.49.19s-13.49-.08-13.49-.19,6-.18,13.49-.18S416.29,140,416.29,140.08Z"/><rect class="cls-3" x="427.17" y="126.63" width="4.57" height="9.66"/><path class="cls-3" d="M443.49,140.08c0,.11-6,.19-13.48.19s-13.49-.08-13.49-.19,6-.18,13.49-.18S443.49,140,443.49,140.08Z"/><rect class="cls-3" x="427.17" y="145.81" width="4.57" height="9.66"/><path class="cls-3" d="M443.49,159.26c0,.1-6,.19-13.48.19s-13.49-.09-13.49-.19,6-.18,13.49-.18S443.49,159.16,443.49,159.26Z"/><rect class="cls-3" x="427.17" y="165.57" width="4.57" height="9.66"/><path class="cls-3" d="M443.49,179c0,.1-6,.18-13.48.18s-13.49-.08-13.49-.18,6-.19,13.49-.19S443.49,178.92,443.49,179Z"/><rect class="cls-3" x="427.17" y="185.32" width="4.57" height="9.66"/><path class="cls-3" d="M443.49,198.77c0,.11-6,.19-13.48.19s-13.49-.08-13.49-.19,6-.18,13.49-.18S443.49,198.67,443.49,198.77Z"/><rect class="cls-3" x="427.17" y="204.51" width="4.57" height="9.66"/><path class="cls-3" d="M443.49,218c0,.11-6,.19-13.48.19s-13.49-.08-13.49-.19,6-.18,13.49-.18S443.49,217.86,443.49,218Z"/><rect class="cls-3" x="427.17" y="223.78" width="4.57" height="9.66"/><rect class="cls-3" x="427.17" y="243.3" width="4.57" height="9.66"/><path class="cls-3" d="M443.49,237.23c0,.1-6,.19-13.48.19s-13.49-.09-13.49-.19,6-.18,13.49-.18S443.49,237.13,443.49,237.23Z"/><rect class="cls-4" x="399.96" y="146.1" width="4.57" height="9.66"/><path class="cls-3" d="M416.29,159.55c0,.11-6,.19-13.49.19s-13.49-.08-13.49-.19,6-.18,13.49-.18S416.29,159.45,416.29,159.55Z"/><rect class="cls-4" x="399.96" y="165.57" width="4.57" height="9.66"/><path class="cls-3" d="M416.29,179c0,.11-6,.19-13.49.19s-13.49-.08-13.49-.19,6-.18,13.49-.18S416.29,178.92,416.29,179Z"/><rect class="cls-4" x="399.96" y="185.04" width="4.57" height="9.66"/><path class="cls-3" d="M416.29,198.49c0,.11-6,.19-13.49.19s-13.49-.08-13.49-.19,6-.18,13.49-.18S416.29,198.39,416.29,198.49Z"/><rect class="cls-4" x="399.96" y="204.51" width="4.57" height="9.66"/><path class="cls-3" d="M416.29,218c0,.11-6,.19-13.49.19s-13.49-.08-13.49-.19,6-.18,13.49-.18S416.29,217.86,416.29,218Z"/><rect class="cls-4" x="399.96" y="223.98" width="4.57" height="9.66"/><path class="cls-3" d="M416.29,237.43c0,.11-6,.19-13.49.19s-13.49-.08-13.49-.19,6-.18,13.49-.18S416.29,237.33,416.29,237.43Z"/><rect class="cls-4" x="399.96" y="243.45" width="4.57" height="9.66"/><rect class="cls-2" x="389.55" y="209.98" width="88.54" height="117.15"/><rect class="cls-3" x="436.58" y="209.98" width="41.51" height="117.15"/><rect class="cls-1" x="408.12" y="225.84" width="7.96" height="19.4"/><rect class="cls-1" x="408.12" y="301.77" width="7.96" height="19.4"/><path class="cls-1" d="M436.58,252.85c0,.22-10.53.4-23.52.4s-23.51-.18-23.51-.4,10.53-.39,23.51-.39S436.58,252.64,436.58,252.85Z"/><rect class="cls-1" x="408.12" y="264.09" width="7.96" height="19.4"/><path class="cls-1" d="M436.58,291.11c0,.22-10.53.4-23.52.4s-23.51-.18-23.51-.4,10.53-.39,23.51-.39S436.58,290.89,436.58,291.11Z"/><rect class="cls-1" x="445.39" y="225.84" width="7.96" height="19.4"/><rect class="cls-1" x="462.66" y="225.84" width="7.96" height="19.4"/><rect class="cls-1" x="445.39" y="262.65" width="7.96" height="19.4"/><rect class="cls-1" x="462.66" y="262.65" width="7.96" height="19.4"/><rect class="cls-1" x="445.39" y="299.47" width="7.96" height="19.4"/><rect class="cls-1" x="462.66" y="299.47" width="7.96" height="19.4"/><rect class="cls-3" x="382.9" y="205.9" width="101.85" height="4.22"/><path class="cls-2" d="M478.71,210.52c0,.22-19.79.39-44.2.39s-44.2-.17-44.2-.39,19.79-.39,44.2-.39S478.71,210.3,478.71,210.52Z"/><polygon class="cls-2" points="385.53 326.5 296.28 326.5 295.9 185.01 385.14 185.01 385.53 326.5"/><rect class="cls-3" x="340.52" y="185.01" width="44.62" height="141.49"/><rect class="cls-2" x="306.09" y="157.15" width="31.51" height="27.86"/><rect class="cls-3" x="330.09" y="157.15" width="7.51" height="27.86"/><rect class="cls-3" x="288.46" y="183.38" width="99.29" height="1.62"/><rect class="cls-5" x="313.51" y="197.16" width="7.55" height="15.98"/><path class="cls-3" d="M340.52,219.41c0,.17-10,.3-22.31.3s-22.31-.13-22.31-.3,10-.31,22.31-.31S340.52,219.24,340.52,219.41Z"/><rect class="cls-1" x="358.52" y="197.16" width="7.55" height="15.98"/><path class="cls-2" d="M385.53,219.41c0,.17-10,.3-22.31.3s-22.32-.13-22.32-.3,10-.31,22.32-.31S385.53,219.24,385.53,219.41Z"/><rect class="cls-1" x="358.52" y="228.88" width="7.55" height="15.98"/><path class="cls-2" d="M385.53,251.13c0,.17-10,.31-22.31.31s-22.32-.14-22.32-.31,10-.3,22.32-.3S385.53,251,385.53,251.13Z"/><rect class="cls-1" x="358.52" y="261.56" width="7.55" height="15.98"/><path class="cls-2" d="M385.53,283.81c0,.17-10,.31-22.31.31s-22.32-.14-22.32-.31,10-.3,22.32-.3S385.53,283.65,385.53,283.81Z"/><rect class="cls-1" x="358.52" y="294.25" width="7.55" height="15.98"/><path class="cls-2" d="M385.53,316.5c0,.17-10,.3-22.31.3s-22.32-.13-22.32-.3,10-.31,22.32-.31S385.53,316.33,385.53,316.5Z"/><rect class="cls-5" x="313.51" y="229.37" width="7.55" height="15.98"/><path class="cls-3" d="M340.52,251.62c0,.17-10,.3-22.31.3s-22.31-.13-22.31-.3,10-.31,22.31-.31S340.52,251.45,340.52,251.62Z"/><rect class="cls-5" x="313.51" y="261.58" width="7.55" height="15.98"/><path class="cls-3" d="M340.52,283.83c0,.16-10,.3-22.31.3s-22.31-.14-22.31-.3,10-.31,22.31-.31S340.52,283.66,340.52,283.83Z"/><rect class="cls-5" x="313.51" y="293.78" width="7.55" height="15.98"/><path class="cls-3" d="M340.52,316c0,.16-10,.3-22.31.3s-22.31-.14-22.31-.3,10-.31,22.31-.31S340.52,315.87,340.52,316Z"/><rect class="cls-2" x="202.44" y="65.41" width="73.22" height="260.1"/><rect class="cls-5" x="208.39" y="74.38" width="6.52" height="13.75"/><rect class="cls-5" x="222.09" y="74.38" width="6.52" height="13.75"/><rect class="cls-5" x="235.79" y="74.38" width="6.52" height="13.75"/><rect class="cls-5" x="249.5" y="74.38" width="6.52" height="13.75"/><rect class="cls-5" x="263.2" y="74.38" width="6.52" height="13.75"/><rect class="cls-5" x="208.39" y="93.61" width="6.52" height="13.75"/><rect class="cls-5" x="222.09" y="93.61" width="6.52" height="13.75"/><rect class="cls-5" x="235.79" y="93.61" width="6.52" height="13.75"/><rect class="cls-5" x="249.5" y="93.61" width="6.52" height="13.75"/><rect class="cls-5" x="263.2" y="93.61" width="6.52" height="13.75"/><rect class="cls-5" x="208.39" y="112.84" width="6.52" height="13.75"/><rect class="cls-5" x="222.09" y="112.84" width="6.52" height="13.75"/><rect class="cls-5" x="235.79" y="112.84" width="6.52" height="13.75"/><rect class="cls-5" x="249.5" y="112.84" width="6.52" height="13.75"/><rect class="cls-5" x="263.2" y="112.84" width="6.52" height="13.75"/><rect class="cls-5" x="208.39" y="132.07" width="6.52" height="13.75"/><rect class="cls-5" x="222.09" y="132.07" width="6.52" height="13.75"/><rect class="cls-5" x="235.79" y="132.07" width="6.52" height="13.75"/><rect class="cls-5" x="249.5" y="132.07" width="6.52" height="13.75"/><rect class="cls-5" x="263.2" y="132.07" width="6.52" height="13.75"/><rect class="cls-5" x="208.39" y="151.3" width="6.52" height="13.75"/><rect class="cls-5" x="222.09" y="151.3" width="6.52" height="13.75"/><rect class="cls-5" x="235.79" y="151.3" width="6.52" height="13.75"/><rect class="cls-5" x="249.5" y="151.3" width="6.52" height="13.75"/><rect class="cls-5" x="263.2" y="151.3" width="6.52" height="13.75"/><rect class="cls-5" x="208.39" y="170.53" width="6.52" height="13.75"/><rect class="cls-5" x="222.09" y="170.53" width="6.52" height="13.75"/><rect class="cls-5" x="235.79" y="170.53" width="6.52" height="13.75"/><rect class="cls-5" x="249.5" y="170.53" width="6.52" height="13.75"/><rect class="cls-5" x="263.2" y="170.53" width="6.52" height="13.75"/><rect class="cls-5" x="208.39" y="189.76" width="6.52" height="13.75"/><rect class="cls-5" x="222.09" y="189.76" width="6.52" height="13.75"/><rect class="cls-5" x="235.79" y="189.76" width="6.52" height="13.75"/><rect class="cls-5" x="249.5" y="189.76" width="6.52" height="13.75"/><rect class="cls-5" x="263.2" y="189.76" width="6.52" height="13.75"/><rect class="cls-5" x="208.39" y="208.99" width="6.52" height="13.75"/><rect class="cls-5" x="222.09" y="208.99" width="6.52" height="13.75"/><rect class="cls-5" x="235.79" y="208.99" width="6.52" height="13.75"/><rect class="cls-5" x="249.5" y="208.99" width="6.52" height="13.75"/><rect class="cls-5" x="263.2" y="208.99" width="6.52" height="13.75"/><rect class="cls-5" x="208.39" y="228.22" width="6.52" height="13.75"/><rect class="cls-5" x="222.09" y="228.22" width="6.52" height="13.75"/><rect class="cls-5" x="235.79" y="228.22" width="6.52" height="13.75"/><rect class="cls-5" x="249.5" y="228.22" width="6.52" height="13.75"/><rect class="cls-5" x="263.2" y="228.22" width="6.52" height="13.75"/><rect class="cls-5" x="208.39" y="247.45" width="6.52" height="13.75"/><rect class="cls-5" x="222.09" y="247.45" width="6.52" height="13.75"/><rect class="cls-5" x="235.79" y="247.45" width="6.52" height="13.75"/><rect class="cls-5" x="249.5" y="247.45" width="6.52" height="13.75"/><rect class="cls-5" x="263.2" y="247.45" width="6.52" height="13.75"/><rect class="cls-5" x="208.39" y="266.68" width="6.52" height="13.75"/><rect class="cls-5" x="222.09" y="266.68" width="6.52" height="13.75"/><rect class="cls-5" x="235.79" y="266.68" width="6.52" height="13.75"/><rect class="cls-5" x="249.5" y="266.68" width="6.52" height="13.75"/><rect class="cls-5" x="263.2" y="266.68" width="6.52" height="13.75"/><rect class="cls-5" x="208.39" y="285.91" width="6.52" height="13.75"/><rect class="cls-5" x="222.09" y="285.91" width="6.52" height="13.75"/><rect class="cls-5" x="235.79" y="285.91" width="6.52" height="13.75"/><rect class="cls-5" x="249.5" y="285.91" width="6.52" height="13.75"/><rect class="cls-5" x="263.2" y="285.91" width="6.52" height="13.75"/><rect class="cls-5" x="208.39" y="304.07" width="6.52" height="13.75"/><rect class="cls-5" x="222.09" y="304.07" width="6.52" height="13.75"/><rect class="cls-5" x="235.79" y="304.07" width="6.52" height="13.75"/><rect class="cls-5" x="249.5" y="304.07" width="6.52" height="13.75"/><rect class="cls-5" x="263.2" y="304.07" width="6.52" height="13.75"/><rect class="cls-3" x="275.66" y="65.41" width="31.98" height="260.1"/><rect class="cls-5" x="235.79" y="74.38" width="6.52" height="13.75"/><rect class="cls-5" x="249.5" y="74.38" width="6.52" height="13.75"/><rect class="cls-5" x="263.2" y="74.38" width="6.52" height="13.75"/><rect class="cls-5" x="235.79" y="93.61" width="6.52" height="13.75"/><rect class="cls-5" x="249.5" y="93.61" width="6.52" height="13.75"/><rect class="cls-5" x="263.2" y="93.61" width="6.52" height="13.75"/><rect class="cls-5" x="235.79" y="112.84" width="6.52" height="13.75"/><rect class="cls-5" x="249.5" y="112.84" width="6.52" height="13.75"/><rect class="cls-5" x="263.2" y="112.84" width="6.52" height="13.75"/><rect class="cls-5" x="235.79" y="132.07" width="6.52" height="13.75"/><rect class="cls-5" x="249.5" y="132.07" width="6.52" height="13.75"/><rect class="cls-5" x="263.2" y="132.07" width="6.52" height="13.75"/><rect class="cls-5" x="235.79" y="151.3" width="6.52" height="13.75"/><rect class="cls-5" x="249.5" y="151.3" width="6.52" height="13.75"/><rect class="cls-5" x="263.2" y="151.3" width="6.52" height="13.75"/><rect class="cls-5" x="235.79" y="170.53" width="6.52" height="13.75"/><rect class="cls-5" x="249.5" y="170.53" width="6.52" height="13.75"/><rect class="cls-5" x="263.2" y="170.53" width="6.52" height="13.75"/><rect class="cls-5" x="235.79" y="189.76" width="6.52" height="13.75"/><rect class="cls-5" x="249.5" y="189.76" width="6.52" height="13.75"/><rect class="cls-5" x="263.2" y="189.76" width="6.52" height="13.75"/><rect class="cls-5" x="235.79" y="208.99" width="6.52" height="13.75"/><rect class="cls-5" x="249.5" y="208.99" width="6.52" height="13.75"/><rect class="cls-5" x="263.2" y="208.99" width="6.52" height="13.75"/><rect class="cls-5" x="235.79" y="228.22" width="6.52" height="13.75"/><rect class="cls-5" x="249.5" y="228.22" width="6.52" height="13.75"/><rect class="cls-5" x="263.2" y="228.22" width="6.52" height="13.75"/><rect class="cls-5" x="235.79" y="247.45" width="6.52" height="13.75"/><rect class="cls-5" x="249.5" y="247.45" width="6.52" height="13.75"/><rect class="cls-5" x="263.2" y="247.45" width="6.52" height="13.75"/><rect class="cls-5" x="235.79" y="266.68" width="6.52" height="13.75"/><rect class="cls-5" x="249.5" y="266.68" width="6.52" height="13.75"/><rect class="cls-5" x="263.2" y="266.68" width="6.52" height="13.75"/><rect class="cls-5" x="235.79" y="285.91" width="6.52" height="13.75"/><rect class="cls-5" x="249.5" y="285.91" width="6.52" height="13.75"/><rect class="cls-5" x="263.2" y="285.91" width="6.52" height="13.75"/><rect class="cls-5" x="235.79" y="304.07" width="6.52" height="13.75"/><rect class="cls-5" x="249.5" y="304.07" width="6.52" height="13.75"/><rect class="cls-5" x="263.2" y="304.07" width="6.52" height="13.75"/><rect class="cls-2" x="282.9" y="74.38" width="6.52" height="13.75"/><rect class="cls-2" x="296.6" y="74.38" width="6.52" height="13.75"/><rect class="cls-2" x="282.9" y="93.61" width="6.52" height="13.75"/><rect class="cls-2" x="296.6" y="93.61" width="6.52" height="13.75"/><rect class="cls-2" x="282.9" y="112.84" width="6.52" height="13.75"/><rect class="cls-2" x="296.6" y="112.84" width="6.52" height="13.75"/><rect class="cls-2" x="282.9" y="132.07" width="6.52" height="13.75"/><rect class="cls-2" x="296.6" y="132.07" width="6.52" height="13.75"/><rect class="cls-2" x="282.9" y="151.3" width="6.52" height="13.75"/><rect class="cls-2" x="296.6" y="151.3" width="6.52" height="13.75"/><rect class="cls-2" x="282.9" y="170.53" width="6.52" height="13.75"/><rect class="cls-2" x="296.6" y="170.53" width="6.52" height="13.75"/><rect class="cls-2" x="282.9" y="189.76" width="6.52" height="13.75"/><rect class="cls-2" x="296.6" y="189.76" width="6.52" height="13.75"/><rect class="cls-2" x="282.9" y="208.99" width="6.52" height="13.75"/><rect class="cls-2" x="296.6" y="208.99" width="6.52" height="13.75"/><rect class="cls-2" x="282.9" y="228.22" width="6.52" height="13.75"/><rect class="cls-2" x="296.6" y="228.22" width="6.52" height="13.75"/><rect class="cls-2" x="282.9" y="247.45" width="6.52" height="13.75"/><rect class="cls-2" x="296.6" y="247.45" width="6.52" height="13.75"/><rect class="cls-2" x="282.9" y="266.68" width="6.52" height="13.75"/><rect class="cls-2" x="296.6" y="266.68" width="6.52" height="13.75"/><rect class="cls-2" x="282.9" y="285.91" width="6.52" height="13.75"/><rect class="cls-2" x="296.6" y="285.91" width="6.52" height="13.75"/><rect class="cls-2" x="282.9" y="304.07" width="6.52" height="13.75"/><rect class="cls-2" x="296.6" y="304.07" width="6.52" height="13.75"/><path class="cls-3" d="M368.41,126.81c.3,0,.54,6.16.54,13.76s-.24,13.76-.54,13.76-.53-6.16-.53-13.76S368.12,126.81,368.41,126.81Z"/><polygon class="cls-3" points="395.79 156.47 319.03 178.26 319.03 325.87 395.79 325.87 395.79 156.47"/><polygon class="cls-3" points="330.54 174.91 330.54 148.73 377.8 148.73 377.8 161.5 330.54 174.91"/><polygon class="cls-5" points="324.88 179.73 325.49 315.46 387.92 315.46 387.92 161.82 324.88 179.73"/><path class="cls-3" d="M341.76,318.56c-.29,0-.54-32.58-.54-72.75s.25-72.75.54-72.75.54,32.57.54,72.75S342.06,318.56,341.76,318.56Z"/><path class="cls-3" d="M368,318.56c-.29,0-.53-34.39-.53-76.8s.24-76.8.53-76.8.54,34.38.54,76.8S368.3,318.56,368,318.56Z"/><path class="cls-3" d="M392.23,200.45c0,.3-15.54.54-34.72.54s-34.72-.24-34.72-.54,15.54-.54,34.72-.54S392.23,200.16,392.23,200.45Z"/><path class="cls-3" d="M391.58,242c0,.3-15.54.54-34.72.54s-34.72-.24-34.72-.54,15.54-.54,34.72-.54S391.58,241.69,391.58,242Z"/><path class="cls-3" d="M395.48,283.85c0,.3-16.13.54-36,.54s-36-.24-36-.54,16.13-.53,36-.53S395.48,283.56,395.48,283.85Z"/><path class="cls-3" d="M395.5,156.47c.08.29-16.91,5.36-37.94,11.33s-38.16,10.58-38.24,10.3,16.9-5.36,37.94-11.33S395.42,156.19,395.5,156.47Z"/><path class="cls-3" d="M345.27,231.47c-.21-.21,3.57-4.32,8.43-9.19s9-8.64,9.19-8.43-3.56,4.33-8.43,9.19S345.48,231.68,345.27,231.47Z"/><path class="cls-3" d="M357,214.76c.21.22-1.15,1.84-3,3.63s-3.57,3.07-3.78,2.86,1.16-1.84,3-3.63S356.8,214.55,357,214.76Z"/><path class="cls-3" d="M361.33,261.76c.22.21-3,3.83-7.2,8.09s-7.75,7.56-8,7.35,3-3.83,7.2-8.1S361.12,261.55,361.33,261.76Z"/><path class="cls-3" d="M355.44,263.6c.22.2-.85,1.74-2.39,3.44s-3,2.93-3.19,2.73.85-1.74,2.4-3.45S355.22,263.4,355.44,263.6Z"/><path class="cls-3" d="M382,179.76c.22.19-1.38,2.43-3.58,5s-4.17,4.51-4.4,4.32,1.38-2.44,3.58-5S381.73,179.56,382,179.76Z"/><path class="cls-3" d="M380.17,177c.22.2-.92,1.81-2.54,3.6s-3.12,3.09-3.34,2.89.92-1.82,2.54-3.61S380,176.83,380.17,177Z"/><path class="cls-3" d="M336,298.56c.24.17-.74,2-2.19,4s-2.83,3.57-3.07,3.4.74-2,2.19-4S335.75,298.39,336,298.56Z"/><path class="cls-3" d="M334.14,296.09c.22.2-.65,1.47-1.93,2.84s-2.49,2.3-2.71,2.1.65-1.47,1.93-2.84S333.93,295.88,334.14,296.09Z"/><path class="cls-3" d="M137.63,453.38h-1.32A9.62,9.62,0,0,0,137.63,453.38Z"/><path class="cls-3" d="M101.77,438.24a6.92,6.92,0,0,0-8.47,1.12A11.89,11.89,0,0,1,91,441.78a4.51,4.51,0,0,1-4.87-.63,21,21,0,0,1-3.44-3.89c-3.9-4.9-10.24-8.29-16.38-7.08a7.91,7.91,0,0,0-5.23,3.16c-1.13,1.76-1,4.39.61,5.7-2.12-1.3-4.33-2.63-6.79-2.88s-5.27.93-6.06,3.28c-.73,2.18.45,4.54,1.9,6.33a20.79,20.79,0,0,0,15.38,7.61h70.16c-6.62-.3-24.9-4.56-28.32-7.79C105.64,443.37,104.5,440,101.77,438.24Z"/><path class="cls-3" d="M361.76,442.74a4,4,0,0,0-4.89.65,7,7,0,0,1-1.31,1.4,2.6,2.6,0,0,1-2.81-.37,11.54,11.54,0,0,1-2-2.25c-2.25-2.82-5.92-4.78-9.46-4.08a4.59,4.59,0,0,0-3,1.82,2.57,2.57,0,0,0,.35,3.29,9.64,9.64,0,0,0-3.92-1.66,3.29,3.29,0,0,0-3.49,1.9,4.06,4.06,0,0,0,1.09,3.65,12,12,0,0,0,8.88,4.39h40.5c-3.82-.17-14.37-2.63-16.35-4.49C364,445.71,363.34,443.74,361.76,442.74Z"/><path class="cls-3" d="M50.86,418.14a5.53,5.53,0,1,1-5.53-5.53A5.54,5.54,0,0,1,50.86,418.14Z"/><path class="cls-2" d="M161.72,79a29.11,29.11,0,0,0-3.43-7.1,9.76,9.76,0,0,0-6.45-4.2c-2.62-.32-5.52,1.09-6.37,3.59-.38-5.63-1.17-11.4-4-16.28s-8.07-8.73-13.7-8.38c-5.31.32-9.85,4.26-12.37,8.94s-3.4,10-4.22,15.3c-2-2.47-6.26-1.69-8.36.7s-2.63,5.74-3.08,8.9l62.7.65Z"/><path class="cls-1" d="M180.94,125.65a11.15,11.15,0,0,0-1.34-2.78,3.85,3.85,0,0,0-2.52-1.65,2.36,2.36,0,0,0-2.5,1.41,14.5,14.5,0,0,0-1.56-6.37,6.08,6.08,0,0,0-5.36-3.28,6.27,6.27,0,0,0-4.84,3.5,18.34,18.34,0,0,0-1.65,6c-.79-1-2.45-.66-3.27.28a6.6,6.6,0,0,0-1.21,3.48l24.54.25Z"/><path class="cls-2" d="M445.83,58.37a21.31,21.31,0,0,0-2.51-5.22,7.19,7.19,0,0,0-4.74-3.08,4.4,4.4,0,0,0-4.68,2.63c-.28-4.13-.86-8.37-2.93-12s-5.93-6.4-10.06-6.15c-3.9.24-7.24,3.13-9.09,6.57s-2.49,7.38-3.1,11.23c-1.48-1.81-4.6-1.24-6.14.52s-1.93,4.22-2.26,6.53l46.05.48Z"/><path class="cls-2" d="M381.08,80.48a14.15,14.15,0,0,0-1.62-3.37,4.68,4.68,0,0,0-3.06-2,2.84,2.84,0,0,0-3,1.7,17.55,17.55,0,0,0-1.89-7.71c-1.33-2.32-3.82-4.14-6.49-4-2.51.15-4.66,2-5.86,4.23a22.51,22.51,0,0,0-2,7.25c-1-1.17-3-.8-4,.33a7.85,7.85,0,0,0-1.46,4.21l29.69.31Z"/><path class="cls-1" d="M481.73,103.21a14.15,14.15,0,0,0-1.62-3.37,4.64,4.64,0,0,0-3.06-2,2.82,2.82,0,0,0-3,1.7,17.49,17.49,0,0,0-1.89-7.72c-1.33-2.31-3.82-4.13-6.48-4a7.57,7.57,0,0,0-5.86,4.23,22.27,22.27,0,0,0-2,7.25c-1-1.17-3-.8-4,.33a7.82,7.82,0,0,0-1.46,4.21l29.7.31Z"/><path class="cls-1" d="M58.11,113.38a14.92,14.92,0,0,0-1.74-3.62,5,5,0,0,0-3.29-2.14,3.08,3.08,0,0,0-3.26,1.83,19,19,0,0,0-2-8.31c-1.44-2.49-4.12-4.44-7-4.27-2.7.17-5,2.18-6.31,4.56a24.06,24.06,0,0,0-2.15,7.81c-1-1.26-3.19-.87-4.26.35a8.44,8.44,0,0,0-1.57,4.54l32,.33Z"/></g><g id="Floor"><path class="cls-6" d="M483.72,327.13c0,.14-104.65.26-233.71.26s-233.73-.12-233.73-.26,104.63-.26,233.73-.26S483.72,327,483.72,327.13Z"/></g><g id="Lines"><path class="cls-6" d="M178.87,171.6c0,.14-5.44.26-12.15.26s-12.15-.12-12.15-.26,5.44-.26,12.15-.26S178.87,171.45,178.87,171.6Z"/><path class="cls-6" d="M172.54,166c0,.15-5.44.26-12.15.26s-12.15-.11-12.15-.26,5.44-.26,12.15-.26S172.54,165.81,172.54,166Z"/><path class="cls-6" d="M81.39,366.89c0,.14-7.55.26-16.86.26s-16.86-.12-16.86-.26,7.55-.26,16.86-.26S81.39,366.74,81.39,366.89Z"/><path class="cls-6" d="M72.61,361.24c0,.15-7.55.26-16.86.26s-16.86-.11-16.86-.26,7.55-.26,16.86-.26S72.61,361.1,72.61,361.24Z"/></g><g id="Character"><path class="cls-7" d="M44.94,295.07c.48-15.22.29-69.8.23-84.65a3.72,3.72,0,0,1,3.74-3.73l92.83.54a3.72,3.72,0,0,1,3.7,3.81l-2.12,82.82a3.72,3.72,0,0,1-3.66,3.63L48.72,298.9A3.71,3.71,0,0,1,44.94,295.07Z"/><path class="cls-6" d="M306.46,243.51,329.72,221h3.79s21.86,28,20.88,30.12-8,3.37-8,3.37l-.28,7.7-21.34,12.29-1.08-3.71-4.77.95s-6.86-9.11-6.86-19.48S306.46,243.51,306.46,243.51Z"/><path class="cls-8" d="M320,235c.42-.14,11.39-15.06,11.81-15.35s15.13,2.39,24,15.7,4.9,17.38,3.36,17.66-34.61,1.12-37.13-.7S320,235,320,235Z"/><path class="cls-5" d="M353.32,232.09s-6.33,3.55-5.4,6S355.29,252.36,361,251c.42-.1.62-1.69.34-3.35a29,29,0,0,0-5.5-12.07Z"/><g class="cls-9"><path d="M322.61,230.86c.21-.14,3.49-3.92,6.77-3.35s11.12,5.3,15.4,9.06,4,4.86,4,4.86-13.41-9.07-17.62-10.43A16.73,16.73,0,0,0,322.61,230.86Z"/></g><path class="cls-6" d="M353.32,232.09s.23.2.59.63.85,1.06,1.44,1.86a46.32,46.32,0,0,1,4.09,6.59,33.63,33.63,0,0,1,1.63,4,11.63,11.63,0,0,1,.58,3.48,4.61,4.61,0,0,1-.31,2.36c-.27.52-.57.68-.58.66s.2-.24.4-.74a4.87,4.87,0,0,0,.12-2.25,12.26,12.26,0,0,0-.65-3.34,39.74,39.74,0,0,0-1.66-3.89,62.8,62.8,0,0,0-3.92-6.62A22.13,22.13,0,0,1,353.32,232.09Z"/><path class="cls-6" d="M114.6,338.74s-21.83,42.6-32.18,49.73L84,391.69s.9.69,14.48-10.58,20.94-24.63,27.38-28.75A62.29,62.29,0,0,1,136,346.84Z"/><path class="cls-6" d="M189.09,373.34H178.34l23.51,17.29,1.57,4.92-9,3.34-.85,16.81s10.49,16.61,11.46,16.93,23.72-.5,23.72-.5l4.88-16.71,1.18-22.82s-33.22-21.35-33.7-21.35S189.09,373.34,189.09,373.34Z"/><circle class="cls-10" cx="148.24" cy="408.66" r="46.08" transform="translate(-283.61 458.41) rotate(-76.63)"/><circle class="cls-3" cx="148.24" cy="408.66" r="26.31"/><circle class="cls-6" cx="148.24" cy="408.66" r="15.01"/><path class="cls-6" d="M122.4,360.66c1.65-2.23,2.66,10.42,5.56,13.32s12.53.23,25.14,2.42c20.12,3.48,26,14.31,30.74,19.79a4.55,4.55,0,0,0,4.64,1.39l15.64-4.26s-9.43-23.21-35.55-30.95S122.4,360.66,122.4,360.66Z"/><circle class="cls-10" cx="406.77" cy="408.66" r="48.28"/><circle class="cls-3" cx="406.77" cy="408.66" r="27.57"/><path class="cls-6" d="M250.67,423.48c.5,0,7.72,10.56,7.72,10.56h4.76V438s16.56-.74,20-1.19a28.71,28.71,0,0,0,7.49-2.5s26.54-2.11,33.57-3.55a43,43,0,0,0,13.16-5.47s-82.8-7.54-83.48-7.08S250.67,423.48,250.67,423.48Z"/><path class="cls-6" d="M323.74,275.33c.38,2.3,13.83,33.42,13.83,33.42l-10,6.53,17.29,30L334.3,391s-29,.38-56.28-8.45l-17.67-32.66a95.08,95.08,0,0,0,5.38-22.28s6.91-1.92,7.68-6.91-4.61-12.3-4.61-12.3-25.35-11.14-82.59-16.13c0,0-35.73-6.53-38-6.15s-6.15,8.33-6.15,8.33-31.5.12-34.57,11.65c0,0-3.08,8.45,32.27,25.35s74.52,31.89,74.52,31.89,3.08,15.37,8.84,18.82,64.54,23.05,86,21.9,28-4.23,41.1-12.68,27.66-33.8,31.89-42.64S367.53,331,356,317.2s-26.89-46.48-26.89-46.48Z"/><g class="cls-9"><path d="M358.49,413S376,397.4,380.77,392.92s5.18-5.77,5.18-5.77l11.11,10.75,2.2-3.07L383.86,379l-26.38,26,1,6.84"/></g><path class="cls-8" d="M404.43,345.69s24.15,3.45,36.34,17.94,8.74,15.87,8.74,15.87-18.17-4.83-29,0S410,393.3,410,393.3l-9.2,4.6-18-20.24,15-32Z"/><g class="cls-9"><path d="M387.79,383.31s4.69-8.41,9.12-15.58c4.87-7.87,13.34-20.84,13.34-20.84l-7.05-2.07L383.86,379Z"/></g><path class="cls-8" d="M349.23,259.2c1.61,0,9.2,3.45,18.17,12.66s55.89,62.56,56.12,66.93c0,.15,0,.31,0,.46a6.6,6.6,0,0,1-6.66,6.44H408.8l-6,4.14S388.1,384,361.88,404.07a32.61,32.61,0,0,0-6,8.78c-2.07,4.83-4.14,10.81-6.67,12s-112.94.23-114.32-3.45A75.5,75.5,0,0,1,231,406c-.46-4.6-10.81-16.1-23-21.62s-97.75-45.08-98.9-49.68S102,311.88,108,304.75s98.63,37.49,119.82,57l26.91,24.84s49.23,8.74,51.07,9.2,35.88-.92,35.88-.92l13.57-27.37,9.66-21.62L341,307.05S327,270.72,328.07,270.72,349.23,259.2,349.23,259.2Z"/><polygon class="cls-6" points="114.47 379.14 102.8 404.07 171.66 432.63 181.32 409.4 114.47 379.14"/><polygon class="cls-6" points="99.45 382.57 111.33 385.86 106.45 396.27 96.84 393.67 99.45 382.57"/><polygon class="cls-6" points="178.1 417.14 212.03 430.58 242.04 430.58 242.04 423.44 248.31 423.44 248.31 435.42 233.14 435.42 233.14 437.95 212.58 437.95 174.99 424.62 178.1 417.14"/><path class="cls-5" d="M108,330.71c0,.19,11.85,6.81,16.69,7.11s6.72-2.87,7.8-5.24a59.92,59.92,0,0,0,2.27-6.41s-27.11-21.13-27.4-20.66c-2,3.26-2.2,4.3-2.2,11C105.19,319.27,107.88,330.68,108,330.71Z"/><g class="cls-9"><path d="M215.16,388.35c-.53-.44,49.92,18.06,54,19.3s8.34,14.19,8.34,14.19-5-9.76-11.36-12.24S223.77,395.47,215.16,388.35Z"/></g><g class="cls-9"><path d="M355.24,307.33,398,329.22s-7.09-12.32-26.9-21.65C359.39,302.05,340,292,340,292l.93,1.64A34.63,34.63,0,0,0,355.24,307.33Z"/></g><path class="cls-10" d="M265.73,327.57a1.49,1.49,0,0,1-.34.08l-1,.16-3.92.58c-3.4.48-8.32,1.15-14.42,1.92s-13.36,1.64-21.45,2.38c-2,.18-4.1.37-6.23.49-1.06.08-2.14.13-3.22.16a15.44,15.44,0,0,1-3.32-.13A58.19,58.19,0,0,1,198.76,329c-8.64-3.71-16.54-7.91-23.67-11.81s-13.43-7.62-18.69-10.8c-2.63-1.59-5-3-7.06-4.34a29.82,29.82,0,0,1-5-3.76A6.69,6.69,0,0,1,142.2,295a1.54,1.54,0,0,1,.23-1.35,1.92,1.92,0,0,0-.13,1.33,6.78,6.78,0,0,0,2.15,3.2,30.59,30.59,0,0,0,5,3.65c2.08,1.28,4.46,2.71,7.1,4.28,5.28,3.13,11.61,6.8,18.73,10.69s15,8.06,23.64,11.75a59.14,59.14,0,0,0,12.92,4.19,15.17,15.17,0,0,0,3.23.13c1.08,0,2.15-.08,3.21-.16,2.12-.11,4.19-.3,6.21-.47,8.09-.71,15.35-1.56,21.46-2.27l14.44-1.76,3.93-.47,1-.12Z"/><path class="cls-10" d="M268.82,317.66a1,1,0,0,1-.31.11l-.93.29c-.82.24-2,.62-3.61,1a72.77,72.77,0,0,1-13.63,1.84c-1.45.09-3,.06-4.56.09s-3.24-.06-4.94-.19A105.79,105.79,0,0,1,230,319.53a159.1,159.1,0,0,1-24.21-6.15c-8.42-2.77-16.29-5.83-23.47-8.54s-13.66-5.08-19.16-6.94a49.29,49.29,0,0,1-7.22-3.06,20.13,20.13,0,0,1-4.82-3.46,14.4,14.4,0,0,1-2.3-2.95l-.44-.88a2.15,2.15,0,0,1-.13-.3,16.15,16.15,0,0,0,3,4,20.9,20.9,0,0,0,4.81,3.34,49.45,49.45,0,0,0,7.21,3c5.51,1.82,12,4.13,19.21,6.84s15.06,5.73,23.47,8.5a160.58,160.58,0,0,0,24.12,6.16,106,106,0,0,0,10.79,1.28c1.7.14,3.34.15,4.92.22s3.1,0,4.55-.06a77.44,77.44,0,0,0,13.6-1.66c1.59-.32,2.8-.66,3.62-.87l.95-.24A1.31,1.31,0,0,1,268.82,317.66Z"/><path class="cls-10" d="M211.67,333.35a1.75,1.75,0,0,1,.49.19l1.35.63c1.16.55,2.85,1.35,5,2.27,4.22,1.87,10.14,4.25,16.79,6.58s12.77,4.13,17.24,5.28c2.23.6,4.05,1,5.31,1.31l1.45.35c.33.08.5.14.49.16a3.19,3.19,0,0,1-.51-.06l-1.47-.25c-1.28-.23-3.11-.6-5.36-1.15-4.5-1.07-10.65-2.83-17.32-5.15s-12.58-4.77-16.77-6.74c-2.1-1-3.77-1.82-4.92-2.42l-1.3-.72A2.17,2.17,0,0,1,211.67,333.35Z"/><path class="cls-10" d="M257,385.17a2.35,2.35,0,0,1-.24-.36l-.67-1.09-2.56-4.21c-2.23-3.65-5.44-9-9.84-15.2a117.14,117.14,0,0,0-7.71-9.83,81.35,81.35,0,0,0-10.28-10A77.45,77.45,0,0,0,212.42,336a134.94,134.94,0,0,0-15.62-6.72,386,386,0,0,0-57.57-15.81c-7.51-1.44-13.63-2.41-17.86-3l-4.88-.7-1.26-.19a2.39,2.39,0,0,1-.43-.09l.43,0,1.28.14c1.12.14,2.77.31,4.89.61,4.24.55,10.37,1.46,17.9,2.86A373,373,0,0,1,197,328.77a134.85,134.85,0,0,1,15.67,6.75A76.85,76.85,0,0,1,226,344.16a81.47,81.47,0,0,1,10.31,10,118.52,118.52,0,0,1,7.68,9.9c4.38,6.28,7.53,11.62,9.71,15.3l2.48,4.27q.39.7.63,1.11A3.88,3.88,0,0,1,257,385.17Z"/><circle class="cls-6" cx="406.77" cy="408.66" r="15.73"/><path class="cls-6" d="M397.71,328.91a4,4,0,0,1-.46-.53c-.3-.36-.7-.9-1.27-1.57a71.06,71.06,0,0,0-5-5.49,65.39,65.39,0,0,0-8.43-7,80.42,80.42,0,0,0-11.66-6.67c-8.67-4-16.39-8-22-10.85l-6.58-3.45-1.77-1a4,4,0,0,1-.6-.36,3,3,0,0,1,.65.27l1.82.87,6.65,3.3c5.61,2.79,13.36,6.66,22,10.71a78.37,78.37,0,0,1,11.7,6.75,60,60,0,0,1,13.29,12.75c.54.69.92,1.26,1.19,1.63A2.72,2.72,0,0,1,397.71,328.91Z"/><path class="cls-5" d="M378.57,320.05a1.5,1.5,0,0,0-1.17,2.43A33.56,33.56,0,0,0,393,333c12.36,4.23,14.26,2.06,13,.75S388.8,319.93,378.57,320.05Z"/><path class="cls-6" d="M108.18,331.24a3.45,3.45,0,0,1-.34-1c-.19-.64-.44-1.58-.73-2.74a75.09,75.09,0,0,1-2-9.18,29.32,29.32,0,0,1-.32-5.18,15.29,15.29,0,0,1,.73-4.19,11,11,0,0,1,1.24-2.59,3,3,0,0,1,.66-.81,18.5,18.5,0,0,0-1.55,3.51,16.74,16.74,0,0,0-.61,4.1,33.08,33.08,0,0,0,.36,5.09c.48,3.61,1.32,6.82,1.81,9.17.25,1.17.44,2.12.57,2.78A4.62,4.62,0,0,1,108.18,331.24Z"/><g class="cls-9"><path d="M143.34,333.13l66.45,35.24s.34.92-5.67-1.15S151.84,341.9,143.34,333.13Z"/></g><path class="cls-6" d="M59.63,297.19l4.5,4.9H120s10-6,10.61-6Z"/><path class="cls-11" d="M276.34,139.4c2.77-10.48-3.95-18.49-14.18-22.09l-1-.36c-11.19-3.21-19.2,1.64-22.11,12.91l-11.26,37.07-.53,1.81,23.51,14,3.24-9.32s11.12,2.07,15-8.42C270.8,159.9,273.77,149.16,276.34,139.4Z"/><path class="cls-6" d="M270,148.53a1.59,1.59,0,0,1-2,1,1.53,1.53,0,0,1-1.07-1.9,1.59,1.59,0,0,1,2-1A1.52,1.52,0,0,1,270,148.53Z"/><path class="cls-6" d="M272.26,143.76c-.25.13-1.09-1.11-2.72-1.68s-3.09-.17-3.19-.43.26-.41.91-.6a4.32,4.32,0,0,1,2.64.1,4.14,4.14,0,0,1,2.08,1.59C272.34,143.29,272.39,143.71,272.26,143.76Z"/><path class="cls-6" d="M255.6,143.76a1.59,1.59,0,0,1-2,1,1.52,1.52,0,0,1-1.08-1.9,1.61,1.61,0,0,1,2-1A1.53,1.53,0,0,1,255.6,143.76Z"/><path class="cls-6" d="M256.24,138.46c-.26.13-1.1-1.11-2.72-1.68s-3.09-.17-3.2-.43.26-.41.91-.6a4.35,4.35,0,0,1,2.65.1,4.23,4.23,0,0,1,2.08,1.59C256.32,138,256.36,138.41,256.24,138.46Z"/><path class="cls-6" d="M257.89,152.54a12,12,0,0,1,2.8.45c.43.1.85.16,1-.1a2.25,2.25,0,0,0,.15-1.32c0-1.14-.07-2.33-.11-3.58-.12-5.08-.06-9.2.15-9.2s.47,4.11.59,9.19c0,1.25,0,2.44.05,3.58a2.54,2.54,0,0,1-.35,1.7,1.08,1.08,0,0,1-.9.36,2.84,2.84,0,0,1-.73-.15A11.06,11.06,0,0,1,257.89,152.54Z"/><path class="cls-6" d="M252.73,152c.27.08-.35,1.84.72,3.62s3,2.24,2.93,2.49-.54.19-1.33-.06a4.71,4.71,0,0,1-2.49-2,4.05,4.05,0,0,1-.49-3C252.26,152.3,252.61,151.93,252.73,152Z"/><path class="cls-6" d="M258.89,132.26c-.31.39-1.86-.39-3.84-.83s-3.7-.46-3.81-1c0-.22.37-.54,1.14-.75a6.56,6.56,0,0,1,3.07,0,6.71,6.71,0,0,1,2.76,1.35C258.8,131.61,259,132.08,258.89,132.26Z"/><path class="cls-6" d="M274.12,139.19c-.42.27-1.4-.5-2.74-1s-2.56-.63-2.69-1.11c0-.22.26-.53.88-.7a4.21,4.21,0,0,1,4.37,1.69C274.28,138.62,274.3,139.06,274.12,139.19Z"/><path class="cls-11" d="M237.11,140.72a3,3,0,0,0-2.12-3.85c-2-.5-4.61-.16-5.91,3.95-2.3,7.29,5.49,8.1,5.57,7.89S236.18,143.77,237.11,140.72Z"/><path class="cls-12" d="M233.93,145.47s-.16.05-.4.08a1.36,1.36,0,0,1-1-.28A3.3,3.3,0,0,1,232,142a4.3,4.3,0,0,1,.93-1.7,1.55,1.55,0,0,1,1.27-.68.68.68,0,0,1,.63.59c0,.23-.05.36,0,.39s.2-.07.23-.39a.8.8,0,0,0-.14-.55,1,1,0,0,0-.64-.41,1.88,1.88,0,0,0-1.69.71,4.62,4.62,0,0,0-1.08,1.89c-.42,1.49-.1,3.1.86,3.74a1.44,1.44,0,0,0,1.22.17C233.86,145.64,234,145.49,233.93,145.47Z"/><path class="cls-7" d="M287.77,347.11l-7.22,35.75,47,9.63c.61-4.3-22-17.8-22-17.8L311.25,352Z"/><g class="cls-13"><path class="cls-5" d="M291.49,369.78a1.86,1.86,0,0,0-1.76,1.8,1.9,1.9,0,0,0,1.9,1.71c1,0,2-1,1.85-1.92a2,2,0,0,0-2.18-1.57"/></g><g class="cls-13"><path class="cls-5" d="M280.55,382.86l.88-3.57,44.77,10.57s1.92,1.28,1.39,2.63Z"/></g><path class="cls-6" d="M305.69,374.78c-.06.21-1.23.07-2.5.54s-2.07,1.26-2.26,1.13.41-1.32,2-1.85S305.78,374.59,305.69,374.78Z"/><path class="cls-6" d="M310.67,377.87c0,.22-1.06.39-2,1.14s-1.4,1.69-1.62,1.63-.12-1.31,1.1-2.23S310.71,377.66,310.67,377.87Z"/><path class="cls-6" d="M312.39,384c-.22,0-.32-1.14.52-2.21s2-1.32,2.07-1.12-.74.7-1.41,1.58S312.62,384.05,312.39,384Z"/><path class="cls-6" d="M306.69,370.26c-.14.18-1.13-.34-2.45-.52s-2.41,0-2.49-.22,1.06-.78,2.6-.54S306.84,370.11,306.69,370.26Z"/><g class="cls-9"><path d="M200.68,306.28s12,9.63,36.77,10.58,33.38-5.29,33.38-5.29L268,308.09Z"/></g><path class="cls-6" d="M241,269.57c2.29.38,57.28,1.27,69.75,2.23s16.83,4.09,19.63,10.87,1.26,18.33-3.48,29-18.76,59.16-18.76,59.16l-25.85-5.93s7.71-44.79,12.31-53.23l4.59-8.44s-25.64,8.41-44.79,9.18-31.35.14-38.46-5.86-19-11.74-18.59-29.35Z"/><path class="cls-10" d="M311.91,293.5a12.9,12.9,0,0,1-2,1.66l-5,3.8-5,3.8a14.88,14.88,0,0,1-2.13,1.5,12,12,0,0,1,1.9-1.79c1.23-1,2.95-2.44,4.91-3.93s3.76-2.77,5.1-3.68A12.33,12.33,0,0,1,311.91,293.5Z"/><path class="cls-10" d="M311.33,297.56a70.69,70.69,0,0,1-7.42,4.08,68.44,68.44,0,0,1-7.65,3.61,69.44,69.44,0,0,1,7.42-4.08A68.44,68.44,0,0,1,311.33,297.56Z"/><path class="cls-8" d="M252.45,109.26c1.57.37,27.58,6.43,30.69,32.59s-10.41,42.21-18.56,40c-3.71-1-14.39-15.19-22.33-19.26s-25.1-11.24-25.1-11.24-3.33-16.46,6-30S244.9,107.51,252.45,109.26Z"/><path class="cls-10" d="M265.18,136c6.25.49,18.44,11.3,18.44,11.3,1.05,7.1-1,18-1.45,17.83,0,0-20.85-15.53-22.57-19.83C258,141.35,258.94,135.46,265.18,136Z"/><path class="cls-6" d="M216.51,146c10.45,1.66,19.82,7.7,28.24,13.86,8.92,6.53,15.69,13.88,23.32,21.85a5.51,5.51,0,0,1-3.49.12c-3.83-1.52-14.48-12.63-22.42-17.92-7.43-5-25-12.58-25-12.58A13,13,0,0,1,216.51,146Z"/><g class="cls-9"><path class="cls-5" d="M245.21,110.11c-6.47.25-12.49,3.58-16.92,8.35a15,15,0,0,0-3.72,5.91A6.71,6.71,0,0,0,226,131c1.83,1.76,4.76,1.86,7.11.94a20.13,20.13,0,0,0,6.09-4.44,20.73,20.73,0,0,1,6.07-4.49c3.65-1.49,7.79-.73,11.64.17s7.86,1.9,11.67.85a3,3,0,0,0,2.15-1.51c.57-1.37-.7-2.78-1.9-3.66-6-4.44-12.48-7.59-19.84-8.49A16.54,16.54,0,0,0,245.21,110.11Z"/></g><g class="cls-9"><polygon class="cls-5" points="276.59 141.68 276.79 160.97 271.62 156.85 271.43 138.33 276.59 141.68"/></g><g class="cls-9"><path class="cls-5" d="M269.83,137.48,269.38,155l-2.79-2.38.51-16.28S269.37,137.25,269.83,137.48Z"/></g><path class="cls-10" d="M314,242.56c-1.35.83-4.1,2.44-6.31,3.71a6.06,6.06,0,0,0-3.08,3.43,2.61,2.61,0,0,0,.32,2.23,3,3,0,0,0,2.95.82c1.06-.17,5.85-2.72,7.94-4.26Z"/><path class="cls-11" d="M301.25,240.58c.3-.07,11.45-6.83,13.2-6.67s10.55,3.56,10.93,5-1.6,4.79-1.6,4.79h-.38a2.27,2.27,0,0,1,.38,3,16,16,0,0,1-2.46,2.58s2.23,2.05.34,3.8-5.31-.31-5.31-.31-2.51,1.5-3.87.75a1.17,1.17,0,0,1-.42-1.88l2.46-2s.69.4-.22-1.92-1.83-2.37-3.68-2.35-4.67,1.54-5.2,3.06-4.17,3.87-4.17,3.87Z"/><path class="cls-7" d="M254.07,178.44s5.19,20.61,5.4,29.82c.31,13.87-2.43,56.82-.3,57.71,5.34,2.23,5.34,4.31,5.34,4.31s-5.7,4.17-19.33,12-22.56,29-24.13,28.77-20.94-3.2-26.91-17.39c-3.85-9.15-.82-23.17-.82-23.17s11.79-77.45,14.51-85.44c1.81-5.34,6.19-9.44,19.09-12.42C239.17,169.84,246.82,171.91,254.07,178.44Z"/><g class="cls-9"><path d="M221.22,224s7.18,29.28,8.93,31.76-33,14.34-32.52,14.73,27.37-6.86,32.52-9.26l2.61-1.6s2.76,5.12,10.72,7.58,22.84-3.7,22.84-3.7Z"/></g><path class="cls-6" d="M227.64,248.6a9.47,9.47,0,0,1-1.25,1c-.82.6-2,1.44-3.54,2.45-3,2-7.26,4.69-12.09,7.4s-9.33,4.95-12.63,6.48c-1.64.76-3,1.36-3.92,1.75a9.59,9.59,0,0,1-1.48.56,8.47,8.47,0,0,1,1.39-.75l3.86-1.89c3.24-1.61,7.7-3.9,12.52-6.6s9.09-5.32,12.15-7.26l3.63-2.3A8.1,8.1,0,0,1,227.64,248.6Z"/><path class="cls-7" d="M209.54,181.22a22.52,22.52,0,0,1-9.66-1.19c-3-1.24-5.69-3.75-6.38-6.94a10.15,10.15,0,0,1,1.45-7.24,21.12,21.12,0,0,1,5.15-5.48,47.71,47.71,0,0,1,13.8-7.64c2.26-.8,4.72-1.43,7-.76a13.18,13.18,0,0,1,4.28,2.56l16.24,12.76c5.22,4.1,10.71,8.58,12.76,14.91l-1,6.68-13.77-8.39Z"/><path class="cls-6" d="M221.34,223.57a50.1,50.1,0,0,1-5-5.26,49.64,49.64,0,0,1-4.62-5.61,52.15,52.15,0,0,1,5,5.27A51.18,51.18,0,0,1,221.34,223.57Z"/><path class="cls-6" d="M228.32,171.61a35,35,0,0,1-3.49,1,43.36,43.36,0,0,0-8.14,3.15,24.14,24.14,0,0,0-4,2.65,18.41,18.41,0,0,0-2.71,2.8c-1.36,1.76-1.9,3.06-2,3a4.06,4.06,0,0,1,.35-.91,7.27,7.27,0,0,1,.53-1,11.43,11.43,0,0,1,.83-1.29,16.89,16.89,0,0,1,2.69-3,23.11,23.11,0,0,1,4-2.74,36.52,36.52,0,0,1,8.28-3.05c1.1-.27,2-.45,2.62-.56A3.53,3.53,0,0,1,228.32,171.61Z"/><g class="cls-9"><path d="M220.71,173.91c-3.4.41-6.72,1.37-10.08,2a24.91,24.91,0,0,1-10.2.34,12.12,12.12,0,0,1-7.08-4.28,6.68,6.68,0,0,0,.15,1.08c.69,3.19,3.35,5.7,6.38,6.94a22.52,22.52,0,0,0,9.66,1.19h.18c.39-.44.77-.91,1.16-1.35A19.22,19.22,0,0,1,220.71,173.91Z"/></g><path class="cls-6" d="M244.3,182.44a22.71,22.71,0,0,0-4.32-2.5,16.84,16.84,0,0,0-5.24-1.21,15.35,15.35,0,0,0-12,4.42,16.71,16.71,0,0,0-3.2,4.33,23.31,23.31,0,0,0-1.67,4.7s0-.12,0-.35a8.42,8.42,0,0,1,.15-1,14.49,14.49,0,0,1,1.18-3.52,16.29,16.29,0,0,1,3.2-4.5,15.94,15.94,0,0,1,5.67-3.67,16.29,16.29,0,0,1,12.05.46,14.1,14.1,0,0,1,3.19,1.91,9.43,9.43,0,0,1,.76.66C244.23,182.33,244.31,182.42,244.3,182.44Z"/><path class="cls-7" d="M217.15,209.19c.32,1.13,11,39.43,15.89,45.2a27.33,27.33,0,0,0,20.54,9.84c8.14,0,39.35-2.52,43-6s11.61-17.4,3.28-18.58-44.95-1.58-44.95-1.58-1.16-1.35-1.36-1.35,1.75-2.3,1.36-4.46c-.9-5-2.13-27.33-4.26-34.69s-8.53-18.61-18.8-16.47S214.47,199.74,217.15,209.19Z"/><path class="cls-6" d="M252.34,240.32a6,6,0,0,1-1.05.94,29.48,29.48,0,0,1-3.15,2.16A33.47,33.47,0,0,1,243,245.9c-1,.39-2.06.76-3.18,1.08-.56.15-1.11.32-1.73.44a2.3,2.3,0,0,1-1,0,1.15,1.15,0,0,1-.84-.78,1.16,1.16,0,0,1,.47-1,6.8,6.8,0,0,1,.77-.54c.5-.34,1-.65,1.51-.94,1-.58,2-1.09,3-1.54,1.94-.9,3.73-1.59,5.24-2.14s2.76-1,3.62-1.22a6.47,6.47,0,0,1,1.35-.35,7.82,7.82,0,0,1-1.28.54l-3.55,1.37c-1.49.6-3.27,1.32-5.17,2.24-1,.45-1.94,1-2.93,1.54-.5.29-1,.6-1.49.93a6.25,6.25,0,0,0-.7.5c-.21.18-.35.39-.3.54s.23.31.46.38a1.7,1.7,0,0,0,.78,0c.55-.11,1.14-.28,1.69-.42,1.1-.31,2.15-.66,3.14-1A36.81,36.81,0,0,0,248,243.1c1.4-.78,2.48-1.5,3.22-2A9.7,9.7,0,0,1,252.34,240.32Z"/><path class="cls-6" d="M257.94,243.71a5.34,5.34,0,0,1-.7,1.14,20.76,20.76,0,0,1-2.4,2.76,24.91,24.91,0,0,1-4.29,3.34,26.9,26.9,0,0,1-2.83,1.52c-.51.24-1,.46-1.57.68a2.34,2.34,0,0,1-1.89.14,1,1,0,0,1-.52-1,2,2,0,0,1,.34-.91c.36-.51.71-.91,1.07-1.35q1.08-1.28,2.16-2.37a45.15,45.15,0,0,1,4-3.64c1.21-1,2.24-1.67,3-2.14a5.58,5.58,0,0,1,1.16-.67,7.85,7.85,0,0,1-1,.84c-.69.52-1.67,1.27-2.84,2.26a51.81,51.81,0,0,0-3.92,3.68c-.7.73-1.4,1.52-2.11,2.37-.34.41-.72.87-1,1.3s-.41,1,0,1.15a1.9,1.9,0,0,0,1.46-.17c.52-.2,1-.42,1.53-.65a29.37,29.37,0,0,0,2.8-1.47,27,27,0,0,0,4.29-3.2A42.7,42.7,0,0,0,257.94,243.71Z"/><path class="cls-6" d="M250.68,197.56s.08.24.21.71.31,1.18.49,2.12c.38,1.88.82,4.66,1.25,8.25s.87,8,1.35,13.06c.24,2.54.48,5.26.81,8.12.09.72.18,1.44.3,2.17a4.44,4.44,0,0,1-.15,2.31,9.65,9.65,0,0,1-1,2.13l-.14.24,0,.05h0s.07-.13-.18-.21a.53.53,0,0,1,.24.11,4.63,4.63,0,0,1,.45.42c.28.29.55.59.81.89l-.15-.07c9.49.11,20.4.26,32.29.7,3,.11,6,.26,9.1.48.77.06,1.55.1,2.33.2a10.44,10.44,0,0,1,2.36.41,3.82,3.82,0,0,1,2,1.44,4.63,4.63,0,0,1,.77,2.37,12.57,12.57,0,0,1-.85,4.82,30.19,30.19,0,0,1-2.06,4.48,32.5,32.5,0,0,1-2.76,4.15,9.51,9.51,0,0,1-1.8,1.85,10.83,10.83,0,0,1-2.36,1A78.25,78.25,0,0,1,282.69,262c-3.74.53-7.44.94-11.08,1.29s-7.21.64-10.72.85c-1.76.11-3.5.2-5.22.25a32.35,32.35,0,0,1-5.12-.15,27.94,27.94,0,0,1-16.72-8.68,11.12,11.12,0,0,1-1.4-1.74c-.21-.32-.44-.62-.61-.94l-.5-1c-.7-1.28-1.2-2.6-1.77-3.87-1-2.57-2-5.07-2.81-7.47-3.34-9.59-5.64-17.48-7.24-22.93-.77-2.71-1.37-4.83-1.78-6.29-.19-.7-.34-1.25-.44-1.64s-.13-.56-.13-.56.07.18.18.55.28.92.49,1.63c.44,1.45,1.07,3.55,1.88,6.26,1.66,5.42,4,13.3,7.39,22.86.84,2.39,1.78,4.88,2.83,7.44.57,1.25,1.08,2.58,1.77,3.83l.49,1c.18.32.4.6.59.9a12.29,12.29,0,0,0,1.37,1.7,27.64,27.64,0,0,0,16.47,8.5,33.82,33.82,0,0,0,5,.14c1.71-.06,3.45-.15,5.2-.26q5.25-.33,10.7-.86c3.64-.36,7.33-.77,11.06-1.31a76.7,76.7,0,0,0,11.19-2.24,11,11,0,0,0,2.24-1,8.88,8.88,0,0,0,1.67-1.73,32.63,32.63,0,0,0,2.72-4.09,28.48,28.48,0,0,0,2-4.39,12.24,12.24,0,0,0,.83-4.62,4.06,4.06,0,0,0-.68-2.11,3.36,3.36,0,0,0-1.76-1.25,10.18,10.18,0,0,0-2.25-.39c-.77-.1-1.54-.13-2.31-.2-3.07-.23-6.1-.38-9.07-.49-11.88-.46-22.79-.64-32.28-.78h-.09l-.06-.07c-.26-.3-.52-.6-.79-.88a4.62,4.62,0,0,0-.41-.38s-.07,0,0,0c-.27-.09-.18-.25-.19-.28l0-.06,0-.09.15-.26a9.51,9.51,0,0,0,1-2,4.21,4.21,0,0,0,.14-2.14c-.12-.74-.21-1.47-.29-2.18-.32-2.88-.54-5.6-.77-8.14-.45-5.09-.85-9.48-1.26-13.07s-.79-6.37-1.13-8.25c-.17-.94-.32-1.65-.44-2.12S250.68,197.56,250.68,197.56Z"/><g class="cls-9"><path d="M242.9,242.26a26.06,26.06,0,0,0-5.07,2.74,3.59,3.59,0,0,0-1.06,1.1.61.61,0,0,0-.11.57.55.55,0,0,0,.36.26,4,4,0,0,0,1.33.21c2.15-.06,3.88-1.12,5.67-2s3.54-1.62,5.21-2.62a11.72,11.72,0,0,0,3.53-3.11.37.37,0,0,0-.43-.56C249.28,240,245.86,241.11,242.9,242.26Z"/></g><g class="cls-14"><polygon class="cls-5" points="253.27 215.81 221.45 223.82 224.38 233.09 254.19 225.7 253.27 215.81"/></g><g class="cls-14"><path class="cls-5" d="M278,238.61l-1.08,23.74c3.33-.35,6.6-.79,9.79-1.33l.32-22.23Z"/></g><g id="Logo"><g id="Group"><path id="Vector" class="cls-8" d="M58.27,276.06l2.13-1.6a1.43,1.43,0,0,0,.61-.95,1.3,1.3,0,0,0-.28-1,.83.83,0,0,0-.71-.39,1.65,1.65,0,0,0-.91.39l-2,1.47-1-1.89a1.68,1.68,0,0,0-.94-.88,1.38,1.38,0,0,0-1.18.34,1.68,1.68,0,0,0-.7,1,1.74,1.74,0,0,0,.22,1.2l1.14,2.13-.94.71a1.77,1.77,0,0,0-.7,1,1.21,1.21,0,0,0,.26,1.05A.87.87,0,0,0,54,279a1.41,1.41,0,0,0,.9-.35l.88-.66,2.52,4.74A4.8,4.8,0,0,0,60,284.56a3.27,3.27,0,0,0,2.18.46,5.08,5.08,0,0,0,2.49-1.12,6.06,6.06,0,0,0,.59-.5,4.36,4.36,0,0,0,.48-.55A1.5,1.5,0,0,0,66,282a1.8,1.8,0,0,0-.48-1.1,1,1,0,0,0-.54-.45.62.62,0,0,0-.52.16,1.8,1.8,0,0,0-.37.36,2.27,2.27,0,0,1-.52.49,1.91,1.91,0,0,1-1.51.44q-.75-.14-1.38-1.29l-2.42-4.57Z"/><path id="Vector_2" data-name="Vector 2" class="cls-8" d="M70.74,266.79a3.58,3.58,0,0,0-2.4-.66,5.69,5.69,0,0,0-2.9,1.28,11,11,0,0,0-1.57,1.45,9.71,9.71,0,0,0-1.33,1.86,1.89,1.89,0,0,0-.27.95,1.18,1.18,0,0,0,.26.69,1.07,1.07,0,0,0,.59.34,1.05,1.05,0,0,0,.69-.1,1.47,1.47,0,0,0,.6-.61,7.28,7.28,0,0,1,1-1.38,8.08,8.08,0,0,1,1.17-1.09,2.54,2.54,0,0,1,1.94-.68,2,2,0,0,1,1.37,1.21l.21.4-1.37,1a15.43,15.43,0,0,0-2.86,2.66,4.33,4.33,0,0,0-1.06,2.31,3,3,0,0,0,.69,2.12A3.28,3.28,0,0,0,67,279.75a4.22,4.22,0,0,0,2,.19,4.16,4.16,0,0,0,1.94-.82,4.65,4.65,0,0,0,1.12-1.22,4,4,0,0,0,.57-1.6,4.09,4.09,0,0,0,0-1l.12.22a1.65,1.65,0,0,0,.94.9,1.17,1.17,0,0,0,1.06-.26,1.68,1.68,0,0,0,.7-1,1.87,1.87,0,0,0-.27-1.25l-2.65-5a6.13,6.13,0,0,0-1.83-2.17Zm1,7.46a3,3,0,0,1-.29,1.44,3.13,3.13,0,0,1-1,1.14,2.19,2.19,0,0,1-1.43.48,1.61,1.61,0,0,1-1.27-.72,1.46,1.46,0,0,1-.34-1.06,2.33,2.33,0,0,1,.68-1.17,15.11,15.11,0,0,1,1.78-1.53l1-.77.34.64A3.39,3.39,0,0,1,71.69,274.25Z"/><path id="Vector_3" data-name="Vector 3" class="cls-8" d="M80.6,256.47a1.13,1.13,0,0,0-.94.27,1.91,1.91,0,0,0-.61.74,5.17,5.17,0,0,0-.28,1.09l-1.19,6.49,0,0-3.83-7.44a1.9,1.9,0,0,0-1-.95,1.18,1.18,0,0,0-1.14.24,1.85,1.85,0,0,0-.75,1,1.73,1.73,0,0,0,.22,1.25l6.58,12.56a1.82,1.82,0,0,0,1,.93,1.2,1.2,0,0,0,1.13-.26,1.6,1.6,0,0,0,.54-2.27l-2-3.81,0,0L84,267.75a6.43,6.43,0,0,0,1.22.19,1.58,1.58,0,0,0,1-.38,1.25,1.25,0,0,0,.35-1.75,1.46,1.46,0,0,0-.9-.58l-5.21-1.35,1-5.77A1.62,1.62,0,0,0,81.3,257a1.06,1.06,0,0,0-.7-.55Z"/><path id="Vector_4" data-name="Vector 4" class="cls-8" d="M93.51,251.16A5.27,5.27,0,0,0,91.67,250a4.28,4.28,0,0,0-2.14-.15A5.71,5.71,0,0,0,87.18,251,6.52,6.52,0,0,0,85,253.86a6.61,6.61,0,0,0-.36,3.47,7.6,7.6,0,0,0,1.51,3.43,5.57,5.57,0,0,0,2.35,1.88,5.1,5.1,0,0,0,2.85.27,7,7,0,0,0,3-1.38A9.89,9.89,0,0,0,95.87,260,6.4,6.4,0,0,0,97,258.07a1.55,1.55,0,0,0,.06-.84,1.15,1.15,0,0,0-.88-.93.83.83,0,0,0-.62.13,1.43,1.43,0,0,0-.52.69,5.2,5.2,0,0,1-.83,1.3,8.06,8.06,0,0,1-1.14,1.06,3.36,3.36,0,0,1-2.83.79,3.09,3.09,0,0,1-1.85-1.35l6.34-4.78a1.13,1.13,0,0,0,.41-.49A.89.89,0,0,0,95,253a8.44,8.44,0,0,0-1.44-1.79ZM87.11,256a3.51,3.51,0,0,1,.16-1.73,3.14,3.14,0,0,1,1.17-1.51,2.63,2.63,0,0,1,1.63-.63,2.38,2.38,0,0,1,1.42.5,4.19,4.19,0,0,1,.94,1l-4.91,3.71A5.28,5.28,0,0,1,87.11,256Z"/><path id="Vector_5" data-name="Vector 5" class="cls-8" d="M108.27,244.6a14.58,14.58,0,0,0-.56-1.64.79.79,0,0,0-.6-.59,1,1,0,0,0-.81.25,1.16,1.16,0,0,0-.45.61,1.42,1.42,0,0,0,.08.77c.17.46.3.85.41,1.19a6.25,6.25,0,0,1,.22,1,4.29,4.29,0,0,1,.06.53l-2.77-.73c.17-.43.33-.86.45-1.28a4.89,4.89,0,0,0,.22-1.7,2.94,2.94,0,0,0-.59-1.56,2.32,2.32,0,0,0-1.77-1,3.12,3.12,0,0,0-2.12.71,4.45,4.45,0,0,0-1.33,1.56,3.39,3.39,0,0,0-.36,1.81,3.36,3.36,0,0,0,1.64,2.6,4.44,4.44,0,0,0,1,.45,10.28,10.28,0,0,0-.5,1.33,6.22,6.22,0,0,0-.23,1.38,3.83,3.83,0,0,0,.14,1.31,3.39,3.39,0,0,0,.6,1.2,2.62,2.62,0,0,0,1.34,1,3.11,3.11,0,0,0,1.74,0,5.49,5.49,0,0,0,1.89-1,6,6,0,0,0,1.6-1.8,6.63,6.63,0,0,0,.68-1.75l1.29.34a.85.85,0,0,0,.59,0,1.47,1.47,0,0,0,.93-.93.88.88,0,0,0-.13-.72,1.06,1.06,0,0,0-.71-.44l-1.68-.4c0-.37,0-.72,0-1A8.42,8.42,0,0,0,108.27,244.6Zm-5.66-1.07a2.6,2.6,0,0,1-.14,1,9.81,9.81,0,0,1-.41,1l-.45-.15a2.56,2.56,0,0,1-.5-.26,2,2,0,0,1-.36-.35,1.51,1.51,0,0,1-.34-1.11,1.48,1.48,0,0,1,.63-1,1.11,1.11,0,0,1,.7-.27.76.76,0,0,1,.56.33A1.5,1.5,0,0,1,102.61,243.53Zm-.23,6.54a3.29,3.29,0,0,1,.12-1.07c.11-.35.23-.69.37-1l3.58.91a3.74,3.74,0,0,1-.36,1,3.58,3.58,0,0,1-1,1.16,2.32,2.32,0,0,1-1.33.56,1.16,1.16,0,0,1-.95-.5A2,2,0,0,1,102.38,250.07Z"/><path id="Vector_6" data-name="Vector 6" class="cls-8" d="M118.75,227.85a1.14,1.14,0,0,0-1.11.24,1.88,1.88,0,0,0-.73,1,1.73,1.73,0,0,0,.22,1.25l.37.69a3.45,3.45,0,0,0-2.08-.5,4.74,4.74,0,0,0-2.42,1,5.54,5.54,0,0,0-1.7,2,6,6,0,0,0-.63,2.42,7.46,7.46,0,0,0,.38,2.57,8.63,8.63,0,0,0,1.29,2.43,5.6,5.6,0,0,0,2.1,1.77,4.19,4.19,0,0,0,2.41.35,5.24,5.24,0,0,0,2.4-1.07,4.94,4.94,0,0,0,1.66-2.06,4.3,4.3,0,0,0,.34-2l.86,1.66a3.2,3.2,0,0,1,.37,2.44,4.05,4.05,0,0,1-1.52,2,6.61,6.61,0,0,1-1.66.92,9,9,0,0,1-1.77.49,1.23,1.23,0,0,0-.77.34,1.06,1.06,0,0,0-.3.63,1.26,1.26,0,0,0,.11.69,1.2,1.2,0,0,0,.48.52,1.31,1.31,0,0,0,.83.14,9.07,9.07,0,0,0,2.4-.67,11.76,11.76,0,0,0,2.47-1.44,6.09,6.09,0,0,0,2.54-3.65,6.48,6.48,0,0,0-.85-4.36l-4.72-8.86a2,2,0,0,0-1-1Zm1,7.89a4.06,4.06,0,0,1,0,2.1,3.16,3.16,0,0,1-1.2,1.7,2.64,2.64,0,0,1-2,.61,2.84,2.84,0,0,1-1.81-1.23,5.87,5.87,0,0,1-1-2.06,4.08,4.08,0,0,1,0-2.08,3.08,3.08,0,0,1,1.18-1.69,2.64,2.64,0,0,1,2.07-.62,2.83,2.83,0,0,1,1.8,1.2A5.91,5.91,0,0,1,119.76,235.74Z"/><path id="Vector_7" data-name="Vector 7" class="cls-8" d="M132.27,232.88a6.48,6.48,0,0,1-2.87,1.31,4.68,4.68,0,0,1-2.72-.34,5.93,5.93,0,0,1-2.3-1.92,7.94,7.94,0,0,1-1.37-2.68,6.69,6.69,0,0,1-.2-2.69,6.45,6.45,0,0,1,.85-2.45,7,7,0,0,1,1.81-2,6.55,6.55,0,0,1,2.86-1.31,4.68,4.68,0,0,1,2.72.34,5.83,5.83,0,0,1,2.3,1.92,7.85,7.85,0,0,1,1.37,2.68,6.68,6.68,0,0,1,.2,2.69,6.28,6.28,0,0,1-.85,2.45A7.05,7.05,0,0,1,132.27,232.88Zm-1.37-1.94a3,3,0,0,0,1.15-1.67,4.14,4.14,0,0,0-.1-2.14,6.9,6.9,0,0,0-1.16-2.25,3.23,3.23,0,0,0-1.93-1.37,2.5,2.5,0,0,0-2,.55,3,3,0,0,0-1.14,1.67,4.13,4.13,0,0,0,.08,2.14,6.94,6.94,0,0,0,1.17,2.25,3.23,3.23,0,0,0,1.93,1.37,2.48,2.48,0,0,0,2-.55Z"/></g></g></g></svg>