<svg xmlns="http://www.w3.org/2000/svg" xmlns:xlink="http://www.w3.org/1999/xlink" viewBox="0 0 868 681"><defs><style>.cls-1{fill:none;}.cls-2{isolation:isolate;}.cls-3{fill:#e3ecff;}.cls-4{fill:#af5a5a;}.cls-5{fill:#ed341a;}.cls-6{fill:#ba5b5b;}.cls-7{fill:#d16666;}.cls-8{fill:#f2f2f2;}.cls-9{fill:#eff0f2;}.cls-10{fill:#ced3de;}.cls-11{fill:#4d4d80;}.cls-12{fill:#225d82;}.cls-13{fill:#2c73a8;}.cls-14{fill:#3796d1;}.cls-15{fill:#378ec4;}.cls-16{fill:#fc653c;}.cls-17{fill:#30306b;}.cls-18{fill:#75c7eb;}.cls-19{fill:#fff;}.cls-20{fill:#fa0;}.cls-21{fill:#ffea00;}.cls-22{fill:#4f5f66;mix-blend-mode:screen;}.cls-23{fill:#ffb78c;}.cls-24{fill:#238ddb;}.cls-25{fill:#41446d;}.cls-26{fill:#754600;}.cls-27{fill:#ffe5cc;}.cls-28{fill:#ffd60a;}.cls-29{fill:#ffc400;}.cls-30{fill:#e70317;}.cls-31{fill:#bc6161;}.cls-32{fill:#e6e6e6;}.cls-33{fill:#b3b3b3;}.cls-34{fill:#0039a6;}.cls-35{fill:#de2910;}.cls-36{fill:#ffde00;}.cls-37{fill:#595994;}.cls-38{fill:#6b6cb3;}.cls-39{fill:#c8102e;}.cls-40{fill:#fa8406;}.cls-41{fill:#d52b1e;}.cls-42{fill:#ff8c00;}.cls-43{fill:#b4bccf;}.cls-44{fill:#3a3a61;}.cls-45{fill:#499fd2;}.cls-46{clip-path:url(#clip-path);}.cls-47{fill:#ff5740;}</style><clipPath id="clip-path"><path class="cls-1" d="M429.37,590.52c-4.65-2.08-11.41-1.86-15.58.52-4.69,2.68-4.69,7.06,0,9.76a15,15,0,0,0,4.15,1.55l.42.08.53.11a42.82,42.82,0,0,1,9.31,2.86c1,.55,1,1.31.2,1.79l-22.29,12.95a14.28,14.28,0,0,1-12.95,0l-19-11c-2.83-1.63-7.55-1.39-9.78.53a17.3,17.3,0,0,0-3.86,4.54c0,.1-.11.2-.17.3l-.14.24a7.71,7.71,0,0,1-2.67,2.4c-4.62,2.68-12.12,2.68-16.76,0-4.21-2.46-4.61-6.38-1-9.06a12.77,12.77,0,0,1,4.19-2l1.1-.27,1.06-.26a41.53,41.53,0,0,0,7.43-2.51c3-1.37,3.28-4,.56-5.54l-18.56-10.71c-3.59-2.07-3.61-5.43,0-7.5l21.59-12.55a3.23,3.23,0,0,1,2.83-.05c.46.24.91.49,1.35.74a22.38,22.38,0,0,1,7,6l.45.61a4.25,4.25,0,0,0,.37.53,8.85,8.85,0,0,0,2.38,2,11.69,11.69,0,0,0,1.12.57c4.64,2.08,11.41,1.86,15.58-.52,4.69-2.68,4.68-7.06,0-9.76a14.67,14.67,0,0,0-4.15-1.55l-.42-.09-.52-.1a40.49,40.49,0,0,1-12.54-4.48.89.89,0,0,1,0-1.68l22.91-13.31a12.8,12.8,0,0,1,11.62,0L424.4,556.9c3,1.72,7.91,1.35,10-.73a16.61,16.61,0,0,0,2.78-3.56c.06-.1.13-.2.18-.3l.14-.25a7.86,7.86,0,0,1,2.68-2.4c4.61-2.68,12.12-2.68,16.76,0,4.19,2.47,4.6,6.39,1,9.07a12.5,12.5,0,0,1-4.16,2c-.5.14-.8.21-1.11.27l-1.07.26a44.21,44.21,0,0,0-5.83,1.84c-3.31,1.32-3.76,4-.91,5.68l19.06,11c3.22,1.86,3.24,4.87,0,6.73l-22,12.77a3.21,3.21,0,0,1-2.91,0,21,21,0,0,1-5.43-5.06l-.46-.62a5.52,5.52,0,0,0-.36-.53,8.82,8.82,0,0,0-2.38-2C430.14,590.89,429.77,590.7,429.37,590.52Z"/></clipPath></defs><g class="cls-2"><g id="Layer"><path class="cls-3" d="M163,386.94l-3.77-2.22c-1-.58-.86-1.57.28-2.23l32.78-19.11a4.26,4.26,0,0,1,3.86-.16l3.77,2.22c1,.57.87,1.57-.28,2.23l-32.78,19.11A4.29,4.29,0,0,1,163,386.94Z"/><g class="cls-2"><path class="cls-4" d="M200.2,255.19l-3.87-2.25a3,3,0,0,0-3,.3l3.86,2.24A3,3,0,0,1,200.2,255.19Z"/><path class="cls-5" d="M154.28,318.42l3.86,2.24a2.91,2.91,0,0,1-1.22-2.68l-3.87-2.24A2.92,2.92,0,0,0,154.28,318.42Z"/><polygon class="cls-4" points="156.82 283.75 152.96 281.5 153.05 315.74 156.92 317.98 156.82 283.75"/><polygon class="cls-6" points="197.21 255.48 193.35 253.24 157.13 274.27 161 276.51 197.21 255.48"/><path class="cls-4" d="M161,276.51l-3.87-2.24A9.18,9.18,0,0,0,153,281.5l3.86,2.24A9.22,9.22,0,0,1,161,276.51Z"/><path class="cls-7" d="M161,276.51a9.22,9.22,0,0,0-4.18,7.23l.1,34.24c0,2.65,1.89,3.73,4.21,2.4l36.21-21a9.23,9.23,0,0,0,4.18-7.24l-.1-34.23c0-2.67-1.89-3.74-4.21-2.4Z"/><path class="cls-8" d="M161.33,289.7l34.36-19.85a2.55,2.55,0,0,0,1.08-2.05v-2c0-.8-.48-1.16-1.08-.82l-34.36,19.84a2.59,2.59,0,0,0-1.08,2.06v2C160.25,289.67,160.73,290,161.33,289.7Z"/><path class="cls-8" d="M161.33,297.22l34.36-19.85a2.55,2.55,0,0,0,1.08-2.05v-2c0-.8-.48-1.16-1.08-.82l-34.36,19.84a2.59,2.59,0,0,0-1.08,2.06v2C160.25,297.19,160.73,297.56,161.33,297.22Z"/><path class="cls-8" d="M161.33,304.74l34.36-19.85a2.55,2.55,0,0,0,1.08-2.05v-2c0-.8-.48-1.16-1.08-.82l-34.36,19.84a2.59,2.59,0,0,0-1.08,2.06v2C160.25,304.71,160.73,305.08,161.33,304.74Z"/><path class="cls-8" d="M161.33,312.26l34.36-19.85a2.55,2.55,0,0,0,1.08-2.05v-2c0-.8-.48-1.16-1.08-.82L161.33,307.4a2.59,2.59,0,0,0-1.08,2.06v2C160.25,312.23,160.73,312.6,161.33,312.26Z"/></g><path class="cls-3" d="M214.71,356.63l-3.7-2.14c-1.69-1-1.48-2.68.47-3.8l65.64-38.13a7.33,7.33,0,0,1,6.59-.28l3.7,2.14c1.69,1,1.47,2.68-.48,3.8L221.3,356.35A7.33,7.33,0,0,1,214.71,356.63Z"/><g class="cls-2"><path class="cls-9" d="M287.54,103.82c-1.07-.62-2.56-.53-4.2.42l-73.88,42.65a13,13,0,0,0-5.89,10.2l.14,48.22c0,1.86.66,3.17,1.72,3.78l5.45,3.16c-1.06-.61-1.72-1.92-1.72-3.78L209,160.25a13,13,0,0,1,5.88-10.2l73.89-42.65c1.64-1,3.13-1,4.2-.42Z"/><path class="cls-10" d="M214.9,150.05a13,13,0,0,0-5.88,10.2l.14,48.22c0,3.74,2.66,5.26,5.92,3.38l45.86-26.48,26.21,15-.06-30.08,1.87-1.08A13,13,0,0,0,294.85,159l-.14-48.23c0-3.75-2.66-5.26-5.92-3.37Z"/></g><path class="cls-11" d="M261.71,164.75c0,2.25,1.58,3.16,3.55,2a7.83,7.83,0,0,0,3.55-6.13c0-2.25-1.59-3.15-3.55-2A7.79,7.79,0,0,0,261.71,164.75Z"/><path class="cls-11" d="M251.71,170.52c0,2.25,1.59,3.16,3.56,2a7.85,7.85,0,0,0,3.55-6.13c0-2.25-1.59-3.16-3.55-2A7.8,7.8,0,0,0,251.71,170.52Z"/><path class="cls-11" d="M241.72,176.29c0,2.25,1.59,3.16,3.55,2a7.8,7.8,0,0,0,3.56-6.12c0-2.25-1.59-3.16-3.56-2A7.85,7.85,0,0,0,241.72,176.29Z"/><path class="cls-11" d="M231.73,182.06c0,2.25,1.59,3.15,3.55,2a7.8,7.8,0,0,0,3.56-6.12c0-2.25-1.59-3.16-3.56-2A7.83,7.83,0,0,0,231.73,182.06Z"/><path class="cls-3" d="M166.15,500.09l-54.81-31.65c-2.18-1.25-1.91-3.45.61-4.9l72.61-41.93c2.52-1.45,6.32-1.61,8.5-.35l54.82,31.65c2.17,1.26,1.9,3.45-.61,4.91l-72.62,41.92C172.14,501.19,168.33,501.35,166.15,500.09Z"/><g class="cls-2"><polygon class="cls-12" points="167.46 407.81 167.37 442.12 165.68 441.14 165.78 406.84 167.46 407.81"/><path class="cls-13" d="M208.89,410l-.1,34.3c-11.45-6.61-19.29-6.67-41.42-2.18l.09-34.31C189.59,403.33,197.43,403.38,208.89,410Z"/><polygon class="cls-12" points="212.8 412.25 212.7 446.56 208.79 444.3 208.89 410 212.8 412.25"/><polygon class="cls-12" points="234.96 422.66 234.87 456.96 232.8 458.16 232.9 423.86 234.96 422.66"/><polygon class="cls-13" points="232.9 423.86 232.8 458.16 143 477.81 143.1 443.5 232.9 423.86"/><polygon class="cls-14" points="169.13 461.03 169.03 495.34 120.47 467.3 120.57 433 169.13 461.03"/><polygon class="cls-15" points="193.23 448.33 193.13 482.63 169.03 495.34 169.13 461.03 193.23 448.33"/><path class="cls-16" d="M191.52,447.34l1.71,1L169.13,461l-48.56-28,1.77-1,90.46-19.72L208.89,410c-11.46-6.62-19.3-6.67-41.43-2.19l-1.68-1L188,395.56,235,422.66l-2.06,1.2L143.1,443.5l3.22,1.87C157.44,451.78,174.07,453,191.52,447.34Z"/></g><path class="cls-3" d="M530.56,564.74l-204-117.45c-3.22-1.86-2.82-5.11.9-7.26l6.67-3.85c3.72-2.15,9.35-2.38,12.57-.52l204,117.45c3.22,1.86,2.81,5.11-.9,7.26l-6.68,3.85C539.4,566.37,533.78,566.6,530.56,564.74Z"/><g class="cls-2"><path class="cls-17" d="M549.54,498.22l-11.07,6.43c2-1.19,3.32-3.72,3.33-7.32l11.07-6.44C552.86,494.49,551.59,497,549.54,498.22Z"/><path class="cls-15" d="M325.9,49.78,337,43.34c2.07-1.2,4.95-1,8.12.8L334,50.58C330.84,48.74,328,48.57,325.9,49.78Z"/><polygon class="cls-13" points="542.69 184.19 553.76 177.75 552.87 490.89 541.8 497.32 542.69 184.19"/><polygon class="cls-16" points="334.02 50.58 345.09 44.14 542.37 158.04 531.3 164.47 334.02 50.58"/><path class="cls-15" d="M531.3,164.48,542.37,158c6.31,3.64,11.41,12.46,11.39,19.71l-11.07,6.44C542.71,176.94,537.61,168.12,531.3,164.48Z"/><path class="cls-15" d="M531.3,164.48c6.31,3.64,11.41,12.46,11.39,19.71l-.89,313.14c0,7.25-5.15,10.17-11.46,6.53L333.06,390c-6.31-3.64-11.4-12.47-11.38-19.72l.89-313.14c0-7.25,5.14-10.17,11.45-6.52Z"/><path class="cls-9" d="M530.23,165.69c6.25,3.6,11.29,12.33,11.27,19.5L540.62,495c0,7.17-5.1,10.07-11.34,6.46L334.12,388.75c-6.24-3.61-11.27-12.34-11.25-19.51l.88-309.77c0-7.17,5.08-10.06,11.32-6.46Z"/><path class="cls-18" d="M518.54,191.1c5.49,3.17,9.93,10.86,9.92,17.17l-.78,249.94c0,6.32-4.49,8.87-10,5.69L345.82,364.67c-5.49-3.17-9.93-10.86-9.91-17.18l.77-249.94c0-6.31,4.48-8.86,10-5.68Z"/><path class="cls-19" d="M439.67,258.71V192.94c0-5.33,3.24-7.78,7.24-5.47l59.66,34.45c4,2.3,7.24,8.49,7.24,13.82v65.78c0,5.32-3.24,7.77-7.24,5.46l-59.66-34.44C442.91,270.23,439.67,264,439.67,258.71Z"/><path class="cls-11" d="M506.34,303.1l-59.19-34.17c-2.33-1.34-4.21-4.94-4.21-8V194.53c0-3.1,1.88-4.52,4.21-3.18l59.19,34.18c2.32,1.34,4.2,4.94,4.2,8v66.36C510.54,303,508.66,304.45,506.34,303.1Z"/><path class="cls-8" d="M510.55,233.16v7.72l-24.3,13.86L480,244l28.54-16.27h0A9.75,9.75,0,0,1,510.55,233.16Z"/><path class="cls-8" d="M477.79,242.83l-6.25,3.56-28.6-49.33v-2.93c0-2.88,2-4,4.53-2.59l.88.51Z"/><path class="cls-8" d="M510.55,294v6.37c0,2.15-1.15,3.35-2.78,3.19l-22.67-39.1,6.25-3.57Z"/><path class="cls-5" d="M510.55,233.16v1.17L484.13,249.4l-2.53,1.43-2.48,1.42-2.52,1.44-1.44.81-2.48-4.29,0-.05,1.44-.81,2.52-1.45,2.48-1.41,1.11-.64,1.42-.8,27.85-15.89A8.88,8.88,0,0,1,510.55,233.16Z"/><path class="cls-5" d="M483.17,259.24l-2.52,1.43-4-7-2.49-4.29,0-.05-31.14-53.72v-1.5a3.39,3.39,0,0,1,.95-2.63l30.21,52.1,2.5,4.3,2.52,4.35Z"/><path class="cls-5" d="M510.55,295v5.36c0,.14,0,.27,0,.4l-28.93-49.9-3.6-6.2,1.11-.63,1.41-.82Z"/><path class="cls-8" d="M470.26,253.38l-24.74,14.1a10,10,0,0,1-2.58-6.18v-6.69l21.07-12Z"/><path class="cls-5" d="M480.22,245.91l-1.11.63L476.63,248l-2.52,1.44-1.43.81-28.11,16a9.44,9.44,0,0,1-1.63-4.87L471.58,245l2.52-1.44,3.6-2,1.41,2.45,1.08,1.85Z"/><polygon class="cls-8" points="510.55 255.46 510.55 278.03 487.09 264.49 487.09 291.99 467.42 280.64 467.42 253.13 442.94 239 442.94 216.43 467.42 230.56 467.42 203.06 487.09 214.41 487.09 241.92 510.55 255.46"/><polygon class="cls-5" points="510.55 260.14 510.55 273.35 483.01 257.45 483.01 289.64 471.5 282.99 471.5 250.81 442.94 234.32 442.94 221.11 471.5 237.6 471.5 205.41 483.01 212.06 483.01 244.24 510.55 260.14"/><path class="cls-19" d="M439.67,370.27V304.49c0-5.33,3.24-7.78,7.24-5.47l59.66,34.45c4,2.31,7.24,8.49,7.24,13.82v65.78c0,5.32-3.24,7.77-7.24,5.47l-59.66-34.45C442.91,381.78,439.67,375.59,439.67,370.27Z"/><path class="cls-20" d="M506.34,414.66l-59.19-34.18c-2.33-1.34-4.21-4.94-4.21-8V306.08c0-3.1,1.88-4.52,4.21-3.18l59.19,34.18c2.32,1.34,4.2,4.94,4.2,8v66.35C510.54,414.57,508.66,416,506.34,414.66Z"/><path class="cls-5" d="M510.55,344.71V356.5l-67.61-39V305.68c0-2.88,2-4,4.53-2.59L506,336.89A10,10,0,0,1,510.55,344.71Z"/><path class="cls-5" d="M510.55,401.23v10.65c0,2.88-2,4-4.54,2.59l-58.54-33.8a10,10,0,0,1-4.53-7.82V362.19Z"/><path d="M467.84,289v.5l-3.39-2v3.65l3.39,1.95v.5l-3.39-2v3.65l3.39,2v.5L464,295.58v-8.77Z"/><path d="M469.59,294.61v4.19l-.44-.25v-5.39l.44.25v.35a1.31,1.31,0,0,1,1.36.12,3.63,3.63,0,0,1,1.35,1.37,3.74,3.74,0,0,1,.54,1.82v3.61l-.43-.25v-3.56a2.77,2.77,0,0,0-.43-1.42,2.91,2.91,0,0,0-1-1.08,1,1,0,0,0-1-.11A.68.68,0,0,0,469.59,294.61Z"/><path d="M478.9,303.1l-.26.2a1.81,1.81,0,0,1-1.86-.19,5.27,5.27,0,0,1-1.86-2,5.16,5.16,0,0,1-.77-2.57,1.77,1.77,0,0,1,.77-1.69,1.83,1.83,0,0,1,1.86.19,5.16,5.16,0,0,1,1.86,1.95c.1.18.19.35.27.53v-.76l.43.24v4.19a1.71,1.71,0,0,1-.75,1.64,1.79,1.79,0,0,1-1.85-.19,5.11,5.11,0,0,1-1.86-2,4.63,4.63,0,0,1-.28-.54l.45.08.15.28a4.31,4.31,0,0,0,1.54,1.62,1.49,1.49,0,0,0,1.53.15A1.39,1.39,0,0,0,478.9,303.1Zm0-2.29a4.58,4.58,0,0,0-.6-1.59,4.29,4.29,0,0,0-1.53-1.62,1.51,1.51,0,0,0-1.54-.15,1.46,1.46,0,0,0-.63,1.39,4.72,4.72,0,0,0,2.17,3.74,1.48,1.48,0,0,0,1.53.16,1.27,1.27,0,0,0,.6-.89Z"/><path d="M481.23,296.74v8.78l-.43-.25V296.5Z"/><path d="M483.27,299.54a.82.82,0,0,1,.13.43c0,.14,0,.23-.13.27a.28.28,0,0,1-.3,0,.87.87,0,0,1-.31-.32.84.84,0,0,1-.12-.42q0-.21.12-.27a.3.3,0,0,1,.31,0A.81.81,0,0,1,483.27,299.54Zm-.08,1.72v5.39l-.44-.25V301Z"/><path d="M486,305.51a8.06,8.06,0,0,1-.76-1,2.22,2.22,0,0,1-.34-1.1.78.78,0,0,1,.34-.73.75.75,0,0,1,.79.08,2.11,2.11,0,0,1,.78.79,2,2,0,0,1,.29,1v0l-.37,0a2.06,2.06,0,0,0-.23-.76,1.35,1.35,0,0,0-.47-.48.49.49,0,0,0-.49-.05.47.47,0,0,0-.21.45,1.37,1.37,0,0,0,.21.69c.08.13.25.37.51.71a9.41,9.41,0,0,1,.86,1.18,2.73,2.73,0,0,1,.41,1.36,1,1,0,0,1-.41.9.94.94,0,0,1-1-.1,2.67,2.67,0,0,1-1-1,2.48,2.48,0,0,1-.41-1.26l.42.12a2.17,2.17,0,0,0,1,1.69.68.68,0,0,0,.68.07.67.67,0,0,0,.29-.63,1.86,1.86,0,0,0-.29-.94A7.88,7.88,0,0,0,486,305.51Z"/><path d="M488.55,301l.43.25v3.67a1.33,1.33,0,0,1,1.31.15,4,4,0,0,1,1.89,3.2v3.6l-.43-.25V308a2.79,2.79,0,0,0-.44-1.42,3,3,0,0,0-1-1.08,1,1,0,0,0-1-.11.68.68,0,0,0-.29.29V310l-.43-.25Z"/><path d="M465.39,402.51V403L462,401.05v3.65l3.39,1.95v.5l-3.39-2v3.65l3.39,2v.49l-3.82-2.21v-8.77Z"/><path d="M468,410a9.58,9.58,0,0,1-.76-1,2.18,2.18,0,0,1-.33-1.1.77.77,0,0,1,.33-.73.79.79,0,0,1,.8.08,2.22,2.22,0,0,1,.78.8,2,2,0,0,1,.29.95v0l-.37,0a2.06,2.06,0,0,0-.23-.76,1.28,1.28,0,0,0-.47-.48.47.47,0,0,0-.49-.05.45.45,0,0,0-.21.45,1.34,1.34,0,0,0,.21.68,7.44,7.44,0,0,0,.5.71,9.4,9.4,0,0,1,.87,1.18,2.73,2.73,0,0,1,.41,1.36.85.85,0,0,1-1.39.81,2.84,2.84,0,0,1-1-1,2.58,2.58,0,0,1-.4-1.26l.42.11a2,2,0,0,0,.28,1,1.92,1.92,0,0,0,.69.72.66.66,0,0,0,.68.07.64.64,0,0,0,.28-.62,1.88,1.88,0,0,0-.28-.95C468.51,410.72,468.3,410.43,468,410Z"/><path d="M470.54,408.88l.43.24v.76a1.35,1.35,0,0,1,.27-.2,1.81,1.81,0,0,1,1.86.19,5.21,5.21,0,0,1,1.85,1.95,5,5,0,0,1,.77,2.58,1.59,1.59,0,0,1-2.62,1.49,5.23,5.23,0,0,1-1.86-1.95c-.1-.18-.19-.35-.27-.52v3.15l-.43-.25Zm.43,2.26v1a4.71,4.71,0,0,0,.59,1.58,4.31,4.31,0,0,0,1.54,1.62,1.32,1.32,0,0,0,2.17-1.24,4.34,4.34,0,0,0-.64-2.13,4.26,4.26,0,0,0-1.53-1.61,1.52,1.52,0,0,0-1.54-.16A1.28,1.28,0,0,0,471,411.14Z"/><path d="M482,420.87l-.43-.25v-1.1a1.39,1.39,0,0,1-.27.21,1.79,1.79,0,0,1-1.86-.19,5.23,5.23,0,0,1-1.86-2,5.15,5.15,0,0,1-.76-2.58,1.76,1.76,0,0,1,.76-1.68,1.81,1.81,0,0,1,1.86.18,5.11,5.11,0,0,1,1.86,2,5.28,5.28,0,0,1,.27.53v-.77l.43.25Zm-.43-2.62v-1a4.62,4.62,0,0,0-.6-1.61,4.29,4.29,0,0,0-1.53-1.62,1.52,1.52,0,0,0-1.54-.16,1.48,1.48,0,0,0-.63,1.4,4.23,4.23,0,0,0,.63,2.12,4.39,4.39,0,0,0,1.54,1.62,1.5,1.5,0,0,0,1.53.15A1.25,1.25,0,0,0,481.55,418.25Z"/><path d="M483.85,417.76V422l-.43-.25v-5.39l.43.25v.34a1.31,1.31,0,0,1,1.36.12,3.68,3.68,0,0,1,1.36,1.38,3.8,3.8,0,0,1,.53,1.82v3.6l-.43-.25V420a3.17,3.17,0,0,0-1.46-2.5,1,1,0,0,0-1-.11A.77.77,0,0,0,483.85,417.76Zm1.38-1.9a2.16,2.16,0,0,0,.6.67l0,0c.16.07.27,0,.33-.27l.33.19c-.06.43-.22.62-.47.56a.88.88,0,0,1-.2-.09,1.83,1.83,0,0,1-.55-.56,2.3,2.3,0,0,0-.59-.67h0c-.15-.08-.27,0-.33.26l-.34-.19c.08-.43.23-.62.48-.56a.72.72,0,0,1,.2.09A1.72,1.72,0,0,1,485.23,415.86Z"/><path d="M490.87,420.13a5.76,5.76,0,0,1,2.63,4.53,1.76,1.76,0,0,1-.77,1.68,1.79,1.79,0,0,1-1.86-.19A5.14,5.14,0,0,1,489,424.2a5.06,5.06,0,0,1-.77-2.57,1.75,1.75,0,0,1,.77-1.69A1.79,1.79,0,0,1,490.87,420.13Zm-1.53.37a1.44,1.44,0,0,0-.64,1.39,4.12,4.12,0,0,0,.64,2.12,4.29,4.29,0,0,0,1.53,1.62,1.52,1.52,0,0,0,1.54.16,1.47,1.47,0,0,0,.63-1.4,4.26,4.26,0,0,0-.63-2.12,4.39,4.39,0,0,0-1.54-1.62A1.47,1.47,0,0,0,489.34,420.5Z"/><path d="M495.08,419.65v8.78l-.43-.25V419.4Z"/><path class="cls-19" d="M350.35,207.31V141.53c0-5.33,3.23-7.78,7.23-5.47l59.66,34.45c4,2.31,7.24,8.49,7.24,13.82v65.78c0,5.32-3.24,7.77-7.24,5.47l-59.66-34.45C353.58,218.82,350.35,212.63,350.35,207.31Z"/><path class="cls-11" d="M417,251.7l-59.19-34.18c-2.33-1.34-4.21-4.94-4.21-8V143.12c0-3.09,1.88-4.52,4.21-3.18L417,174.12c2.32,1.34,4.21,4.94,4.21,8v66.35C421.22,251.61,419.33,253,417,251.7Z"/><path class="cls-8" d="M421.22,181.75v21.33l-67.61-39V142.72c0-2.87,2-4,4.53-2.59L416.93,174A9.63,9.63,0,0,1,421.22,181.75Z"/><path class="cls-5" d="M421.22,230.11v18.81c0,2.88-2,4-4.54,2.59l-58.54-33.8a10,10,0,0,1-4.53-7.82V191.07Z"/><path d="M371.23,242.5v3l-.43-.25v-8.77l2,1.16a5.58,5.58,0,0,1,1.49,1.69,5,5,0,0,1,.73,2.45,1.7,1.7,0,0,1-.73,1.61,1.74,1.74,0,0,1-1.77-.18Zm0-5.24V242l1.3.75a1.44,1.44,0,0,0,1.46.15,1.41,1.41,0,0,0,.6-1.33,4.5,4.5,0,0,0-2.06-3.55Z"/><path d="M376.4,250.58l-.48-.28,1.24-2.34-1.79-5.41.48.27,1.54,4.66,1.55-2.87.48.27Z"/><path d="M384.24,251.76l.46.45a1.27,1.27,0,0,1-.29.21,1.79,1.79,0,0,1-1.85-.18,5.8,5.8,0,0,1-2.63-4.54,1.76,1.76,0,0,1,.77-1.68,1.79,1.79,0,0,1,1.86.19,5.13,5.13,0,0,1,1.85,1.95,5.77,5.77,0,0,1,.29.54l-.46-.07c0-.09-.1-.19-.15-.29a4.26,4.26,0,0,0-1.53-1.61,1.47,1.47,0,0,0-1.53-.15,1.44,1.44,0,0,0-.64,1.39,4.21,4.21,0,0,0,.64,2.13,4.26,4.26,0,0,0,1.53,1.61,1.5,1.5,0,0,0,1.53.16C384.14,251.83,384.2,251.8,384.24,251.76Z"/><path d="M389.87,255l.46.45a1.54,1.54,0,0,1-.29.21,1.79,1.79,0,0,1-1.86-.19,5.21,5.21,0,0,1-1.85-1.95,5.1,5.1,0,0,1-.77-2.58,1.75,1.75,0,0,1,.77-1.68,1.77,1.77,0,0,1,1.85.19,5.16,5.16,0,0,1,1.86,1.95c.11.19.2.36.29.54l-.46-.07-.15-.29a4.35,4.35,0,0,0-1.54-1.61,1.47,1.47,0,0,0-1.53-.15,1.46,1.46,0,0,0-.63,1.39,4.75,4.75,0,0,0,2.16,3.73,1.47,1.47,0,0,0,1.54.16Z"/><path d="M394.13,253.37l-1.16,1,1.84,4.81-.52-.31-1.6-4.27-1,.67v2.13l-.43-.25v-5.39l.43.25v2.47l1.84-1.41Z"/><path d="M395.23,254l.43.25v4.56l3-2.83.46.27v5.38l-.42-.24v-4.6l-3,2.84h0l-.43-.25Z"/><path d="M400.1,256.82l.42.25v4.56l3-2.83.46.27v5.38l-.43-.24V259.6l-3,2.85h0l-.42-.24Zm1.17-1.27a1.78,1.78,0,0,0,.22.62,1.6,1.6,0,0,0,.56.59.53.53,0,0,0,.55.05.48.48,0,0,0,.22-.37l.34.2a.7.7,0,0,1-.32.6.76.76,0,0,1-.79-.09,2.49,2.49,0,0,1-1.13-1.81Z"/><path class="cls-19" d="M350.35,320.16V254.39c0-5.33,3.23-7.78,7.23-5.47l59.66,34.45c4,2.3,7.24,8.49,7.24,13.82V363c0,5.33-3.24,7.78-7.24,5.47L357.58,334C353.58,331.68,350.35,325.49,350.35,320.16Z"/><path class="cls-5" d="M417,364.55l-59.19-34.17c-2.33-1.34-4.21-4.94-4.21-8V256c0-3.1,1.88-4.52,4.21-3.18L417,287c2.32,1.34,4.21,4.94,4.21,8v66.36C421.22,364.47,419.33,365.89,417,364.55Z"/><polygon class="cls-21" points="369.79 287.31 363.28 287.48 364.52 279.88 359.26 270.95 366.54 273.94 369.79 268.25 373.04 277.69 380.32 283.11 375.05 285.96 376.3 294.99 369.79 287.31"/><polygon class="cls-21" points="386 279.36 384.14 279.4 384.49 277.22 382.98 274.66 385.07 275.52 386 273.88 386.94 276.6 389.03 278.15 387.52 278.97 387.87 281.56 386 279.36"/><polygon class="cls-21" points="386 306.74 384.14 306.78 384.49 304.6 382.98 302.04 385.07 302.9 386 301.26 386.94 303.98 389.03 305.53 387.52 306.35 387.87 308.94 386 306.74"/><polygon class="cls-21" points="393.96 302.79 392.09 302.84 392.45 300.65 390.94 298.09 393.02 298.95 393.96 297.32 394.89 300.03 396.98 301.58 395.47 302.4 395.83 305 393.96 302.79"/><polygon class="cls-21" points="393.96 292.14 392.09 292.19 392.45 290.01 390.94 287.44 393.02 288.3 393.96 286.67 394.89 289.38 396.98 290.93 395.47 291.75 395.83 294.35 393.96 292.14"/><path d="M384.85,354.61l-3.9-2.25v-1.27l.54.31v-.46l-.54-.31-.68-.39V352l-3.9-2.26v0l-.68-.39v6.25l.68.39v-1.16l3.9,2.26v4.49l.68.39v-4.49l3.9,2.25v1.15l.68.39V355l-.68-.39Zm-8.48-.6v-3.52l3.9,2.25v3.52Zm8.48,4.89-3.9-2.25v-3.52l3.9,2.26Z"/><path d="M399.13,372.31a34.77,34.77,0,0,1-5.65-7,8.1,8.1,0,0,0,3.09-3.16l1.37.79v-.77l-4.41-2.55v-1.27l.53.31v-.45l-.53-.32-.68-.39v1.73l-4.75-2.74v.77l1.13.65a37.71,37.71,0,0,0,3.09,6.74,8.9,8.9,0,0,1-5.65.46l.24,1a9.37,9.37,0,0,0,6-.51,36.51,36.51,0,0,0,6,7.43Zm-9-13.87,5.52,3.19a7.66,7.66,0,0,1-2.76,2.7A35.72,35.72,0,0,1,390.14,358.44Z"/></g><path class="cls-22" d="M528.24,276.76l-.2,66.65-149.9,39.91-32.32-18.65c-5.5-3.18-9.93-10.86-9.91-17.17L336,328Z"/><path class="cls-22" d="M528.45,207.9,336.18,259.09l.06-20.57,181-48.18,1.32.77C523.92,194.22,528.31,201.65,528.45,207.9Z"/><polygon class="cls-22" points="528.42 221.57 528.35 242.14 336.08 293.34 336.14 272.77 528.42 221.57"/><ellipse class="cls-3" cx="274.41" cy="544.52" rx="37.61" ry="65.14" transform="translate(-271.58 815.97) rotate(-89.69)"/><path class="cls-23" d="M248.59,293.28a19.63,19.63,0,0,0-3.17-8.73c-1.85-2.52-4.92-4.33-8-4-2.6.31-3.55,2.19-4.68,4.29A33.66,33.66,0,0,0,230,291.6c-1,3.51-1.74,7.07-2.48,10.63a57,57,0,0,1-3.67,12.26c-.34.76-.67,1.52-1,2.29a98.49,98.49,0,0,0-6,19.86c-1.3,6.91-1.42,14-1.56,21-.1,4.93-.06,9.71-1.84,14.4q-.75,2-1.59,4a5.28,5.28,0,0,0-.6,2.34,5.4,5.4,0,0,0,.5,1.75l1.83,4.34a3.58,3.58,0,0,0,.75,1.26,3.38,3.38,0,0,0,1,.58,39.21,39.21,0,0,0,4.94,1.65,2.93,2.93,0,0,0,1.34.13c.29-.06.55-.2.83-.27,1.09-.28,2.27.44,3.32.06.24-.08.46-.22.7-.28s.49,0,.72-.1a1.71,1.71,0,0,0,1.08-2,5,5,0,0,0-1.16-2.15q-1.85-2.36-3.67-4.72a8.53,8.53,0,0,1-1.37-2.15c.54,0,1.09,0,1.64,0a.63.63,0,0,1,.33.09.6.6,0,0,1,.18.32,17.84,17.84,0,0,0,2.68,5.38,3.86,3.86,0,0,0,1.19,1.19,1.51,1.51,0,0,0,1.61,0c.7-.52.58-1.58.39-2.42-.47-2.12-.95-4.23-1.42-6.35a5.31,5.31,0,0,0-1.58-3.24c-.58-.44-1.62-.62-2-1.24-.57-.88-.52-2.75-.4-3.74A144.6,144.6,0,0,1,229.22,351c2.54-6.59,4.62-13.42,7.3-19.93,2.46-6,5.85-11.55,8.65-17.38,1.68-3.48,4-7.72,4-11.65A50.07,50.07,0,0,0,248.59,293.28Z"/><path class="cls-24" d="M259.12,267.85a27.84,27.84,0,0,0,1.9-2.43,21,21,0,0,0-23,7.48c-4.39,5.85-7.05,12.81-9.13,19.82a5.24,5.24,0,0,0-.29,2.73,4.53,4.53,0,0,0,.67,1.38,21.59,21.59,0,0,0,6.57,6.58c3.74,2.41,8.24,3.39,12.68,3.75a6.49,6.49,0,0,0,3.1-.3c2.24-1,1.44-3.33,1.16-5.19a50.75,50.75,0,0,1-.55-7.28,59.79,59.79,0,0,1,1.73-14.53,16.34,16.34,0,0,0,.67-2.89,9.34,9.34,0,0,1,.06-2,12,12,0,0,1,2.24-4.37C257.58,269.62,258.36,268.74,259.12,267.85Z"/><path class="cls-25" d="M220.25,547.23a16.65,16.65,0,0,0-1.34,2.45c-1.53,3.85-.71,9.28,3.72,10.71a8.75,8.75,0,0,0,4.76-.07c1.56-.39,3.08-1,4.66-1.23,3-.52,6,0,9,.39s6.12.52,8.87-.7A9.91,9.91,0,0,0,255,552.9c.84-2.41,1.43-5.95-1.49-7-1.85-.68-3.88-.6-5.83-.84a18.51,18.51,0,0,1-8.94-3.62,7.51,7.51,0,0,1-1.65-1.53c-.39-.57-.35-.92-1.07-1.23a28.84,28.84,0,0,0-5.59-1.23,8.56,8.56,0,0,0-4.89.22c-3.24,1.32-3.19,5.53-4.53,8.25a12.33,12.33,0,0,1-.68,1.23Z"/><path class="cls-4" d="M287.07,398.58c-1.66-2.56-2.26-5.63-3-8.6a97.93,97.93,0,0,0-6.32-18.39,18.14,18.14,0,0,0-3.58-5.66c-2.34-2.27-5.63-3.25-8.83-3.91-2.64-.56-5.57-.07-7.23,2.26-1.11,1.55-2.23,3.09-3.29,4.68-.7,1.06-1.84,1.56-2.49,2.59a52.2,52.2,0,0,0-8.15,24.71c-.27,5.25.31,10.55.59,15.77s-.55,10.35-1,15.5c-1.06,12.35-4.82,24.65-9.92,36a105.88,105.88,0,0,0-7.08,19.44,107,107,0,0,0-2.38,15.83c-.25,3-.41,6-.52,9-.31,8.16-.3,16.33-.85,24.48-.16,2.37-.37,4.73-.65,7.09-.14,1.18-.34,2.36-.47,3.54-.33,3,5,2.82,6.78,2.81a23.71,23.71,0,0,0,9.35-2c1.29-.56,1.43-1,1.35-2.23-.1-1.58.89-11.53,1.35-14.86.86-6.23,1.76-12.86,3.72-18.85s4.36-11.81,6.51-17.7c1.24-3.4,9.65-24.85,10.76-27.25q3.87-8.44,7.76-16.89c3.55-7.71,7.09-15.43,10.33-23.28,2.86-6.91,5.47-13.93,7.75-21.06a3.35,3.35,0,0,0,.24-1.39A4.13,4.13,0,0,0,287.07,398.58Z"/><path class="cls-25" d="M290.7,549a5.55,5.55,0,0,0,1.41,3.82,5.1,5.1,0,0,0,3.59,1.46,10.18,10.18,0,0,0,3.88-.78c4.42-1.68,8.15-4.86,12.6-6.44,2.56-.91,5.32-1.27,7.71-2.55a16.3,16.3,0,0,0,3.61-2.74,17.35,17.35,0,0,0,4.5-6.59c.74-2,1.8-6.29-.31-7.87-2.31-1.73-4.94-1.86-7.73-1.64a49.19,49.19,0,0,0-13.71,3c-1.49.57-3,1.2-4.39,1.89a18.16,18.16,0,0,0-3.58,1.87,17.19,17.19,0,0,0-3.47,4.08,25,25,0,0,0-3.64,8.42A17.82,17.82,0,0,0,290.7,549Z"/><path class="cls-7" d="M318.27,371c-.6,4.11-1.42,7.15-5.67,8.48a17.81,17.81,0,0,1-8.31.27,31.69,31.69,0,0,1-10.93-4c-4.32-2.58-8-6.18-12.53-8.39-4.92-2.39-10-2.26-13.58,2.45-2.25,3-3.1,6.8-3.49,10.53-1.31,12.78,3.76,25.13,14.59,32.38,1.6,1.06,3.33,2,4.41,3.63a11.36,11.36,0,0,1,1.56,5c1.21,9.21.32,18.44.9,27.64a279.35,279.35,0,0,1,.34,28.94c-.21,5.31-.56,10.62-.41,15.94a71.51,71.51,0,0,0,2.53,15.46c1.23,5,2.21,10.17,3,15.27.46,2.82.87,5.64,1.25,8.47.1.8.5,7.5,1,7.65a14.5,14.5,0,0,0,13.74-3,3,3,0,0,0,.77-1,3.07,3.07,0,0,0,.16-1.09l1.47-44.44c.45-13.39,2.09-25.65,6.27-38.44,2.09-6.41,4.38-12.76,6.12-19.27A127.88,127.88,0,0,0,324.69,414c1.47-13.62-.95-27.44-5.44-40.3C318.93,372.76,318.61,371.86,318.27,371Z"/><path class="cls-16" d="M255.66,264.52c-4.13.33-8,1.63-10.87,4.57-5.74,5.8-7,15.55-6.08,23.31a55.82,55.82,0,0,0,6.38,20.16c2.77,5.11,6.38,9.86,8,15.44,2.52,8.44-4.52,40.73-5,48.25-.15,2.36-.06,3.06,1.61,4.88a47.2,47.2,0,0,0,18.46,12,76.49,76.49,0,0,0,21.72,4.24c10.37.66,21.17-.24,30.33-5.12a7.81,7.81,0,0,0,2.05-1.44c1.26-1.36,1.49-3.37,1.43-5.21-.1-3.4-1.38-6.62-2-9.94-3.2-16-7-32.27-5.39-48.54.63-6.46,2.1-12.8,3.37-19.15,1.12-5.58,3.93-12.87-.46-17.49-7-7.35-16.56-11.57-25.86-15.61-5.68-2.46-11.37-4.91-17.26-6.82C270.39,266.18,262.6,264,255.66,264.52Z"/><path class="cls-23" d="M299.13,232.9c0,.28,0,.56-.05.84a11.74,11.74,0,0,0,.14,4.14,34.64,34.64,0,0,1,1.28,3.93,12.31,12.31,0,0,1-.41,4.78q-.78,3.43-1.67,6.83c-.46,1.73-1,3.56-2.34,4.74-.64.56-1.43.93-2.11,1.44-2.34,1.72-3.3,4.77-3.46,7.66s.36,5.78.32,8.67a47,47,0,0,1-15.43,1.52c-4.39-.29-8.94-1.3-12.28-4.16a1.38,1.38,0,0,1-.41-.49,1.51,1.51,0,0,1,0-.79c.76-7.07-4-13.15-5.4-19.81-1.35-6.51-2.44-13.21-1.35-19.76s4.7-13,10.65-15.94c4-2,8.57-2.21,13-2a30.7,30.7,0,0,1,11.2,2.17,14.07,14.07,0,0,1,7.83,8C299.5,227.27,299.32,230.12,299.13,232.9Z"/><path class="cls-26" d="M292.69,216.47a20.62,20.62,0,0,0-6-2.82,30.1,30.1,0,0,0-7.86-1.38c-11.26-.34-20.6,6.72-24,17.39-.3.93-.56,1.88-.79,2.83a40.42,40.42,0,0,0,.3,19.46,41,41,0,0,0,3.59,9.11,38.59,38.59,0,0,0,2.61,4.15c1.15,1.59,1.76,2.41,3.76,2.71,5.26.77,10.59-1,15.26-3.59a41.64,41.64,0,0,0,15.36-14.07c5.7-9,7.68-22.35.57-31.2A13.63,13.63,0,0,0,292.69,216.47Z"/><path class="cls-27" d="M382.77,216.89a3.35,3.35,0,0,0-2.7-.92,1.88,1.88,0,0,0-1.08-1.45,4.39,4.39,0,0,1-1.52-1.12,10.43,10.43,0,0,0-.62-1.08c-.7-.76-2-.34-2.88.11s-2.24.8-2.85,0a2.17,2.17,0,0,1-.29-1.28c0-4.12,1.94-8.17,1.25-12.23-.11-.7-.46-1.52-1.17-1.58s-1.08.51-1.38,1a18.06,18.06,0,0,0-1.69,5.7l-.93,5.16c-.53,2.92-1.06,5.85-1.54,8.78a26,26,0,0,0-.51,6.64c.13,1.5.71,3.07.73,4.56,0,1.23-5.86,22-7.28,26.29-1,3.17-2,6.35-2.87,9.58a21.69,21.69,0,0,0-.68,3.75c-3.62,2.12-16.74,9.52-19.8,10.68s-5.87,1.59-8.14,4a3.92,3.92,0,0,0-.83,1.16,4.57,4.57,0,0,0,.09,2.56,22.92,22.92,0,0,1-2.59,16,6.09,6.09,0,0,0-1.13,2.83c4.15-.2,8.35-.41,12.3-1.66,4.65-1.46,8.74-4.29,12.68-7.17,3-2.22,6-4.49,9-6.82a81.77,81.77,0,0,0,11.75-10.7c3.32-3.87,4.07-8.25,5.38-13A79.74,79.74,0,0,0,376,249.46c.23-4.34.26-8.73,1.27-13,.46-1.91.43-3.81,1.47-5.51a15.91,15.91,0,0,0,2.14-6.81,8.61,8.61,0,0,1,.59-2.4c.37-.82,1-1.52,1.35-2.34A2.54,2.54,0,0,0,382.77,216.89Z"/><path class="cls-24" d="M316.26,280.53c-2.46.06-4.91.19-7.36.45-3.95.43-8.68.86-11.93,3.35-2.61,2-3.32,5.18-3.31,8.3s2.3,7.07,4,9.61c4.07,6,11.62,8.41,18.58,8.31a46.8,46.8,0,0,0,9.14-1c1.51-.33,3.59-.79,4.79-1.85,1.45-1.28,2.49-3.62,3.29-5.35a28,28,0,0,0,2.63-12.52c-.1-3.86-1.45-9.2-6.21-9.26l-7.34-.05C320.47,280.48,318.37,280.48,316.26,280.53Z"/><path class="cls-26" d="M260.47,273.29a15.08,15.08,0,0,0-3.4,13.8,8.9,8.9,0,0,1,.46,2.26,9.3,9.3,0,0,1-.54,2.42,13.11,13.11,0,0,0-.11,6.67,10,10,0,0,1,.57,3.18,10.49,10.49,0,0,1-.75,2.59,12.44,12.44,0,0,0,.15,8.57,6.61,6.61,0,0,1,.58,5.91,12.54,12.54,0,0,0,1.18,8.29,8,8,0,0,1,1,2.3,6.06,6.06,0,0,1-.24,2.46l-2.61,11a60.16,60.16,0,0,0-2,12.33,30.42,30.42,0,0,0,4.26,16.3c2.52-.84,4.1-3.33,5.16-5.77a32.13,32.13,0,0,0,2-18.92,40,40,0,0,0-3.42-9.72,3,3,0,0,1-.45-1.72,3.25,3.25,0,0,1,.94-1.53,13.32,13.32,0,0,0,1.87-14.2A8.35,8.35,0,0,1,264,316.6c-.1-1.29.6-2.49,1.08-3.7a11.91,11.91,0,0,0,.41-7.55,4.89,4.89,0,0,1-.33-2,5.18,5.18,0,0,1,.68-1.63A9.83,9.83,0,0,0,264.43,291a25.57,25.57,0,0,0,3.34-5.85,8.57,8.57,0,0,0-.08-6.58,4.88,4.88,0,0,1-.73-2,3.69,3.69,0,0,1,.74-1.84c1.74-2.83,3-6.15,2.48-9.44-.54-3.63-4.3-8.08-8-5.09-1.71,1.37-2.33,3.7-2.59,5.77a15.1,15.1,0,0,0,0,3.68C259.6,270.11,260.54,273.2,260.47,273.29Z"/><path class="cls-3" d="M592.45,652.91l-95.74-55.28c-3.57-2.06-3.12-5.66,1-8l146.22-84.42c4.12-2.37,10.35-2.63,13.92-.57l95.74,55.27c3.57,2.06,3.12,5.66-1,8L606.37,652.33C602.25,654.71,596,655,592.45,652.91Z"/><polygon class="cls-21" points="508.21 588.19 593.52 538.71 605.24 604.18 592.87 636.87 583.44 634.92 508.21 588.19"/><polygon class="cls-9" points="517.28 562.46 517.28 586.32 593.15 630.16 593.15 611.25 586.93 603.08 517.28 562.46"/><polygon class="cls-10" points="517.28 575.92 555.22 597.8 517.28 578.46 517.28 575.92"/><path class="cls-20" d="M591.86,639.19l130.29-75.1.37-.21a6.14,6.14,0,0,0,3-5.31V537.18l-3.88,2.24-19.35,11.17-4.64,2.67L595.88,612l-2.13,22.5Z"/><path class="cls-28" d="M580.05,596.84,595.88,612l101.76-58.73,4.64-2.67,19.35-11.17,3.88-2.24a10.49,10.49,0,0,0-5.25-9.09L709.68,522l0,0L705,524.69l-23.79,13.74-4.65,2.67Z"/><path class="cls-10" d="M593.16,611.26v18.9l-2.71-1.55V623a30.25,30.25,0,0,0-.21-5.47,10.18,10.18,0,0,0-2.67-4.91,3,3,0,0,0-.25-.25c-4-4.07-9.28-6.58-14.16-9.37l-14.24-8.13q-7.63-4.38-15.28-8.74L529.46,578l-11-6.29c-.38-.23-.79-.46-1.18-.67v-8.54l69.65,40.63Z"/><path class="cls-29" d="M587.29,633.85l-7.24-4.18-71.84-41.48v5.35L580.05,635l6.49,3.74a6.2,6.2,0,0,0,9.34-5.39V612a10.47,10.47,0,0,0-5.25-9.09l-10.58-6.11v.06l-71.84-41.48v5.35l71.84,41.47,6.49,3.75a6.5,6.5,0,0,0,.65.32l.85.5a7.86,7.86,0,0,1,4,6.83v17.53A3.14,3.14,0,0,1,587.29,633.85Z"/><polygon class="cls-21" points="508.21 555.37 580.05 596.85 709.68 521.99 637.84 480.57 508.21 555.37"/><path class="cls-8" d="M642.36,603.22v1.17l-7.85,4.53V595.59l7.71-4.44v1.16l-6.55,3.78v4.81l5.7-3.3v1.11l-5.7,3.29v5.09Z"/><path class="cls-8" d="M647.05,601.87a6.36,6.36,0,0,1-2,.75,2.68,2.68,0,0,1-1.64-.14l.51-1.16a3.08,3.08,0,0,0,1.47.17,4.48,4.48,0,0,0,1.61-.59,5.4,5.4,0,0,0,1.65-1.43,2.88,2.88,0,0,0,.62-1.72.85.85,0,0,0-.17-.59.71.71,0,0,0-.48-.2,2.87,2.87,0,0,0-.81.1c-.32.08-.7.19-1.13.32a12.86,12.86,0,0,1-1.28.33,2.62,2.62,0,0,1-.9,0,.71.71,0,0,1-.52-.34,1.66,1.66,0,0,1-.18-.87,4.21,4.21,0,0,1,.26-1.44,5.42,5.42,0,0,1,.69-1.33,6.83,6.83,0,0,1,1-1.14,7.74,7.74,0,0,1,1.24-.91,5,5,0,0,1,1.79-.67,2,2,0,0,1,1.31.22l-.55,1.06a1.63,1.63,0,0,0-1.16-.17,4,4,0,0,0-1.42.54,4.84,4.84,0,0,0-.82.58,3.74,3.74,0,0,0-.67.71,3.53,3.53,0,0,0-.45.83,2.63,2.63,0,0,0-.17.92,1.05,1.05,0,0,0,.12.57.46.46,0,0,0,.38.2,2.11,2.11,0,0,0,.66-.07c.27-.06.6-.15,1-.27a13.78,13.78,0,0,1,1.45-.38,2.86,2.86,0,0,1,1-.08.9.9,0,0,1,.63.36,1.68,1.68,0,0,1,.21.93,4.65,4.65,0,0,1-.9,2.66A7.43,7.43,0,0,1,647.05,601.87Z"/><path class="cls-8" d="M656.6,596.36a2.9,2.9,0,0,1-1.92.47,2.12,2.12,0,0,1-1.34-.81v6l-1.12.65V588.92l1-.58v1.89a10.23,10.23,0,0,1,1.37-2.28,6.56,6.56,0,0,1,1.83-1.62,3.22,3.22,0,0,1,1.63-.52,2.06,2.06,0,0,1,1.28.38,2.62,2.62,0,0,1,.85,1.13,4.59,4.59,0,0,1,.3,1.72,8.3,8.3,0,0,1-.28,2.12,9.14,9.14,0,0,1-.8,2.07,8.49,8.49,0,0,1-1.23,1.81A6.24,6.24,0,0,1,656.6,596.36Zm-.32-1a4.69,4.69,0,0,0,1.26-1.07,6.8,6.8,0,0,0,1-1.45,7.54,7.54,0,0,0,.62-1.61,6,6,0,0,0,.21-1.58,3.52,3.52,0,0,0-.24-1.36,1.94,1.94,0,0,0-.68-.87,1.69,1.69,0,0,0-1-.28,2.82,2.82,0,0,0-1.26.41,4.85,4.85,0,0,0-.89.72,8.83,8.83,0,0,0-.88,1,8.55,8.55,0,0,0-.69,1.17,3.64,3.64,0,0,0-.35,1.13v3a2.12,2.12,0,0,0,.5.69,1.74,1.74,0,0,0,.69.38,1.92,1.92,0,0,0,.83,0A2.53,2.53,0,0,0,656.28,595.41Z"/><path class="cls-8" d="M664.53,591.78a3.06,3.06,0,0,1-1.13.41,1.64,1.64,0,0,1-.9-.12,1.41,1.41,0,0,1-.61-.62,2.46,2.46,0,0,1-.21-1.07,3.92,3.92,0,0,1,.26-1.34,6.33,6.33,0,0,1,.75-1.36,7.41,7.41,0,0,1,1.13-1.27,9.11,9.11,0,0,1,1.45-1,10.78,10.78,0,0,1,1.33-.64,5.68,5.68,0,0,1,1.2-.32v-.88c0-.86-.21-1.42-.64-1.68s-1-.17-1.77.27a6.25,6.25,0,0,0-1.35,1.07,14.81,14.81,0,0,0-1.4,1.68l-.4-.62a11.45,11.45,0,0,1,3.23-3.14c1.07-.62,1.92-.77,2.53-.43s.92,1.11.92,2.32v4.41c0,.35.14.44.41.29v1.12a4.64,4.64,0,0,1-.42.31.8.8,0,0,1-.67.14c-.16-.07-.24-.25-.25-.53l0-.75a9,9,0,0,1-1.49,2.21A8.12,8.12,0,0,1,664.53,591.78Zm.26-1.13a7,7,0,0,0,1.61-1.3,6.51,6.51,0,0,0,1.11-1.64,2.39,2.39,0,0,0,.22-.5,1.3,1.3,0,0,0,.07-.4v-1.6a5.37,5.37,0,0,0-1.16.3,7.37,7.37,0,0,0-1.22.57,6.57,6.57,0,0,0-1.93,1.67,3.28,3.28,0,0,0-.74,1.92,1.54,1.54,0,0,0,.16.75,1,1,0,0,0,.43.44,1.05,1.05,0,0,0,.65.08A2.17,2.17,0,0,0,664.79,590.65Z"/><path class="cls-8" d="M678.55,583.49l-1.12.65v-5.46a3.8,3.8,0,0,0-.45-2.27c-.3-.36-.77-.35-1.39,0a5.12,5.12,0,0,0-1,.77,7.28,7.28,0,0,0-.91,1.12,9.41,9.41,0,0,0-.75,1.32,6.56,6.56,0,0,0-.48,1.39v6l-1.12.64v-9.77l1-.59v2.21a10,10,0,0,1,1.51-2.6A7.59,7.59,0,0,1,676,575a2.38,2.38,0,0,1,1.2-.39,1,1,0,0,1,.79.38,2.56,2.56,0,0,1,.43,1.09,9.06,9.06,0,0,1,.13,1.67ZM676,573a2.2,2.2,0,0,1-.65.27,3.08,3.08,0,0,1-.51,0h-.46a1,1,0,0,0-.49.16,1.34,1.34,0,0,0-.43.38,2.16,2.16,0,0,0-.25.43,1.46,1.46,0,0,0-.11.37,1.52,1.52,0,0,0,0,.19l-.69.4a3.24,3.24,0,0,1,.06-.42,3.19,3.19,0,0,1,.22-.72,3.59,3.59,0,0,1,.46-.79,2.37,2.37,0,0,1,.76-.68,1.64,1.64,0,0,1,.6-.22,2.6,2.6,0,0,1,.48,0h.47a1.39,1.39,0,0,0,.55-.19,1.64,1.64,0,0,0,.5-.43,1.83,1.83,0,0,0,.29-.46,1.71,1.71,0,0,0,.13-.38c0-.11,0-.17,0-.2l.69-.39a3.18,3.18,0,0,1-.06.41,5,5,0,0,1-.24.72,4.1,4.1,0,0,1-.5.82A2.63,2.63,0,0,1,676,573Z"/><path class="cls-8" d="M684.59,580.19a3.88,3.88,0,0,1-1.71.59,2.13,2.13,0,0,1-1.34-.33,2.28,2.28,0,0,1-.88-1.1,4.45,4.45,0,0,1-.31-1.75,7.41,7.41,0,0,1,.32-2.14,10.16,10.16,0,0,1,2.22-4,7.11,7.11,0,0,1,1.7-1.39,3.8,3.8,0,0,1,1.7-.57,2.15,2.15,0,0,1,1.35.33,2.36,2.36,0,0,1,.89,1.1,4.29,4.29,0,0,1,.32,1.76,7.71,7.71,0,0,1-.31,2.12,10.07,10.07,0,0,1-2.23,4A7.3,7.3,0,0,1,684.59,580.19ZM681.48,577a3.57,3.57,0,0,0,.24,1.39,2,2,0,0,0,.67.85,1.57,1.57,0,0,0,1,.27,2.7,2.7,0,0,0,1.21-.4,5.12,5.12,0,0,0,1.21-1,7.2,7.2,0,0,0,1-1.42,8.11,8.11,0,0,0,.68-1.64,6.22,6.22,0,0,0,.25-1.68,3.67,3.67,0,0,0-.25-1.39,1.93,1.93,0,0,0-.68-.86,1.64,1.64,0,0,0-1-.27,2.56,2.56,0,0,0-1.21.39,4.63,4.63,0,0,0-1.2,1,7.65,7.65,0,0,0-1,1.42,8.91,8.91,0,0,0-.68,1.66A6.32,6.32,0,0,0,681.48,577Z"/><path class="cls-8" d="M690.78,562.73l1.12-.64v11.48c0,.36.08.6.26.7s.42.07.74-.12a2.63,2.63,0,0,0,.43-.3,6.1,6.1,0,0,0,.46-.41l.2.91a6.76,6.76,0,0,1-.77.69,5.59,5.59,0,0,1-.78.54c-.52.3-.92.37-1.22.21s-.44-.54-.44-1.14Z"/><path class="cls-21" d="M624.3,618.68l-15.65,9c-.61.35-1.11,0-1.11-.84V609.33a2.66,2.66,0,0,1,1.11-2.12l15.65-9c.62-.35,1.11,0,1.11.84v17.55A2.63,2.63,0,0,1,624.3,618.68Z"/><path class="cls-30" d="M625.42,598.91V602l-17.88,10.32v-3.11a2.65,2.65,0,0,1,1.2-2.07l15.48-8.94C624.88,597.84,625.42,598.15,625.42,598.91Z"/><path class="cls-30" d="M625.42,613.85v2.82a2.63,2.63,0,0,1-1.2,2.06l-15.48,8.94c-.66.38-1.2.08-1.2-.68v-2.82Z"/><path class="cls-30" d="M532.19,584.69a5.4,5.4,0,0,0-1,.72,12.26,12.26,0,0,0-2.2,3.08,11.21,11.21,0,0,0-.57,1.21c-1.18,2.47-2.06,5.09-3.42,7.48a19,19,0,0,1-8.82,7.75l.64-5.33-9.42.15a18.82,18.82,0,0,0,8.77-7.75c1.37-2.35,2.25-5,3.39-7.44.19-.42.38-.84.6-1.25a12.3,12.3,0,0,1,2.21-3.08,4.71,4.71,0,0,1,.87-.69Z"/><polygon class="cls-31" points="525.83 549.69 611.14 500.2 622.86 565.67 610.49 598.36 601.06 596.41 525.83 549.69"/><polygon class="cls-32" points="534.91 523.96 534.91 547.82 610.78 591.65 610.78 572.75 604.56 564.57 534.91 523.96"/><polygon class="cls-33" points="534.91 543.83 572.84 565.71 534.91 546.37 534.91 543.83"/><path class="cls-4" d="M609.48,600.68l130.3-75.1.37-.21a6.15,6.15,0,0,0,3-5.31V498.67l-3.88,2.25-19.34,11.16-4.65,2.67L613.5,573.48,611.38,596Z"/><path class="cls-31" d="M597.68,558.33l15.82,15.15,101.76-58.73,4.65-2.67,19.34-11.16,3.88-2.25a10.49,10.49,0,0,0-5.25-9.09l-10.57-6.09,0,0-4.63,2.67-23.79,13.74-4.64,2.67Z"/><path class="cls-8" d="M610.78,572.75v18.9l-2.71-1.55v-5.66a29.22,29.22,0,0,0-.21-5.46,10,10,0,0,0-2.67-4.92,3,3,0,0,0-.25-.25c-4-4.06-9.28-6.57-14.16-9.37s-9.5-5.43-14.23-8.13q-7.65-4.38-15.28-8.74l-14.18-8.11c-3.66-2.11-7.34-4.2-11-6.3-.39-.23-.8-.46-1.19-.67V524l69.66,40.63Z"/><path class="cls-4" d="M604.91,595.34l-7.23-4.18-71.85-41.47V555l71.85,41.48,6.49,3.74a6.13,6.13,0,0,0,3,.85,6.24,6.24,0,0,0,6.35-6.24V573.48a10.48,10.48,0,0,0-5.24-9.09l-10.58-6.1v.05l-71.85-41.48v5.35l71.85,41.48,6.49,3.74a5.46,5.46,0,0,0,.64.32l.86.5a7.88,7.88,0,0,1,4,6.83v17.53A3.15,3.15,0,0,1,604.91,595.34Z"/><polygon class="cls-7" points="525.83 516.87 597.67 558.34 727.31 483.48 655.47 442.06 525.83 516.87"/><path class="cls-34" d="M559.92,558.62a5.8,5.8,0,0,0-.95.72,12.71,12.71,0,0,0-2.2,3.08,12.19,12.19,0,0,0-.57,1.21c-1.18,2.47-2.05,5.09-3.42,7.49a19,19,0,0,1-8.81,7.74l.64-5.33-9.42.15a18.87,18.87,0,0,0,8.77-7.75c1.37-2.35,2.24-5,3.38-7.44.19-.42.38-.84.61-1.25a12.71,12.71,0,0,1,2.2-3.08,4.71,4.71,0,0,1,.88-.68Z"/><path class="cls-8" d="M674,545l-6.06,3.5v-2l.83-.49v-.7l-.83.48-1,.61v2.68l-6.07,3.5v0l-1,.6v9.7l1-.6v-1.8l6.07-3.5v7l1-.61v-7l6.06-3.5v1.8l1-.61v-9.7l-1,.61Zm-13.18,14.28V553.8l6.07-3.5v5.47ZM674,551.66l-6.06,3.5V549.7l6.06-3.51Z"/><path class="cls-8" d="M696.13,546.87a13.8,13.8,0,0,1-8.78-.73,58.53,58.53,0,0,0,4.81-10.46l2.12-1.22v-1.21l-6.85,4v-2l.83-.48v-.7l-.83.48-1,.61v2.68L679,542.08v1.2l1.75-1a12.67,12.67,0,0,0,4.8,4.91,53.84,53.84,0,0,1-8.78,10.87l.38,1.16a57.06,57.06,0,0,0,9.3-11.54,14.56,14.56,0,0,0,9.31.8Zm-14-5.42,8.57-5a56.29,56.29,0,0,1-4.29,9.16A12,12,0,0,1,682.17,541.45Z"/><path class="cls-32" d="M639.77,581.75l-15.65,9c-.61.36-1.11,0-1.11-.84V572.4a2.69,2.69,0,0,1,1.11-2.13l15.65-9c.62-.36,1.12,0,1.12.84v17.54A2.67,2.67,0,0,1,639.77,581.75Z"/><path class="cls-35" d="M639.15,581.29l-14.4,8.32c-.57.33-1,0-1-.77V572.68a2.43,2.43,0,0,1,1-1.95l14.4-8.32c.57-.33,1,0,1,.77v16.16A2.43,2.43,0,0,1,639.15,581.29Z"/><polygon class="cls-36" points="627.55 575.76 625.93 577.67 626.24 575.42 624.93 574.71 626.74 573.36 627.55 571 628.36 572.42 630.18 571.67 628.87 573.9 629.18 575.8 627.55 575.76"/><polygon class="cls-36" points="631.6 569.1 631.13 569.65 631.22 569 630.84 568.8 631.37 568.41 631.6 567.74 631.83 568.14 632.35 567.93 631.98 568.57 632.06 569.11 631.6 569.1"/><polygon class="cls-36" points="631.6 575.93 631.13 576.48 631.22 575.84 630.84 575.63 631.37 575.24 631.6 574.57 631.83 574.97 632.35 574.76 631.98 575.4 632.06 575.94 631.6 575.93"/><polygon class="cls-36" points="633.58 572.66 633.12 573.21 633.21 572.56 632.83 572.36 633.35 571.97 633.58 571.29 633.82 571.7 634.34 571.48 633.96 572.12 634.05 572.67 633.58 572.66"/><polygon class="cls-36" points="633.58 570 633.12 570.55 633.21 569.9 632.83 569.7 633.35 569.31 633.58 568.63 633.82 569.04 634.34 568.83 633.96 569.47 634.05 570.01 633.58 570"/><polygon class="cls-37" points="504.85 522.71 590.16 473.22 601.88 538.69 589.51 571.38 580.08 569.43 504.85 522.71"/><polygon class="cls-9" points="513.92 496.98 513.92 520.84 589.79 564.67 589.79 545.77 583.57 537.6 513.92 496.98"/><polygon class="cls-10" points="513.92 506.44 551.86 528.32 513.92 508.98 513.92 506.44"/><path class="cls-17" d="M588.5,573.71l130.29-75.1.37-.22a6.14,6.14,0,0,0,3-5.31V471.69l-3.88,2.25L698.92,485.1l-4.64,2.67L592.52,546.5,590.39,569Z"/><path class="cls-8" d="M640.43,535.94v1.16l-7.84,4.53V528.31l7.7-4.45V525l-6.55,3.79v4.8l5.71-3.3v1.11l-5.71,3.3v5.08Z"/><path class="cls-8" d="M649.48,531.87l-1.11.65v-5.46a3.8,3.8,0,0,0-.46-2.27c-.3-.35-.76-.35-1.39,0a4.53,4.53,0,0,0-1,.78,7.24,7.24,0,0,0-.92,1.11,9.41,9.41,0,0,0-.75,1.32,6.16,6.16,0,0,0-.47,1.39v6l-1.12.65v-9.78l1-.59v2.21a9.7,9.7,0,0,1,1.5-2.59,7.76,7.76,0,0,1,2.13-1.89,2.44,2.44,0,0,1,1.21-.39,1,1,0,0,1,.78.39,2.46,2.46,0,0,1,.43,1.08,9.13,9.13,0,0,1,.13,1.67Z"/><path class="cls-8" d="M655.31,528.64a3.43,3.43,0,0,1-1.62.52,2.1,2.1,0,0,1-1.27-.39,2.56,2.56,0,0,1-.83-1.12,4.34,4.34,0,0,1-.3-1.68,8.36,8.36,0,0,1,.29-2.11,10.2,10.2,0,0,1,.82-2.09,9.36,9.36,0,0,1,1.26-1.84,6.47,6.47,0,0,1,1.62-1.35,2.8,2.8,0,0,1,1.91-.47,2.52,2.52,0,0,1,1.38.79v-2l1-.58v9.82a6,6,0,0,1-.34,2,7.91,7.91,0,0,1-.9,1.82,8.58,8.58,0,0,1-1.33,1.56,9.55,9.55,0,0,1-1.62,1.2,4.35,4.35,0,0,1-2.39.77,2,2,0,0,1-1.46-.76l.69-1a1.52,1.52,0,0,0,1.35.6,4.09,4.09,0,0,0,1.81-.61,6.46,6.46,0,0,0,1.18-.88,6.64,6.64,0,0,0,1-1.14,6,6,0,0,0,.67-1.37,4.79,4.79,0,0,0,.24-1.52V524.8a8.26,8.26,0,0,1-1.35,2.26A6.81,6.81,0,0,1,655.31,528.64Zm.31-1.25a4.42,4.42,0,0,0,1-.77,7.35,7.35,0,0,0,.87-1,7.81,7.81,0,0,0,.65-1.15,4.43,4.43,0,0,0,.34-1.08v-3a1.8,1.8,0,0,0-.49-.7,1.49,1.49,0,0,0-.71-.35,2,2,0,0,0-.84,0,2.65,2.65,0,0,0-.92.34,4.93,4.93,0,0,0-1.29,1.09,7.15,7.15,0,0,0-1,1.47,6.88,6.88,0,0,0-.6,1.62,6.33,6.33,0,0,0-.21,1.56,3.3,3.3,0,0,0,.25,1.36,1.78,1.78,0,0,0,.68.85,1.65,1.65,0,0,0,1,.26A2.66,2.66,0,0,0,655.62,527.39Z"/><path class="cls-8" d="M662.09,510.9l1.12-.65v11.49a.78.78,0,0,0,.26.7.76.76,0,0,0,.74-.12,3.45,3.45,0,0,0,.43-.3,4.69,4.69,0,0,0,.46-.42l.2.92a6,6,0,0,1-.77.68,6.87,6.87,0,0,1-.78.55,1.24,1.24,0,0,1-1.22.2c-.29-.16-.44-.54-.44-1.14Z"/><path class="cls-8" d="M666.52,510.22v-1.88l1.12-.65v1.88Zm0,11.82v-9.78l1.12-.64v9.77Z"/><path class="cls-8" d="M673,518.51a6.15,6.15,0,0,1-2,.76,2.68,2.68,0,0,1-1.64-.14l.51-1.16a3.08,3.08,0,0,0,1.47.17,4.67,4.67,0,0,0,1.61-.59,5.3,5.3,0,0,0,1.65-1.44,2.83,2.83,0,0,0,.62-1.71.83.83,0,0,0-.17-.59.67.67,0,0,0-.48-.2,2.54,2.54,0,0,0-.81.1c-.32.08-.7.18-1.13.32a12.86,12.86,0,0,1-1.28.33,2.62,2.62,0,0,1-.9,0,.72.72,0,0,1-.52-.35,1.62,1.62,0,0,1-.18-.86,4.31,4.31,0,0,1,.26-1.45,5.54,5.54,0,0,1,.69-1.32,6.89,6.89,0,0,1,1-1.15,7.11,7.11,0,0,1,1.24-.9,5,5,0,0,1,1.8-.67,1.92,1.92,0,0,1,1.3.21L675.5,509a1.64,1.64,0,0,0-1.16-.17,4,4,0,0,0-1.42.54,5.43,5.43,0,0,0-.82.57,4.12,4.12,0,0,0-.67.72,3.53,3.53,0,0,0-.45.83,2.62,2.62,0,0,0-.17.91,1.05,1.05,0,0,0,.12.57.47.47,0,0,0,.38.21,2.11,2.11,0,0,0,.66-.07c.27-.06.6-.15,1-.27.55-.17,1-.3,1.45-.39a3.09,3.09,0,0,1,1.05-.08.89.89,0,0,1,.63.37,1.66,1.66,0,0,1,.21.93,4.7,4.7,0,0,1-.9,2.66A7.52,7.52,0,0,1,673,518.51Z"/><path class="cls-8" d="M685.33,511.18l-1.12.65v-5.46a3.43,3.43,0,0,0-.5-2.21c-.34-.36-.83-.35-1.48,0a4.18,4.18,0,0,0-.94.76,7,7,0,0,0-.88,1.1,7.74,7.74,0,0,0-.72,1.29,7.31,7.31,0,0,0-.45,1.37v6l-1.12.64v-13.7l1.12-.64v6.13a9.39,9.39,0,0,1,1.41-2.56,7.14,7.14,0,0,1,2-1.77,2.52,2.52,0,0,1,1.25-.41,1.14,1.14,0,0,1,.84.38,2.23,2.23,0,0,1,.48,1.06,7.74,7.74,0,0,1,.15,1.63Z"/><path class="cls-38" d="M620.08,553.76l-16.26,9.39c-.64.37-1.16,0-1.16-.88V544a2.74,2.74,0,0,1,1.16-2.2l16.26-9.39c.64-.37,1.16,0,1.16.87v18.23A2.77,2.77,0,0,1,620.08,553.76Z"/><path class="cls-8" d="M621.24,533.21v2.12l-6.68,11.51-1.71-1,7.84-13.53h0C621,532.41,621.24,532.72,621.24,533.21Z"/><path class="cls-8" d="M612.24,546.26l-1.72,3-7.86-4.48v-.81a2.75,2.75,0,0,1,1.25-2.15l.24-.13Z"/><path class="cls-8" d="M621.24,549.91v1.75a2.78,2.78,0,0,1-.77,1.76l-6.22-3.55,1.71-3Z"/><path class="cls-39" d="M621.24,533.21v.32L614,546.05l-.7,1.2-.68,1.17-.69,1.2-.39.68-.69-.39h0l.4-.68.69-1.19.68-1.18.31-.52.39-.67,7.65-13.2A.92.92,0,0,1,621.24,533.21Z"/><path class="cls-39" d="M613.72,549.06l-.7,1.19-1.11-.63-.68-.39h0l-8.56-4.87v-.42a2.32,2.32,0,0,1,.27-1l8.3,4.73.68.39.69.39Z"/><path class="cls-39" d="M621.24,550.19v1.47s0,.08,0,.12l-8-4.53-1-.57.3-.52.39-.67Z"/><path class="cls-8" d="M610.17,551.54l-6.8,11.72c-.42,0-.71-.31-.71-.87v-1.84l5.79-10Z"/><path class="cls-39" d="M612.91,546.33l-.31.53-.68,1.17-.69,1.2-.4.68-7.72,13.32a.83.83,0,0,1-.45-.82l7.87-13.58.7-1.19,1-1.71.39.23.3.17Z"/><polygon class="cls-8" points="621.24 539.34 621.24 545.54 614.79 549.26 614.79 556.81 609.39 559.93 609.39 552.38 602.66 556.26 602.66 550.06 609.39 546.18 609.39 538.62 614.79 535.5 614.79 543.06 621.24 539.34"/><polygon class="cls-39" points="621.24 540.62 621.24 544.25 613.67 548.62 613.67 557.46 610.51 559.29 610.51 550.44 602.66 554.97 602.66 551.35 610.51 546.82 610.51 537.97 613.67 536.15 613.67 544.99 621.24 540.62"/><path class="cls-37" d="M576.69,531.35l15.83,15.15,101.76-58.73,4.64-2.67,19.35-11.16,3.88-2.25a10.5,10.5,0,0,0-5.25-9.09l-10.58-6.09,0,0-4.62,2.67-23.79,13.74-4.65,2.68Z"/><path class="cls-10" d="M589.8,545.77v18.91l-2.71-1.56v-5.66a30.14,30.14,0,0,0-.21-5.46,10.16,10.16,0,0,0-2.67-4.92,3,3,0,0,0-.25-.25c-4-4.06-9.28-6.57-14.16-9.37s-9.5-5.43-14.24-8.13q-7.63-4.38-15.28-8.74l-14.18-8.11c-3.66-2.11-7.34-4.19-11-6.3-.38-.23-.79-.46-1.18-.67V497l69.65,40.63Z"/><path class="cls-11" d="M583.93,568.36l-7.24-4.18-71.84-41.47v5.34l71.84,41.48,6.49,3.74a6.2,6.2,0,0,0,9.34-5.39V546.5a10.5,10.5,0,0,0-5.25-9.09l-10.58-6.1v.05l-71.84-41.47v5.34l71.84,41.48,6.49,3.74a4.88,4.88,0,0,0,.65.32l.85.5a7.88,7.88,0,0,1,4,6.83v17.54A3.14,3.14,0,0,1,583.93,568.36Z"/><polygon class="cls-38" points="504.85 489.89 576.69 531.36 706.32 456.5 634.48 415.08 504.85 489.89"/><path class="cls-40" d="M552.92,529a5,5,0,0,0-.95.72,12.66,12.66,0,0,0-2.2,3.07,11.38,11.38,0,0,0-.57,1.22c-1.18,2.47-2.05,5.09-3.42,7.48a19,19,0,0,1-8.81,7.75l.63-5.33-9.42.15a19,19,0,0,0,8.78-7.75c1.37-2.35,2.24-5,3.38-7.44.19-.42.38-.84.61-1.26a12.39,12.39,0,0,1,2.2-3.07,4.71,4.71,0,0,1,.87-.69Z"/><polygon class="cls-15" points="540.84 459.21 626.14 409.72 637.86 475.19 625.49 507.88 616.06 505.93 540.84 459.21"/><polygon class="cls-9" points="549.91 433.48 549.91 457.34 625.78 501.18 625.78 482.27 619.56 474.1 549.91 433.48"/><polygon class="cls-10" points="549.91 448.25 618.69 487.93 549.91 450.79 549.91 448.25"/><path class="cls-13" d="M624.48,510.21l130.3-75.1.37-.22a6.14,6.14,0,0,0,3-5.31V408.19l-3.88,2.25L734.91,421.6l-4.65,2.68L628.5,483l-2.12,22.5Z"/><path class="cls-15" d="M612.68,467.86,628.5,483l101.76-58.72,4.65-2.68,19.34-11.16,3.88-2.25a10.5,10.5,0,0,0-5.25-9.09L742.31,393l0,0-4.63,2.67-23.79,13.74-4.64,2.68Z"/><path class="cls-10" d="M625.78,482.28v18.9l-2.71-1.56V494a29.26,29.26,0,0,0-.21-5.46,10.09,10.09,0,0,0-2.67-4.92c-.09-.08-.16-.17-.25-.24-4-4.07-9.28-6.58-14.16-9.38s-9.49-5.42-14.23-8.13q-7.65-4.38-15.28-8.74L562.09,449c-3.66-2.11-7.34-4.19-11-6.3-.39-.23-.8-.46-1.19-.67v-8.54l69.66,40.64Z"/><path class="cls-13" d="M619.91,504.86l-7.23-4.18-71.85-41.47v5.35L612.68,506l6.49,3.74a6,6,0,0,0,3,.85,6.24,6.24,0,0,0,6.35-6.24V483a10.49,10.49,0,0,0-5.24-9.09l-10.58-6.1v.05l-71.85-41.47v5.35l71.85,41.47,6.49,3.74a5.54,5.54,0,0,0,.64.33l.86.49a7.89,7.89,0,0,1,4,6.84v17.53A3.14,3.14,0,0,1,619.91,504.86Z"/><polygon class="cls-16" points="540.84 426.39 612.68 467.86 742.31 393 670.47 351.58 540.84 426.39"/><path class="cls-8" d="M665.43,480.19V466.86l4.84-2.79a2.81,2.81,0,0,1,1.39-.44,1.83,1.83,0,0,1,1.09.33,2.19,2.19,0,0,1,.73.92,3.49,3.49,0,0,1,.26,1.37,6.28,6.28,0,0,1-.25,1.72,8,8,0,0,1-.69,1.75,8.67,8.67,0,0,1-1.06,1.55,5.48,5.48,0,0,1-1.37,1.15l-3.79,2.19v4.91Zm1.15-6.75,3.74-2.16a3.62,3.62,0,0,0,.93-.79,6.11,6.11,0,0,0,.71-1.08,6.25,6.25,0,0,0,.46-1.25,5,5,0,0,0,.17-1.25,2.83,2.83,0,0,0-.19-1.06,1.55,1.55,0,0,0-.51-.67,1.17,1.17,0,0,0-.76-.21,2,2,0,0,0-.91.29l-3.64,2.1Z"/><path class="cls-8" d="M675.43,477a.8.8,0,0,0,.5.07,1.71,1.71,0,0,0,.53-.21,1.44,1.44,0,0,0,.41-.38,3.62,3.62,0,0,0,.42-.73,11.69,11.69,0,0,0,.41-1.17c.15-.47.31-1.05.48-1.76l-3.73-7.62,1.15-.66,3.17,6.76,3-10.3,1.07-.61-4,13.7a14.84,14.84,0,0,1-.5,1.51,7.78,7.78,0,0,1-.53,1.08,3.42,3.42,0,0,1-.57.76,3.6,3.6,0,0,1-.67.51c-.49.28-.87.35-1.14.2Z"/><path class="cls-8" d="M683.46,464.86a7.7,7.7,0,0,1,.32-2.13,9.32,9.32,0,0,1,.88-2.12,9.93,9.93,0,0,1,1.35-1.86,7.49,7.49,0,0,1,1.75-1.4,3.54,3.54,0,0,1,2.12-.6,1.72,1.72,0,0,1,1.37.91l-1.09,1a1.27,1.27,0,0,0-1-.59,2.61,2.61,0,0,0-1.44.41,5.25,5.25,0,0,0-1.23,1,7.24,7.24,0,0,0-1,1.39,7.49,7.49,0,0,0-.66,1.6,6.29,6.29,0,0,0-.24,1.7,3.8,3.8,0,0,0,.24,1.42,2,2,0,0,0,.68.87,1.6,1.6,0,0,0,1,.27,2.65,2.65,0,0,0,1.21-.38,4.77,4.77,0,0,0,.81-.61,6.34,6.34,0,0,0,.75-.8,5.81,5.81,0,0,0,.59-.87,3.59,3.59,0,0,0,.35-.84l1.1-.26a6.48,6.48,0,0,1-.53,1.27,8.78,8.78,0,0,1-.81,1.24,8.39,8.39,0,0,1-1,1.11,7.54,7.54,0,0,1-1.17.85,4,4,0,0,1-1.73.59,2.22,2.22,0,0,1-1.37-.31,2.44,2.44,0,0,1-.89-1.11A4.32,4.32,0,0,1,683.46,464.86Z"/><path class="cls-8" d="M692.4,459.7a8.07,8.07,0,0,1,.31-2.13,9.69,9.69,0,0,1,2.24-4,7.49,7.49,0,0,1,1.75-1.4,3.52,3.52,0,0,1,2.12-.6,1.71,1.71,0,0,1,1.36.91l-1.08,1a1.27,1.27,0,0,0-1-.59,2.57,2.57,0,0,0-1.44.41,5.25,5.25,0,0,0-1.23,1,7.29,7.29,0,0,0-1,1.39,6.87,6.87,0,0,0-.65,1.61,6.16,6.16,0,0,0-.24,1.69,3.8,3.8,0,0,0,.24,1.42,1.9,1.9,0,0,0,.68.87,1.53,1.53,0,0,0,1,.27,2.52,2.52,0,0,0,1.21-.39,4,4,0,0,0,.82-.6,7,7,0,0,0,.75-.79,7.51,7.51,0,0,0,.59-.88,3.52,3.52,0,0,0,.34-.84l1.11-.26a6.48,6.48,0,0,1-.53,1.27,8.78,8.78,0,0,1-.81,1.24,8.35,8.35,0,0,1-1,1.1,6.69,6.69,0,0,1-1.18.86,4.13,4.13,0,0,1-1.72.6,2.2,2.2,0,0,1-1.37-.32,2.45,2.45,0,0,1-.9-1.11A4.5,4.5,0,0,1,692.4,459.7Z"/><path class="cls-8" d="M707.11,446.34l1.25-.72-3.24,6.6,3.52,3-1.25.72-3-2.72-1.22.7v4.47l-1.11.64v-9.78l1.11-.64V453l1.12-.65Z"/><path class="cls-8" d="M711.11,452l5.12-10.93.91-.52v9.77L716,451v-7.83l-5,10.73-1,.58v-9.78l1.1-.64Z"/><path class="cls-8" d="M720.76,446.44l5.11-10.93.91-.52v9.78l-1.1.63v-7.82l-5,10.72-1,.58V439.1l1.11-.63ZM725.63,432a3.09,3.09,0,0,1-.64,1.71,5.41,5.41,0,0,1-1.65,1.42,2.7,2.7,0,0,1-1.66.5c-.4-.08-.61-.41-.64-1l.7-.4c0,.41.17.63.43.64a2.35,2.35,0,0,0,1.17-.42,4.12,4.12,0,0,0,1.16-.92,2,2,0,0,0,.44-1.15Z"/><path class="cls-34" d="M655.14,489.64,640,498.41c-.6.35-1.08,0-1.08-.82v-17a2.59,2.59,0,0,1,1.08-2.07l15.19-8.77c.6-.34,1.08,0,1.08.82v17A2.59,2.59,0,0,1,655.14,489.64Z"/><path class="cls-8" d="M656.22,470.43v5.48l-17.35,10v-5.48a2.56,2.56,0,0,1,1.16-2l15-8.68C655.7,469.4,656.22,469.69,656.22,470.43Z"/><path class="cls-41" d="M656.22,482.85v4.83a2.58,2.58,0,0,1-1.16,2l-15,8.67c-.64.37-1.16.08-1.16-.66v-4.83Z"/><path class="cls-33" d="M617.2,487.05a5.94,5.94,0,0,0-1,.72,13,13,0,0,0-2.21,3.08c-.19.38-.41.8-.57,1.22-1.17,2.46-2.05,5.09-3.41,7.48a19,19,0,0,1-8.82,7.75l.64-5.33-9.42.15a18.88,18.88,0,0,0,8.77-7.75c1.37-2.36,2.24-5,3.39-7.45.19-.41.38-.83.6-1.25a12.67,12.67,0,0,1,2.21-3.08,5.11,5.11,0,0,1,.87-.68Z"/><path class="cls-13" d="M635.69,449l-59.57-34.38c-1.85-1.07-1.62-2.93.51-4.16l41.35-24a8,8,0,0,1,7.2-.29l59.57,34.38c1.85,1.07,1.62,2.93-.52,4.16l-41.34,24A8,8,0,0,1,635.69,449Z"/><g class="cls-2"><polygon class="cls-21" points="586.03 410.63 616.13 393.14 622.37 396.75 592.28 414.23 586.03 410.63"/><polygon class="cls-21" points="611.04 425.06 641.13 407.58 645.67 410.19 615.58 427.68 611.04 425.06"/><path class="cls-21" d="M652,411.23l-30.1,17.49c-1.46.85-3.51.58-6.31-1l30.09-17.49C648.48,411.81,650.52,412.08,652,411.23Z"/><polygon class="cls-42" points="611.15 388.04 641.24 370.56 641.13 407.58 611.04 425.06 611.15 388.04"/><polygon class="cls-21" points="611.15 385.94 641.25 368.45 643.75 369.89 613.65 387.38 611.15 385.94"/><path class="cls-21" d="M650,371l-30.09,17.49c-1.39.81-3.4.49-6.22-1.14l30.09-17.49C646.57,371.52,648.58,371.84,650,371Z"/><path class="cls-42" d="M670.66,418.84l-30.09,17.49c2.82-1.64,4.39-5.22,4.41-11.27,0-11.62-7.07-21.56-19.21-30.57L655.87,377c12.14,9,19.23,18.95,19.2,30.57C675.05,413.62,673.48,417.2,670.66,418.84Z"/><polygon class="cls-42" points="611.25 351.88 641.34 334.39 641.25 368.45 611.15 385.94 611.25 351.88"/><polygon class="cls-21" points="586.25 335.33 616.34 317.84 645.12 334.45 615.02 351.94 586.25 335.33"/><path class="cls-28" d="M667.88,377.84l-30.09,17.49c2.55-1.48,3.91-4.67,3.92-9.81,0-13.69-9.76-23.8-26.69-33.58l30.1-17.48c16.92,9.77,26.72,19.88,26.69,33.57C671.79,373.17,670.43,376.36,667.88,377.84Z"/><path class="cls-29" d="M625.77,394.49c10.12,4,15.91,1.66,15.94-9,0-13.69-9.76-23.8-26.69-33.58l-28.77-16.61v2.11l6.25,3.6-.21,73.19-6.25-3.6v2.1l28.28,16.33c18.09,10.45,30.62,13.14,30.67-4C645,413.44,637.91,403.5,625.77,394.49Zm-14.52-42.61,3.1,1.78c6.71,3.88,8.34,8.93,8.31,19.55l0,5.18c0,9.06-2,13-9,9l-2.51-1.44Zm13.89,64.72c0,10.17-2.15,15.36-9.56,11.08L611,425.07l.11-37,2.23,1.29c9.32,5.38,11.8,12.35,11.78,21.41Z"/></g><path class="cls-3" d="M478.64,591l-24.73-14.28,5.69-3.28c4.14-2.39,4.59-6,1-8.08l-1-.59c-3.58-2.07-9.85-1.81-14,.58l-5.68,3.29-28.38-16.4c-2.33-1.35-6.42-1.18-9.12.38L327.24,596c-2.71,1.56-3,3.92-.66,5.27l29.12,16.82L342,626c-4.14,2.4-4.59,6-1,8.08l1,.59c3.58,2.07,9.85,1.81,14-.58l13.7-7.91,24,13.85c2.34,1.35,6.43,1.18,9.13-.38L478,596.22C480.68,594.66,481,592.3,478.64,591Z"/><g class="cls-2"><path class="cls-43" d="M458,558.73a12.5,12.5,0,0,1-4.16,2c-.5.14-.8.21-1.11.27l-1.07.26a44.21,44.21,0,0,0-5.83,1.84c-1.83.73-2.79,1.89-2.79,3.06l0,11.48c0-1.17.95-2.33,2.78-3.05a42.48,42.48,0,0,1,5.84-1.85l1.07-.26c.3-.05.61-.13,1.1-.26a12.47,12.47,0,0,0,4.17-2,5.32,5.32,0,0,0,2.43-4.15l0-11.48A5.32,5.32,0,0,1,458,558.73Z"/><path class="cls-5" d="M388.12,566.92a14.67,14.67,0,0,0-4.15-1.55l-.42-.09-.52-.1a40.49,40.49,0,0,1-12.54-4.48,1,1,0,0,1-.61-.84l0,11.48a1,1,0,0,0,.6.84A40.65,40.65,0,0,0,383,576.66l.52.11.42.08a14.5,14.5,0,0,1,4.15,1.56c2.34,1.35,3.51,3.12,3.5,4.89l0-11.48C391.63,570.05,390.46,568.27,388.12,566.92Z"/><path class="cls-5" d="M429.36,590.53l0,11.48c-4.64-2.09-11.42-1.87-15.58.52a7,7,0,0,0-3.08,3,.36.36,0,0,0-.08.18,4.06,4.06,0,0,0-.36,1.65v-1.65l0-9.86a4.17,4.17,0,0,1,.4-1.74,7.09,7.09,0,0,1,3.1-3.1C418,588.66,424.72,588.43,429.36,590.53Z"/><path class="cls-43" d="M410.68,594.15v11.6h-.44l0-9.86A4.17,4.17,0,0,1,410.68,594.15Z"/><path class="cls-44" d="M466.4,583.15l0,11.48c0,1.2-.8,2.41-2.39,3.34l-4,2.33-10.2,5.93-4.92,2.88L442,610.73l0-11.48,2.8-1.63,4.92-2.85,10.2-5.93,4.06-2.36C465.6,585.56,466.4,584.35,466.4,583.15Z"/><path class="cls-43" d="M466.4,583.15l0,11.48a2.91,2.91,0,0,1-.42,1.47,5,5,0,0,1-2,1.87l-4,2.33V588.84l4.06-2.36a5.12,5.12,0,0,0,1.93-1.79A3,3,0,0,0,466.4,583.15Z"/><path class="cls-5" d="M466.4,583.15l0,11.48a2.91,2.91,0,0,1-.42,1.47V584.69A3,3,0,0,0,466.4,583.15Z"/><polygon class="cls-5" points="444.83 597.62 444.83 609.11 442.01 610.74 442.03 599.25 444.83 597.62"/><polygon class="cls-43" points="449.75 594.77 449.75 606.23 444.83 609.11 444.83 597.62 449.75 594.77"/><path class="cls-5" d="M433.69,594.2l-.46-.62a5.52,5.52,0,0,0-.36-.53,8.82,8.82,0,0,0-2.38-2c-.35-.2-.72-.39-1.12-.57l0,11.48c.4.18.77.37,1.12.57a8.48,8.48,0,0,1,2.37,2,3.54,3.54,0,0,1,.37.52l.45.62a20.86,20.86,0,0,0,5.44,5.06l0-11.48A21,21,0,0,1,433.69,594.2Z"/><path class="cls-5" d="M442,599.25l0,11.49a3.21,3.21,0,0,1-2.91,0l0-11.48A3.21,3.21,0,0,0,442,599.25Z"/><path class="cls-44" d="M356,600.22l0,11.48a3.22,3.22,0,0,0-1.89-2.63l-2.3-1.33-16.26-9.39c-1.81-1.05-2.72-2.42-2.7-3.78l0-11.48c0,1.36.91,2.73,2.72,3.78l16.22,9.37,2.34,1.34A3.15,3.15,0,0,1,356,600.22Z"/><path class="cls-43" d="M356,600.22l0,11.48a3.22,3.22,0,0,0-1.89-2.63l-2.3-1.33v-11.5l2.34,1.34A3.15,3.15,0,0,1,356,600.22Z"/><path class="cls-5" d="M374.16,609.19l0,11.48a9.21,9.21,0,0,0-4.58-1.09,8.36,8.36,0,0,0-5.19,1.61,18.07,18.07,0,0,0-2.89,3.08,11.3,11.3,0,0,0-1,1.47,2.19,2.19,0,0,0-.16.3l-.16.24,0-11.48.14-.24a3.07,3.07,0,0,0,.16-.31,17,17,0,0,1,.95-1.44,18.75,18.75,0,0,1,2.91-3.1,8.24,8.24,0,0,1,5.17-1.61A9.31,9.31,0,0,1,374.16,609.19Z"/><path class="cls-5" d="M360.21,614.8l0,11.48a7.66,7.66,0,0,1-2.68,2.39,15.94,15.94,0,0,1-7,2,17.69,17.69,0,0,1-9.78-2c-2.31-1.35-3.45-3.14-3.45-4.9l0-11.45c0,1.77,1.16,3.54,3.45,4.87a17.71,17.71,0,0,0,9.74,1.95,15.69,15.69,0,0,0,7-1.95A7.84,7.84,0,0,0,360.21,614.8Z"/><path class="cls-43" d="M361.46,612.81v11.46a11.3,11.3,0,0,0-1,1.47,2.19,2.19,0,0,0-.16.3l-.16.24a7.66,7.66,0,0,1-2.68,2.39,15.94,15.94,0,0,1-7,2v-11.5a15.69,15.69,0,0,0,7-1.95,7.84,7.84,0,0,0,2.68-2.39l.14-.24a3.07,3.07,0,0,0,.16-.31A17,17,0,0,1,361.46,612.81Z"/><path class="cls-44" d="M429,606.39l0,11.48a1,1,0,0,1-.58.81l-2.6,1.51-11.86,6.89-1.11.65-4.24,2.45-1.89,1.11-.58.34,0-11.48.56-.33,1.89-1.1,4.24-2.46,1.11-.64,11.86-6.9,2.64-1.52A1,1,0,0,0,429,606.39Z"/><polygon class="cls-43" points="413.88 615.62 413.88 627.08 412.77 627.73 408.53 630.18 408.53 618.72 412.77 616.26 413.88 615.62"/><polygon class="cls-5" points="412.77 616.26 412.77 627.73 406.64 631.29 406.64 619.82 412.77 616.26"/><path class="cls-43" d="M429,606.39l0,11.48a1,1,0,0,1-.58.81l-2.6,1.51V608.72l2.64-1.52A1,1,0,0,0,429,606.39Z"/><polygon class="cls-44" points="393.21 620.19 393.11 631.63 375.93 621.71 374.13 620.67 374.17 609.19 375.93 610.21 393.21 620.19"/><path class="cls-43" d="M375.93,610.21v11.5l-1.81-1a9.21,9.21,0,0,0-4.58-1.09V608.1a9.31,9.31,0,0,1,4.62,1.09Z"/><path class="cls-45" d="M429.37,590.52c-4.65-2.08-11.41-1.86-15.58.52-4.69,2.68-4.69,7.06,0,9.76a15,15,0,0,0,4.15,1.55l.42.08.53.11a42.82,42.82,0,0,1,9.31,2.86c1,.55,1,1.31.2,1.79l-22.29,12.95a14.28,14.28,0,0,1-12.95,0l-19-11c-2.83-1.63-7.55-1.39-9.78.53a17.3,17.3,0,0,0-3.86,4.54c0,.1-.11.2-.17.3l-.14.24a7.71,7.71,0,0,1-2.67,2.4c-4.62,2.68-12.12,2.68-16.76,0-4.21-2.46-4.61-6.38-1-9.06a12.77,12.77,0,0,1,4.19-2l1.1-.27,1.06-.26a41.53,41.53,0,0,0,7.43-2.51c3-1.37,3.28-4,.56-5.54l-18.56-10.71c-3.59-2.07-3.61-5.43,0-7.5l21.59-12.55a3.23,3.23,0,0,1,2.83-.05c.46.24.91.49,1.35.74a22.38,22.38,0,0,1,7,6l.45.61a4.25,4.25,0,0,0,.37.53,8.85,8.85,0,0,0,2.38,2,11.69,11.69,0,0,0,1.12.57c4.64,2.08,11.41,1.86,15.58-.52,4.69-2.68,4.68-7.06,0-9.76a14.67,14.67,0,0,0-4.15-1.55l-.42-.09-.52-.1a40.49,40.49,0,0,1-12.54-4.48.89.89,0,0,1,0-1.68l22.91-13.31a12.8,12.8,0,0,1,11.62,0L424.4,556.9c3,1.72,7.91,1.35,10-.73a16.61,16.61,0,0,0,2.78-3.56c.06-.1.13-.2.18-.3l.14-.25a7.86,7.86,0,0,1,2.68-2.4c4.61-2.68,12.12-2.68,16.76,0,4.19,2.47,4.6,6.39,1,9.07a12.5,12.5,0,0,1-4.16,2c-.5.14-.8.21-1.11.27l-1.07.26a44.21,44.21,0,0,0-5.83,1.84c-3.31,1.32-3.76,4-.91,5.68l19.06,11c3.22,1.86,3.24,4.87,0,6.73l-22,12.77a3.21,3.21,0,0,1-2.91,0,21,21,0,0,1-5.43-5.06l-.46-.62a5.52,5.52,0,0,0-.36-.53,8.82,8.82,0,0,0-2.38-2C430.14,590.89,429.77,590.7,429.37,590.52Z"/><path class="cls-44" d="M406.08,620.15l0,11.48a13.55,13.55,0,0,1-7.48,1.51,12.7,12.7,0,0,1-5.47-1.51l0-11.48a12.8,12.8,0,0,0,5.43,1.5A13.66,13.66,0,0,0,406.08,620.15Z"/><path class="cls-43" d="M406.64,619.82v11.47l-.58.34a13.55,13.55,0,0,1-7.48,1.51V621.65a13.66,13.66,0,0,0,7.5-1.5Z"/></g><g class="cls-46"><path class="cls-11" d="M396.41,625.56l-72.77-42c-2.85-1.65-2.49-4.53.8-6.44l70.65-40.78c3.3-1.91,8.29-2.11,11.14-.47l72.77,42c2.86,1.65,2.5,4.53-.8,6.43L407.55,625.1C404.26,627,399.27,627.21,396.41,625.56Z"/><path class="cls-8" d="M478.63,584.06l-8.22,4.75-59.55-.11-.05-8.84,69.95.13h0C481.26,581.42,480.55,583,478.63,584.06Z"/><path class="cls-8" d="M407.94,578.38l-15.32,0-.22-40.47,3.12-1.8a12.28,12.28,0,0,1,11.12,0l1.07.62Z"/><path class="cls-8" d="M413.9,621.44l-6.78,3.91a12.36,12.36,0,0,1-8.51,1l-.17-32.09,15.31,0Z"/><path class="cls-47" d="M478.63,584.06l-1.24.72-64.76-.11-6.19,0H394.17l-3.5,0,0-3.52v0h22l68.28.12A4.06,4.06,0,0,1,478.63,584.06Z"/><path class="cls-47" d="M400.38,590.37h-6.17l0-5.72v-3.57L393.92,537l1.6-.92a10.63,10.63,0,0,1,4.56-1.28l.23,42.75,0,3.53,0,3.56Z"/><path class="cls-47" d="M412.83,622.05l-5.71,3.3-.46.24-.22-40.94,0-5.09h6.19Z"/><path class="cls-8" d="M382.82,582.19l-60.62-.11c-1-1.6-.39-3.44,1.81-4.72l7.12-4.1,51.65.09Z"/><path class="cls-47" d="M409.14,581.14h-15l-3.51,0L321.76,581c-.21-1.28.52-2.59,2.17-3.57l70.21.13h15v3.58Z"/><polygon class="cls-8" points="454.89 597.77 430.86 611.64 402.03 595 339.94 631.15 315.76 617.19 377.85 581.03 347.75 563.66 371.78 549.78 401.88 567.16 452.18 538.46 476.36 552.42 426.06 581.12 454.89 597.77"/><polygon class="cls-47" points="449.91 600.65 435.85 608.76 402 589.22 339.12 625.78 324.97 617.61 387.85 581.05 352.73 560.78 366.8 552.66 401.91 572.93 454.81 542.37 468.96 550.54 416.06 581.1 449.91 600.65"/></g><path class="cls-3" d="M665,314.58l3.7-2.14c1.69-1,1.48-2.67-.47-3.8l-85.4-49.31a7.36,7.36,0,0,0-6.59-.27l-3.7,2.14c-1.69,1-1.48,2.67.48,3.8l85.39,49.31A7.36,7.36,0,0,0,665,314.58Z"/><g class="cls-2"><path class="cls-9" d="M571.35,121l6.95-4c1.37-.8,3.27-.68,5.37.53l-6.95,4C574.62,120.32,572.72,120.2,571.35,121Z"/><path class="cls-9" d="M683.05,251.26l-6.95,4c1.35-.79,2.19-2.46,2.19-4.83l7-4C685.24,248.8,684.4,250.47,683.05,251.26Z"/><polygon class="cls-9" points="678.47 188.94 685.42 184.91 685.25 246.43 678.29 250.46 678.47 188.94"/><polygon class="cls-9" points="576.72 121.53 583.67 117.5 677.91 171.91 670.96 175.94 576.72 121.53"/><path class="cls-9" d="M671,175.94l6.95-4a16.55,16.55,0,0,1,7.51,13l-6.95,4A16.58,16.58,0,0,0,671,175.94Z"/><path class="cls-10" d="M671,175.94a16.58,16.58,0,0,1,7.51,13l-.18,61.51c0,4.77-3.4,6.71-7.55,4.31L612.24,221,578.8,240.11l.08-38.38-2.39-1.38a16.56,16.56,0,0,1-7.51-13l.18-61.51c0-4.79,3.39-6.72,7.56-4.31Z"/></g><path class="cls-38" d="M607.88,195.08c0,2.87-2,4-4.53,2.58a10,10,0,0,1-4.53-7.81c0-2.87,2-4,4.53-2.58A10,10,0,0,1,607.88,195.08Z"/><path class="cls-38" d="M620.62,202.44c0,2.87-2,4-4.53,2.58a10,10,0,0,1-4.53-7.81c0-2.87,2-4,4.53-2.58A10,10,0,0,1,620.62,202.44Z"/><path class="cls-38" d="M633.37,209.8c0,2.87-2,4-4.53,2.58a10,10,0,0,1-4.53-7.81c0-2.87,2-4,4.53-2.59A10,10,0,0,1,633.37,209.8Z"/><path class="cls-38" d="M646.11,217.15c0,2.87-2,4-4.53,2.59a10,10,0,0,1-4.53-7.82c0-2.87,2-4,4.53-2.58A10,10,0,0,1,646.11,217.15Z"/><g class="cls-2"><path class="cls-21" d="M489.14,45.86l5-2.92c1-.58,2.36-.49,3.88.38l-5,2.92A3.83,3.83,0,0,0,489.14,45.86Z"/><path class="cls-42" d="M548.84,128.06l-5,2.92a3.8,3.8,0,0,0,1.59-3.49l5-2.92A3.78,3.78,0,0,1,548.84,128.06Z"/><polygon class="cls-42" points="545.53 82.98 550.56 80.07 550.43 124.57 545.4 127.49 545.53 82.98"/><polygon class="cls-21" points="493.02 46.24 498.05 43.32 545.13 70.66 540.1 73.58 493.02 46.24"/><path class="cls-21" d="M540.1,73.57l5-2.91a12,12,0,0,1,5.43,9.41l-5,2.91A12,12,0,0,0,540.1,73.57Z"/><path class="cls-29" d="M540.1,73.57A12,12,0,0,1,545.53,83l-.13,44.51c0,3.45-2.46,4.85-5.46,3.11l-47.08-27.33a12,12,0,0,1-5.43-9.41l.12-44.51c0-3.46,2.45-4.85,5.47-3.11Z"/><path class="cls-19" d="M539.67,90.72,495,64.92a3.34,3.34,0,0,1-1.4-2.67V59.68c0-1,.63-1.51,1.4-1.06l44.68,25.79a3.35,3.35,0,0,1,1.4,2.68v2.57C541.07,90.69,540.45,91.16,539.67,90.72Z"/><path class="cls-19" d="M539.67,100.49,495,74.7a3.38,3.38,0,0,1-1.4-2.68V69.45c0-1,.63-1.5,1.4-1.06l44.68,25.8a3.33,3.33,0,0,1,1.4,2.67v2.58C541.07,100.47,540.45,100.94,539.67,100.49Z"/><path class="cls-19" d="M539.67,110.27,495,84.48a3.38,3.38,0,0,1-1.4-2.68V79.23c0-1,.63-1.51,1.4-1.06L539.67,104a3.35,3.35,0,0,1,1.4,2.68v2.57C541.07,110.24,540.45,110.72,539.67,110.27Z"/><path class="cls-19" d="M539.67,120.05,495,94.25a3.34,3.34,0,0,1-1.4-2.67V89c0-1,.63-1.5,1.4-1l44.68,25.79a3.35,3.35,0,0,1,1.4,2.68V119C541.07,120,540.45,120.49,539.67,120.05Z"/></g></g></g></svg>