<svg id="Layer_1" data-name="Layer 1" xmlns="http://www.w3.org/2000/svg" viewBox="0 0 1609.04 453.13"><defs><style>.cls-1{fill:#17171a;}.cls-2{fill:#fc653c;}.cls-3{fill:#e7ecef;}</style></defs><path class="cls-1" d="M357.57,167.49a176.66,176.66,0,0,0-90.3-75.8q2.14,8.43,3.72,17.13a162.83,162.83,0,0,1,65.59,244.55c-18.11,15.08-34.25,24.94-48,29.31-11.15,3.55-20.72,3.43-28.43-.36-16.14-7.92-23.33-31.05-26.52-49.06a210.59,210.59,0,0,1-3-39.75l.21-5.19,1.5-3.45q5.24-12,9.56-23.81l19.21,10a14.4,14.4,0,0,0,21-11.73L285,220.24a14.42,14.42,0,0,0-5.16-12.13L259.75,191.4q1.56-11.4,2.12-22.48c1.48-29.29-2.25-56.87-11.11-82C235.57,43.79,210.67,23,209.61,22.12L205,18.34l-4.59,3.78c-1,.86-25.95,21.67-41.15,64.81-8.85,25.12-12.59,52.7-11.11,82q.57,11.07,2.13,22.5l-20.12,16.69A14.42,14.42,0,0,0,125,220.24l2.85,39.09a14.39,14.39,0,0,0,21,11.73l19.2-10q4.32,11.81,9.55,23.81l1.5,3.45.21,5.19c.81,20.27-2.9,75.74-29.46,88.8-7.71,3.79-17.26,3.92-28.41.38-13.7-4.36-29.82-14.19-47.93-29.26-3-4.17-5.93-8.57-8.6-13.1C19.31,263.09,45,163.13,122.28,117.51A163.81,163.81,0,0,1,139,108.86q1.58-8.72,3.74-17.17A178,178,0,0,0,114.91,105,177.17,177.17,0,1,0,347.41,363.1l.33-.45a177.22,177.22,0,0,0,9.83-195.16ZM257,207.93l13.61,11.3-2.84,38.93-21-10.94A337.85,337.85,0,0,0,257,207.93Zm-114.7,50.23-2.84-38.93L153.05,208a338.23,338.23,0,0,0,10.25,39.28ZM172.62,92.6c10-28.9,24.95-47.06,32.41-54.87,7.38,7.69,22,25.46,32.08,54C249.88,128,257.26,189,221,274.74H189C160.44,207.06,154.76,144.17,172.62,92.6ZM122.41,398a60.27,60.27,0,0,0,14.1,1.77,44.2,44.2,0,0,0,19.75-4.44c17.37-8.55,29-28.66,34.41-59.79a226.61,226.61,0,0,0,3.19-35.06h22.31a226.61,226.61,0,0,0,3.19,35.06c5.47,31.13,17,51.25,34.42,59.79a44.2,44.2,0,0,0,19.75,4.44A59.46,59.46,0,0,0,287,398.14,162.2,162.2,0,0,1,122.41,398Z"/><path class="cls-2" d="M156.12,413h0a162.18,162.18,0,0,1-33.71-15,60.27,60.27,0,0,0,14.1,1.77,44.2,44.2,0,0,0,19.75-4.44c17.37-8.55,29-28.66,34.41-59.79a226.61,226.61,0,0,0,3.19-35.06h12.7C210.19,326,215,397.92,156.12,413Z"/><path class="cls-3" d="M221,274.74H207.84c35.24-88.57,5.93-208.41-1.53-235.66,7.68,8.31,21.29,25.67,30.8,52.66C249.88,128,257.26,189,221,274.74Z"/><circle class="cls-1" cx="208.48" cy="124.09" r="24.23"/><path class="cls-2" d="M318.22,190.24a7.66,7.66,0,0,0-7.67,7.66,7.66,7.66,0,0,0-7.66-7.66,7.66,7.66,0,0,0,7.66-7.66A7.66,7.66,0,0,0,318.22,190.24Z"/><path class="cls-2" d="M107.13,190.24a7.66,7.66,0,0,0-7.66,7.66,7.66,7.66,0,0,0-7.66-7.66,7.66,7.66,0,0,0,7.66-7.66A7.66,7.66,0,0,0,107.13,190.24Z"/><path class="cls-2" d="M310.55,316.69a14.19,14.19,0,0,0-14.19,14.2,14.2,14.2,0,0,0-14.2-14.2,14.2,14.2,0,0,0,14.2-14.2A14.19,14.19,0,0,0,310.55,316.69Z"/><path class="cls-2" d="M127.87,316.69a14.2,14.2,0,0,0-14.2,14.2,14.2,14.2,0,0,0-14.2-14.2,14.2,14.2,0,0,0,14.2-14.2A14.2,14.2,0,0,0,127.87,316.69Z"/><path class="cls-1" d="M564.49,331.34H534V245L505.14,309.5h-23l-28.77-64.2v86H422.92v-130h38.55l32.23,74,32.14-74h38.65Z"/><path class="cls-1" d="M697.22,315.13A65.12,65.12,0,0,1,675.65,329a76.57,76.57,0,0,1-54.59-.08,65.89,65.89,0,0,1-21.83-14.21,64.56,64.56,0,0,1-14.38-21.44,73.15,73.15,0,0,1,0-53.72,64.71,64.71,0,0,1,14.38-21.45,65.89,65.89,0,0,1,21.83-14.21,72.69,72.69,0,0,1,27.38-5.06,71.82,71.82,0,0,1,27,5,66.07,66.07,0,0,1,21.58,13.9l-21.32,21.4A35.2,35.2,0,0,0,663.6,229a34.28,34.28,0,0,0-15.68-3.63,34.67,34.67,0,0,0-14.64,3.11,36.17,36.17,0,0,0-11.78,8.67,39.91,39.91,0,0,0-7.8,13,48.64,48.64,0,0,0,0,32.36,40.38,40.38,0,0,0,7.8,13,35.86,35.86,0,0,0,11.78,8.71,34.53,34.53,0,0,0,14.64,3.12,34,34,0,0,0,15.64-3.64,36.18,36.18,0,0,0,12.17-10.05Z"/><path class="cls-2" d="M752,331.34v-130h48.78q21.66,0,33.57,9t11.91,25.3a32.5,32.5,0,0,1-4.37,16.89A30,30,0,0,1,830,263.93q10.83,3.38,16.85,11.26t6,19.41A34.38,34.38,0,0,1,847.46,314a35.85,35.85,0,0,1-15.38,12.78q-9.93,4.54-23.44,4.55Zm30.5-76.59h16.37q8.14,0,12.74-3.6a12,12,0,0,0,4.59-10,11.48,11.48,0,0,0-4.64-9.61Q806.91,228,798.68,228h-16.2Zm0,50h18.36A33.17,33.17,0,0,0,812,303.05a15.7,15.7,0,0,0,7.19-4.85,11.67,11.67,0,0,0,2.51-7.5,11.81,11.81,0,0,0-2.25-7.32,14.15,14.15,0,0,0-6.5-4.59,29.23,29.23,0,0,0-10.31-1.6H782.48Z"/><path class="cls-2" d="M932.19,333.94a72.41,72.41,0,0,1-27.42-5.07A65.93,65.93,0,0,1,883,314.66a64.56,64.56,0,0,1-14.38-21.44,73.15,73.15,0,0,1,0-53.72A64.71,64.71,0,0,1,883,218.05a65.93,65.93,0,0,1,21.79-14.21,76.82,76.82,0,0,1,54.84,0,64.52,64.52,0,0,1,36,35.66,73.15,73.15,0,0,1,0,53.72,64.54,64.54,0,0,1-36,35.65A72.34,72.34,0,0,1,932.19,333.94Zm0-26.6A35,35,0,0,0,947,304.22a36.1,36.1,0,0,0,11.87-8.71,40.46,40.46,0,0,0,7.89-13,47.61,47.61,0,0,0,0-32.23,40.57,40.57,0,0,0-7.89-13A36.25,36.25,0,0,0,947,228.49a35.1,35.1,0,0,0-14.77-3.11,35.75,35.75,0,0,0-14.86,3.11,36.15,36.15,0,0,0-12,8.71,40.57,40.57,0,0,0-7.89,13,47.61,47.61,0,0,0,0,32.23,40.46,40.46,0,0,0,7.89,13,36,36,0,0,0,12,8.71A35.6,35.6,0,0,0,932.19,307.34Z"/><path class="cls-2" d="M1080.69,333.94a72.41,72.41,0,0,1-27.42-5.07,65.93,65.93,0,0,1-21.79-14.21,64.56,64.56,0,0,1-14.38-21.44,73.15,73.15,0,0,1,0-53.72,64.71,64.71,0,0,1,14.38-21.45,65.93,65.93,0,0,1,21.79-14.21,76.85,76.85,0,0,1,54.85,0,64.6,64.6,0,0,1,36,35.66,73.15,73.15,0,0,1,0,53.72,64.62,64.62,0,0,1-36,35.65A72.43,72.43,0,0,1,1080.69,333.94Zm0-26.6a35,35,0,0,0,14.78-3.12,36.31,36.31,0,0,0,11.87-8.71,40.44,40.44,0,0,0,7.88-13,47.45,47.45,0,0,0,0-32.23,40.55,40.55,0,0,0-7.88-13,36.46,36.46,0,0,0-11.87-8.71,35.18,35.18,0,0,0-14.78-3.11,35.7,35.7,0,0,0-14.85,3.11,36.08,36.08,0,0,0-12,8.71,40.37,40.37,0,0,0-7.88,13,47.45,47.45,0,0,0,0,32.23,40.27,40.27,0,0,0,7.88,13,35.94,35.94,0,0,0,12,8.71A35.55,35.55,0,0,0,1080.69,307.34Z"/><path class="cls-2" d="M1158.41,316.87l14.38-23.22a88.41,88.41,0,0,0,11.7,7.93,49.62,49.62,0,0,0,10.92,4.54,40.76,40.76,0,0,0,10.91,1.48,30.3,30.3,0,0,0,10.44-1.61,15.08,15.08,0,0,0,6.76-4.54,10.84,10.84,0,0,0,2.39-7,11.24,11.24,0,0,0-3.21-8.1,29.29,29.29,0,0,0-8.45-5.89q-5.24-2.56-11.39-5.07t-12.69-5.63a57.1,57.1,0,0,1-11.83-7.41,34.56,34.56,0,0,1-8.71-10.62,31.83,31.83,0,0,1-3.33-15.16q0-11.78,5.93-20.23a38.23,38.23,0,0,1,16.29-13,57.73,57.73,0,0,1,23.44-4.54,84,84,0,0,1,19.88,2.51,97.29,97.29,0,0,1,20.84,7.8l-11.87,24.52a58.48,58.48,0,0,0-13.47-6,46.45,46.45,0,0,0-13.48-2.2,23.85,23.85,0,0,0-8.62,1.42,13.19,13.19,0,0,0-5.72,4,9.62,9.62,0,0,0-2,6.07,10.64,10.64,0,0,0,3.16,7.67,31.12,31.12,0,0,0,8.27,5.84Q1214,253,1220,255.7q6.33,2.69,12.87,6a66.58,66.58,0,0,1,12,7.75,34.7,34.7,0,0,1,8.84,10.7,31.45,31.45,0,0,1,3.34,15,34.4,34.4,0,0,1-6.2,20.32,40.26,40.26,0,0,1-17.33,13.64q-11.13,4.86-25.86,4.86a78.48,78.48,0,0,1-26.12-4.38A81,81,0,0,1,1158.41,316.87Z"/><path class="cls-2" d="M1329.61,331.34h-30.49V228H1262V201.38h104.83V228h-37.17Z"/><path class="cls-2" d="M1377.7,331.34v-130H1463V228H1408.2v24.87h51.29v26.6H1408.2v25.3h55.62v26.6Z"/><path class="cls-2" d="M1590.92,331.34h-33.7l-26.08-45h-18.45v45h-30.5v-130h50.86q16.29,0,27.81,5A38.56,38.56,0,0,1,1578.49,221q6.1,9.53,6.11,23,0,13.08-5.94,22.44a38.32,38.32,0,0,1-16.93,14.38Zm-78.23-68.8h18q11.08,0,16.89-4.41t5.81-12.83q0-8.49-5.81-12.91T1530.71,228h-18Z"/></svg>