<svg id="Layer_1" data-name="Layer 1" xmlns="http://www.w3.org/2000/svg" viewBox="0 0 1609.04 453.13"><defs><style>.cls-1{fill:#fff;}.cls-2{fill:#fc653c;}</style></defs><path class="cls-1" d="M351.6,167.1a176.66,176.66,0,0,0-90.3-75.8q2.16,8.43,3.72,17.13A162.83,162.83,0,0,1,330.62,353c-18.12,15.08-34.26,24.94-48,29.3-11.15,3.56-20.72,3.44-28.43-.35-16.14-7.92-23.32-31.05-26.52-49.06a211.61,211.61,0,0,1-3-39.75l.21-5.19,1.5-3.45q5.24-12,9.56-23.81l19.22,10a14.4,14.4,0,0,0,21-11.73l2.84-39.1a14.41,14.41,0,0,0-5.16-12.12L253.78,191q1.56-11.4,2.12-22.49c1.48-29.28-2.25-56.86-11.1-82-15.2-43.14-40.1-63.95-41.16-64.81L199,18l-4.59,3.78c-1,.86-25.95,21.67-41.15,64.81-8.85,25.12-12.59,52.7-11.11,82q.57,11.08,2.13,22.5l-20.11,16.7A14.39,14.39,0,0,0,119,219.84l2.85,39.1a14.39,14.39,0,0,0,21,11.73l19.2-10q4.32,11.81,9.55,23.81l1.51,3.45.2,5.19c.81,20.27-2.9,75.74-29.46,88.8-7.71,3.79-17.26,3.92-28.41.38-13.7-4.36-29.82-14.2-47.92-29.26-3-4.17-5.94-8.58-8.6-13.1-45.63-77.24-19.9-177.2,57.34-222.82a163.81,163.81,0,0,1,16.75-8.65q1.58-8.72,3.74-17.18a178.88,178.88,0,0,0-27.86,13.35,177.18,177.18,0,1,0,232.5,258.07l.33-.46A177.2,177.2,0,0,0,351.6,167.1ZM251,207.54l13.61,11.3-2.84,38.93-21-10.94A338.38,338.38,0,0,0,251,207.54Zm-114.7,50.23-2.83-38.93,13.59-11.28a338.08,338.08,0,0,0,10.25,39.27ZM166.65,92.21c10-28.9,24.95-47.07,32.41-54.87,7.38,7.69,22,25.46,32.08,54,12.77,36.24,20.16,97.2-16.1,183h-32C154.47,206.67,148.79,143.78,166.65,92.21ZM116.44,397.58a59.78,59.78,0,0,0,14.1,1.78,44.2,44.2,0,0,0,19.75-4.44c17.37-8.55,29-28.66,34.42-59.8a226.16,226.16,0,0,0,3.18-35.05H210.2a226.61,226.61,0,0,0,3.19,35.06c5.47,31.13,17.05,51.25,34.42,59.79a44.2,44.2,0,0,0,19.75,4.44A59.46,59.46,0,0,0,281,397.75,162.18,162.18,0,0,1,116.44,397.58Z"/><path class="cls-2" d="M150.15,412.6h0a161.14,161.14,0,0,1-33.71-15,59.78,59.78,0,0,0,14.1,1.78,44.2,44.2,0,0,0,19.75-4.44c17.37-8.55,29-28.66,34.42-59.8a226.16,226.16,0,0,0,3.18-35.05h12.7C204.22,325.56,209,397.53,150.15,412.6Z"/><circle class="cls-1" cx="202.52" cy="123.7" r="24.23"/><path class="cls-2" d="M312.25,189.85a7.65,7.65,0,0,0-7.66,7.66,7.66,7.66,0,0,0-7.67-7.66,7.66,7.66,0,0,0,7.67-7.66A7.65,7.65,0,0,0,312.25,189.85Z"/><path class="cls-2" d="M101.16,189.85a7.66,7.66,0,0,0-7.66,7.66,7.66,7.66,0,0,0-7.66-7.66,7.66,7.66,0,0,0,7.66-7.66A7.66,7.66,0,0,0,101.16,189.85Z"/><path class="cls-2" d="M304.59,316.3a14.2,14.2,0,0,0-14.2,14.2,14.2,14.2,0,0,0-14.2-14.2,14.2,14.2,0,0,0,14.2-14.2A14.2,14.2,0,0,0,304.59,316.3Z"/><path class="cls-2" d="M121.9,316.3a14.2,14.2,0,0,0-14.2,14.2,14.2,14.2,0,0,0-14.2-14.2,14.2,14.2,0,0,0,14.2-14.2A14.2,14.2,0,0,0,121.9,316.3Z"/><path class="cls-1" d="M558.09,336.74h-30.5V250.45l-28.85,64.46h-23L447,250.71v86H416.52v-130h38.55l32.23,74,32.15-74h38.64Z"/><path class="cls-1" d="M690.82,320.54a65.28,65.28,0,0,1-21.57,13.82,76.65,76.65,0,0,1-54.59-.09,65.74,65.74,0,0,1-21.83-14.21,64.56,64.56,0,0,1-14.38-21.44,73.15,73.15,0,0,1,0-53.72,64.56,64.56,0,0,1,14.38-21.44,65.89,65.89,0,0,1,21.83-14.21,76.16,76.16,0,0,1,54.41-.09,66.09,66.09,0,0,1,21.58,13.91l-21.32,21.4a35.09,35.09,0,0,0-12.13-10.05,34.16,34.16,0,0,0-15.68-3.64,34.53,34.53,0,0,0-14.64,3.12,36.39,36.39,0,0,0-11.78,8.66,39.85,39.85,0,0,0-7.8,13,48.64,48.64,0,0,0,0,32.36,40.49,40.49,0,0,0,7.8,13,36.08,36.08,0,0,0,11.78,8.7,34.53,34.53,0,0,0,14.64,3.12,33.91,33.91,0,0,0,15.64-3.64,36,36,0,0,0,12.17-10.05Z"/><path class="cls-2" d="M745.58,336.74v-130h48.78q21.66,0,33.57,9t11.91,25.3a32.51,32.51,0,0,1-4.37,16.9,30,30,0,0,1-11.83,11.35q10.83,3.38,16.85,11.26t6,19.41a34.25,34.25,0,0,1-5.45,19.4,35.85,35.85,0,0,1-15.38,12.78q-9.93,4.56-23.44,4.55Zm30.5-76.59h16.37q8.14,0,12.74-3.59a12,12,0,0,0,4.59-10,11.49,11.49,0,0,0-4.64-9.62q-4.64-3.56-12.86-3.55h-16.2Zm0,50h18.36a32.88,32.88,0,0,0,11.18-1.69,15.63,15.63,0,0,0,7.19-4.85,11.64,11.64,0,0,0,2.51-7.49,11.81,11.81,0,0,0-2.25-7.32,14.09,14.09,0,0,0-6.5-4.6,29.46,29.46,0,0,0-10.31-1.6H776.08Z"/><path class="cls-2" d="M925.79,339.34a72.41,72.41,0,0,1-27.42-5.07,65.77,65.77,0,0,1-21.79-14.21,64.56,64.56,0,0,1-14.38-21.44,73.15,73.15,0,0,1,0-53.72,64.56,64.56,0,0,1,14.38-21.44,65.93,65.93,0,0,1,21.79-14.21,76.68,76.68,0,0,1,54.84,0,64.54,64.54,0,0,1,36,35.65,73,73,0,0,1,0,53.72,64.54,64.54,0,0,1-36,35.65A72.34,72.34,0,0,1,925.79,339.34Zm0-26.6a35,35,0,0,0,14.77-3.12,36.22,36.22,0,0,0,11.87-8.7,40.68,40.68,0,0,0,7.89-13,47.61,47.61,0,0,0,0-32.23,40.46,40.46,0,0,0-7.89-13,36.1,36.1,0,0,0-11.87-8.71,35,35,0,0,0-14.77-3.12,35.63,35.63,0,0,0-14.86,3.12A36,36,0,0,0,899,242.61a40.46,40.46,0,0,0-7.89,13,47.61,47.61,0,0,0,0,32.23,40.68,40.68,0,0,0,7.89,13,36.12,36.12,0,0,0,11.95,8.7A35.63,35.63,0,0,0,925.79,312.74Z"/><path class="cls-2" d="M1074.3,339.34a72.43,72.43,0,0,1-27.43-5.07,65.87,65.87,0,0,1-21.79-14.21,64.56,64.56,0,0,1-14.38-21.44,73.15,73.15,0,0,1,0-53.72,64.56,64.56,0,0,1,14.38-21.44,66,66,0,0,1,21.79-14.21,76.71,76.71,0,0,1,54.85,0,64.62,64.62,0,0,1,36,35.65,73.15,73.15,0,0,1,0,53.72,64.62,64.62,0,0,1-36,35.65A72.41,72.41,0,0,1,1074.3,339.34Zm0-26.6a35,35,0,0,0,14.77-3.12,36.43,36.43,0,0,0,11.87-8.7,40.66,40.66,0,0,0,7.88-13,47.45,47.45,0,0,0,0-32.23,40.44,40.44,0,0,0-7.88-13,36.31,36.31,0,0,0-11.87-8.71,35,35,0,0,0-14.77-3.12,35.57,35.57,0,0,0-14.86,3.12,35.94,35.94,0,0,0-12,8.71,40.27,40.27,0,0,0-7.88,13,47.45,47.45,0,0,0,0,32.23,40.48,40.48,0,0,0,7.88,13,36.06,36.06,0,0,0,12,8.7A35.57,35.57,0,0,0,1074.3,312.74Z"/><path class="cls-2" d="M1152,322.27l14.38-23.22a88.09,88.09,0,0,0,11.7,7.93,49.67,49.67,0,0,0,10.92,4.55,41.16,41.16,0,0,0,10.91,1.47,30.41,30.41,0,0,0,10.45-1.6,15.12,15.12,0,0,0,6.75-4.55,10.8,10.8,0,0,0,2.39-7,11.27,11.27,0,0,0-3.21-8.1,29.69,29.69,0,0,0-8.45-5.89q-5.24-2.55-11.39-5.07t-12.69-5.63a56.68,56.68,0,0,1-11.83-7.41,34.54,34.54,0,0,1-8.71-10.61A31.83,31.83,0,0,1,1159.9,242q0-11.79,5.93-20.23a38.08,38.08,0,0,1,16.29-13,57.73,57.73,0,0,1,23.44-4.55,84.51,84.51,0,0,1,19.88,2.51,97.82,97.82,0,0,1,20.84,7.8L1234.41,239a58.46,58.46,0,0,0-13.47-6,46.48,46.48,0,0,0-13.48-2.21,23.84,23.84,0,0,0-8.62,1.43,13.11,13.11,0,0,0-5.72,4,9.57,9.57,0,0,0-2,6.06,10.62,10.62,0,0,0,3.16,7.67,31.08,31.08,0,0,0,8.27,5.85q5.12,2.6,11.09,5.28,6.33,2.7,12.87,6a66.63,66.63,0,0,1,12,7.76,34.58,34.58,0,0,1,8.84,10.7,31.43,31.43,0,0,1,3.34,15,34.37,34.37,0,0,1-6.2,20.31,40.2,40.2,0,0,1-17.33,13.65q-11.13,4.85-25.86,4.85a78.77,78.77,0,0,1-26.12-4.37A80.78,80.78,0,0,1,1152,322.27Z"/><path class="cls-2" d="M1323.22,336.74h-30.5V233.38h-37.17v-26.6h104.83v26.6h-37.16Z"/><path class="cls-2" d="M1371.3,336.74v-130h85.26v26.6H1401.8v24.87h51.29v26.59H1401.8v25.3h55.62v26.6Z"/><path class="cls-2" d="M1584.52,336.74h-33.7l-26.08-45h-18.45v45h-30.5v-130h50.86q16.29,0,27.81,5a38.6,38.6,0,0,1,17.63,14.55q6.11,9.54,6.11,23,0,13.08-5.94,22.44a38.2,38.2,0,0,1-16.93,14.38ZM1506.29,268h18q11.09,0,16.89-4.42t5.81-12.82q0-8.49-5.81-12.91t-16.89-4.42h-18Z"/></svg>